<svg width="222" height="180" viewBox="0 0 222 180" fill="none" xmlns="http://www.w3.org/2000/svg">
<rect width="171.342" height="163.893" rx="8.93959" transform="matrix(1 0 -0.261515 0.965199 50.6577 21.4698)" fill="white"/>
<path d="M93.7995 98.7116L95.7831 91.3905H98.6275C99.2102 91.3905 99.6726 91.4882 100.015 91.6836C100.359 91.879 100.585 92.1531 100.692 92.5058C100.802 92.8561 100.794 93.2648 100.667 93.7319C100.54 94.2014 100.326 94.609 100.025 94.9545C99.7269 95.2977 99.3524 95.5634 98.9014 95.7517C98.4511 95.9376 97.9345 96.0305 97.3518 96.0305H95.3259L95.6242 94.9295H97.4649C97.8057 94.9295 98.097 94.8842 98.3388 94.7937C98.5812 94.7007 98.7782 94.5661 98.9297 94.3897C99.0843 94.211 99.1968 93.9917 99.2672 93.7319C99.3376 93.4722 99.3445 93.2505 99.2881 93.067C99.2323 92.8811 99.1086 92.7405 98.9172 92.6452C98.7264 92.5475 98.4594 92.4986 98.1162 92.4986H96.8569L95.1736 98.7116H93.7995ZM98.6168 95.3942L99.5957 98.7116H98.0624L97.1168 95.3942H98.6168ZM106.114 94.6721L104.857 94.8008C104.855 94.6816 104.825 94.5696 104.767 94.4648C104.711 94.3599 104.621 94.2753 104.495 94.211C104.369 94.1466 104.202 94.1144 103.995 94.1144C103.716 94.1144 103.466 94.1728 103.244 94.2896C103.025 94.4064 102.891 94.5577 102.843 94.7436C102.797 94.9033 102.823 95.0332 102.919 95.1333C103.018 95.2334 103.203 95.3156 103.474 95.3799L104.39 95.5801C104.898 95.6921 105.25 95.8697 105.446 96.1127C105.644 96.3558 105.692 96.674 105.588 97.0672C105.491 97.4128 105.304 97.7178 105.025 97.9824C104.749 98.2445 104.408 98.4495 104.003 98.5972C103.597 98.745 103.157 98.8189 102.683 98.8189C101.987 98.8189 101.465 98.6782 101.116 98.397C100.768 98.1134 100.622 97.719 100.677 97.2138L102.018 97.0922C102.01 97.3401 102.085 97.5272 102.244 97.6535C102.402 97.7798 102.635 97.8429 102.944 97.8429C103.263 97.8429 103.535 97.7798 103.762 97.6535C103.991 97.5272 104.131 97.3711 104.181 97.1852C104.224 97.0279 104.196 96.898 104.098 96.7955C104.002 96.6931 103.831 96.6144 103.584 96.5596L102.667 96.363C102.151 96.2534 101.798 96.0687 101.606 95.8089C101.416 95.5467 101.376 95.2155 101.487 94.8151C101.576 94.4767 101.75 94.1836 102.01 93.9357C102.273 93.6855 102.596 93.4924 102.978 93.3566C103.364 93.2184 103.784 93.1493 104.238 93.1493C104.905 93.1493 105.392 93.2863 105.701 93.5604C106.012 93.8344 106.149 94.205 106.114 94.6721ZM107.052 98.7903C106.827 98.7903 106.656 98.714 106.536 98.5615C106.417 98.4089 106.389 98.2231 106.45 98.0038C106.506 97.7893 106.635 97.6058 106.837 97.4533C107.038 97.3008 107.252 97.2245 107.476 97.2245C107.694 97.2245 107.862 97.3008 107.981 97.4533C108.103 97.6058 108.136 97.7893 108.08 98.0038C108.038 98.1492 107.963 98.2814 107.854 98.4006C107.748 98.5198 107.623 98.6151 107.48 98.6866C107.34 98.7557 107.198 98.7903 107.052 98.7903ZM114.305 98.8117C113.772 98.8117 113.322 98.7235 112.955 98.5472C112.59 98.3708 112.331 98.1253 112.177 97.8108C112.022 97.4962 111.994 97.1327 112.091 96.7205H113.483C113.442 96.9183 113.463 97.091 113.546 97.2388C113.631 97.3842 113.764 97.4974 113.947 97.5784C114.13 97.6594 114.349 97.6999 114.603 97.6999C114.875 97.6999 115.128 97.6547 115.362 97.5641C115.597 97.4712 115.796 97.3425 115.959 97.178C116.122 97.0136 116.232 96.8241 116.287 96.6096C116.35 96.388 116.344 96.1926 116.268 96.0234C116.193 95.8542 116.054 95.7219 115.85 95.6266C115.649 95.5312 115.387 95.4836 115.066 95.4836H114.396L114.673 94.4612H115.344C115.608 94.4612 115.851 94.4171 116.072 94.3289C116.296 94.2408 116.486 94.1168 116.643 93.9572C116.801 93.7951 116.907 93.608 116.962 93.3959C117.02 93.1886 117.021 93.0086 116.964 92.8561C116.909 92.7012 116.805 92.5809 116.65 92.4951C116.498 92.4093 116.304 92.3664 116.067 92.3664C115.835 92.3664 115.609 92.4069 115.389 92.4879C115.17 92.569 114.979 92.6845 114.818 92.8347C114.657 92.9824 114.545 93.1588 114.482 93.3637H113.159C113.28 92.9538 113.5 92.594 113.819 92.2842C114.14 91.972 114.522 91.7289 114.964 91.5549C115.407 91.3786 115.874 91.2904 116.366 91.2904C116.872 91.2904 117.286 91.3821 117.61 91.5656C117.936 91.7468 118.16 91.991 118.281 92.2985C118.403 92.6059 118.413 92.9455 118.313 93.3173C118.203 93.7296 117.984 94.0751 117.654 94.354C117.327 94.6328 116.946 94.8151 116.513 94.9009L116.498 94.9581C117.012 95.0296 117.369 95.2202 117.569 95.5301C117.772 95.8375 117.81 96.22 117.684 96.6776C117.573 97.0875 117.352 97.4545 117.022 97.7786C116.696 98.1003 116.296 98.3529 115.825 98.5364C115.355 98.72 114.849 98.8117 114.305 98.8117ZM123.048 91.2904C123.41 91.2928 123.747 91.3547 124.057 91.4763C124.37 91.5954 124.628 91.7908 124.831 92.0625C125.035 92.3318 125.157 92.6929 125.197 93.1457C125.237 93.5985 125.167 94.1585 124.986 94.8258C124.818 95.455 124.597 96.0174 124.322 96.5131C124.05 97.0064 123.738 97.4235 123.386 97.7643C123.035 98.1051 122.652 98.3649 122.238 98.5436C121.824 98.7223 121.389 98.8117 120.932 98.8117C120.453 98.8117 120.053 98.7211 119.732 98.54C119.413 98.3589 119.183 98.111 119.041 97.7965C118.899 97.4819 118.857 97.122 118.915 96.7169H120.267C120.257 97.0076 120.335 97.2388 120.501 97.4104C120.67 97.5796 120.917 97.6642 121.243 97.6642C121.769 97.6642 122.234 97.4438 122.637 97.0029C123.041 96.562 123.349 95.9495 123.561 95.1654H123.509C123.331 95.3752 123.125 95.5563 122.892 95.7088C122.658 95.8589 122.408 95.9745 122.142 96.0556C121.878 96.1366 121.61 96.1771 121.339 96.1771C120.894 96.1771 120.522 96.0746 120.222 95.8697C119.924 95.6647 119.72 95.3835 119.61 95.026C119.502 94.6685 119.509 94.2598 119.631 93.7999C119.76 93.3232 119.99 92.8954 120.319 92.5165C120.652 92.1352 121.053 91.8349 121.523 91.6157C121.993 91.394 122.501 91.2856 123.048 91.2904ZM122.761 92.3628C122.494 92.3628 122.237 92.426 121.988 92.5523C121.742 92.6762 121.528 92.8454 121.346 93.0599C121.168 93.272 121.043 93.5091 120.972 93.7713C120.904 94.031 120.901 94.267 120.962 94.4791C121.025 94.6912 121.144 94.8592 121.318 94.9831C121.494 95.107 121.717 95.169 121.986 95.169C122.186 95.169 122.382 95.1321 122.575 95.0582C122.768 94.9843 122.946 94.8818 123.11 94.7508C123.277 94.6173 123.42 94.466 123.537 94.2968C123.657 94.1276 123.741 93.9488 123.79 93.7605C123.858 93.5103 123.858 93.2791 123.792 93.067C123.729 92.8549 123.608 92.6845 123.431 92.5558C123.256 92.4272 123.033 92.3628 122.761 92.3628ZM129.811 91.2904C130.173 91.2928 130.509 91.3547 130.82 91.4763C131.133 91.5954 131.391 91.7908 131.594 92.0625C131.798 92.3318 131.92 92.6929 131.96 93.1457C132 93.5985 131.93 94.1585 131.749 94.8258C131.581 95.455 131.36 96.0174 131.085 96.5131C130.813 97.0064 130.501 97.4235 130.149 97.7643C129.798 98.1051 129.415 98.3649 129.001 98.5436C128.587 98.7223 128.152 98.8117 127.695 98.8117C127.216 98.8117 126.816 98.7211 126.495 98.54C126.176 98.3589 125.946 98.111 125.804 97.7965C125.662 97.4819 125.62 97.122 125.678 96.7169H127.029C127.02 97.0076 127.098 97.2388 127.264 97.4104C127.433 97.5796 127.68 97.6642 128.006 97.6642C128.532 97.6642 128.997 97.4438 129.4 97.0029C129.803 96.562 130.111 95.9495 130.324 95.1654H130.272C130.094 95.3752 129.888 95.5563 129.654 95.7088C129.421 95.8589 129.171 95.9745 128.905 96.0556C128.641 96.1366 128.373 96.1771 128.102 96.1771C127.657 96.1771 127.285 96.0746 126.985 95.8697C126.687 95.6647 126.483 95.3835 126.373 95.026C126.265 94.6685 126.272 94.2598 126.394 93.7999C126.523 93.3232 126.753 92.8954 127.082 92.5165C127.415 92.1352 127.816 91.8349 128.286 91.6157C128.756 91.394 129.264 91.2856 129.811 91.2904ZM129.524 92.3628C129.257 92.3628 128.999 92.426 128.75 92.5523C128.504 92.6762 128.291 92.8454 128.109 93.0599C127.931 93.272 127.806 93.5091 127.735 93.7713C127.667 94.031 127.664 94.267 127.725 94.4791C127.788 94.6912 127.907 94.8592 128.081 94.9831C128.257 95.107 128.48 95.169 128.749 95.169C128.949 95.169 129.145 95.1321 129.338 95.0582C129.531 94.9843 129.709 94.8818 129.873 94.7508C130.04 94.6173 130.182 94.466 130.3 94.2968C130.42 94.1276 130.504 93.9488 130.553 93.7605C130.62 93.5103 130.621 93.2791 130.555 93.067C130.492 92.8549 130.371 92.6845 130.194 92.5558C130.019 92.4272 129.796 92.3628 129.524 92.3628ZM136.574 91.2904C136.936 91.2928 137.272 91.3547 137.583 91.4763C137.896 91.5954 138.154 91.7908 138.357 92.0625C138.561 92.3318 138.683 92.6929 138.723 93.1457C138.763 93.5985 138.693 94.1585 138.512 94.8258C138.344 95.455 138.123 96.0174 137.848 96.5131C137.576 97.0064 137.264 97.4235 136.912 97.7643C136.561 98.1051 136.178 98.3649 135.764 98.5436C135.35 98.7223 134.915 98.8117 134.458 98.8117C133.979 98.8117 133.579 98.7211 133.258 98.54C132.939 98.3589 132.708 98.111 132.567 97.7965C132.425 97.4819 132.383 97.122 132.44 96.7169H133.792C133.783 97.0076 133.861 97.2388 134.027 97.4104C134.196 97.5796 134.443 97.6642 134.769 97.6642C135.295 97.6642 135.76 97.4438 136.163 97.0029C136.566 96.562 136.874 95.9495 137.087 95.1654H137.035C136.857 95.3752 136.651 95.5563 136.417 95.7088C136.184 95.8589 135.934 95.9745 135.668 96.0556C135.404 96.1366 135.136 96.1771 134.865 96.1771C134.42 96.1771 134.048 96.0746 133.748 95.8697C133.45 95.6647 133.246 95.3835 133.136 95.026C133.028 94.6685 133.035 94.2598 133.157 93.7999C133.286 93.3232 133.515 92.8954 133.845 92.5165C134.178 92.1352 134.579 91.8349 135.049 91.6157C135.518 91.394 136.027 91.2856 136.574 91.2904ZM136.287 92.3628C136.02 92.3628 135.762 92.426 135.513 92.5523C135.267 92.6762 135.054 92.8454 134.872 93.0599C134.694 93.272 134.569 93.5091 134.498 93.7713C134.43 94.031 134.426 94.267 134.488 94.4791C134.551 94.6912 134.67 94.8592 134.844 94.9831C135.02 95.107 135.243 95.169 135.512 95.169C135.712 95.169 135.908 95.1321 136.101 95.0582C136.294 94.9843 136.472 94.8818 136.636 94.7508C136.803 94.6173 136.945 94.466 137.063 94.2968C137.183 94.1276 137.267 93.9488 137.316 93.7605C137.383 93.5103 137.384 93.2791 137.318 93.067C137.255 92.8549 137.134 92.6845 136.957 92.5558C136.782 92.4272 136.558 92.3628 136.287 92.3628Z" fill="#010103"/>
<path d="M80.0794 81.9794L81.7796 75.7041H84.0971C84.6029 75.7041 84.9979 75.793 85.282 75.9707C85.5661 76.1484 85.7489 76.3915 85.8304 76.6999C85.9125 77.0064 85.9015 77.3516 85.7974 77.7356C85.6928 78.1217 85.5151 78.469 85.2644 78.7774C85.0163 79.0838 84.7007 79.3269 84.3176 79.5067C83.9372 79.6844 83.4951 79.7732 82.9914 79.7732H81.3978L81.6153 78.9704H83.12C83.4396 78.9704 83.7132 78.9173 83.941 78.8111C84.1692 78.7028 84.3551 78.5558 84.4986 78.3699C84.6421 78.184 84.7459 77.9726 84.8101 77.7356C84.8743 77.4987 84.8848 77.2883 84.8415 77.1044C84.7982 76.9206 84.6901 76.7765 84.5173 76.6724C84.3466 76.5682 84.0982 76.5161 83.7723 76.5161H82.5406L81.0603 81.9794H80.0794ZM87.0686 82.0836C86.7596 82.0836 86.4951 82.0284 86.2753 81.9181C86.056 81.8057 85.9021 81.6434 85.8137 81.4309C85.7273 81.2185 85.7259 80.958 85.8095 80.6496C85.8814 80.384 85.9936 80.1654 86.1459 79.9938C86.2982 79.8223 86.4778 79.6864 86.6849 79.5863C86.8919 79.4862 87.1134 79.4106 87.3495 79.3596C87.5855 79.3085 87.8225 79.2697 88.0604 79.2431C88.3613 79.2105 88.6055 79.1839 88.7931 79.1635C88.9812 79.141 89.1231 79.1053 89.2189 79.0562C89.3148 79.0072 89.3776 78.9275 89.4075 78.8172L89.4133 78.7958C89.4858 78.5282 89.4637 78.3209 89.3469 78.1738C89.2323 78.0267 89.0215 77.9532 88.7146 77.9532C88.3951 77.9532 88.1247 78.0216 87.9035 78.1585C87.6849 78.2933 87.5183 78.4434 87.4037 78.6089L86.5647 78.4128C86.748 78.1268 86.9651 77.896 87.2158 77.7203C87.4693 77.5426 87.7401 77.4139 88.0284 77.3342C88.3172 77.2525 88.6087 77.2117 88.9029 77.2117C89.0976 77.2117 89.2978 77.2341 89.5036 77.2791C89.7121 77.322 89.8958 77.4016 90.0547 77.5181C90.2158 77.6345 90.3283 77.801 90.3924 78.0175C90.4571 78.232 90.4429 78.5108 90.3499 78.854L89.5031 81.9794H88.5761L88.7505 81.3359H88.7124C88.6189 81.4544 88.4953 81.5708 88.3415 81.6852C88.1878 81.7996 88.0044 81.8946 87.7913 81.9702C87.5783 82.0458 87.3373 82.0836 87.0686 82.0836ZM87.4741 81.3482C87.7366 81.3482 87.9745 81.2981 88.1878 81.198C88.4033 81.0979 88.5816 80.9672 88.7227 80.8058C88.8664 80.6424 88.9635 80.4678 89.0138 80.2819L89.1782 79.6752C89.1355 79.7079 89.0616 79.7385 88.9565 79.7671C88.8541 79.7937 88.7387 79.8172 88.6104 79.8376C88.4827 79.856 88.3584 79.8733 88.2376 79.8897C88.1173 79.904 88.0166 79.9162 87.9356 79.9264C87.7453 79.9489 87.5668 79.9867 87.4001 80.0398C87.2354 80.0929 87.094 80.1695 86.9759 80.2696C86.8605 80.3677 86.7806 80.4984 86.7363 80.6618C86.6749 80.8886 86.7152 81.0602 86.8572 81.1766C86.9997 81.291 87.2054 81.3482 87.4741 81.3482ZM90.7146 83.7443C90.5728 83.7443 90.4467 83.7331 90.3364 83.7106C90.2255 83.6902 90.1449 83.6677 90.0944 83.6432L90.5263 82.8925C90.6877 82.9374 90.8369 82.9568 90.974 82.9507C91.1112 82.9446 91.244 82.8955 91.3726 82.8036C91.5033 82.7117 91.6371 82.5616 91.774 82.3532L91.9762 82.0407L91.4838 77.2729H92.4997L92.745 80.9253H92.7958L95.0203 77.2729H96.0394L92.5845 82.6075C92.4249 82.8526 92.2502 83.06 92.0604 83.2295C91.87 83.4011 91.6637 83.5298 91.4415 83.6156C91.2193 83.7014 90.977 83.7443 90.7146 83.7443ZM95.6562 81.9794L96.9314 77.2729H97.8425L97.635 78.039H97.6953C97.8672 77.7795 98.0881 77.5773 98.3581 77.4323C98.6286 77.2852 98.9247 77.2117 99.2464 77.2117C99.5723 77.2117 99.8254 77.2852 100.006 77.4323C100.188 77.5793 100.297 77.7816 100.333 78.039H100.384C100.569 77.7877 100.808 77.5875 101.102 77.4384C101.397 77.2872 101.72 77.2117 102.072 77.2117C102.514 77.2117 102.839 77.3454 103.046 77.613C103.255 77.8806 103.286 78.2841 103.14 78.8234L102.285 81.9794H101.336L102.167 78.9092C102.254 78.5905 102.226 78.3597 102.085 78.2167C101.944 78.0737 101.749 78.0022 101.499 78.0022C101.19 78.0022 100.925 78.0941 100.704 78.278C100.483 78.4598 100.334 78.6937 100.256 78.9796L99.4435 81.9794H98.4975L99.3451 78.8509C99.4143 78.5956 99.3874 78.3903 99.2643 78.2351C99.1413 78.0798 98.9476 78.0022 98.683 78.0022C98.5031 78.0022 98.3245 78.0481 98.1472 78.1401C97.9726 78.23 97.8169 78.3556 97.68 78.517C97.5453 78.6783 97.4492 78.8652 97.3916 79.0777L96.6054 81.9794H95.6562ZM105.633 82.0744C105.152 82.0744 104.765 81.9753 104.472 81.7772C104.181 81.577 103.991 81.2961 103.9 80.9345C103.813 80.5709 103.835 80.145 103.967 79.6568C104.098 79.1747 104.306 78.7498 104.592 78.3821C104.88 78.0144 105.22 77.7274 105.612 77.5211C106.007 77.3148 106.431 77.2117 106.884 77.2117C107.159 77.2117 107.414 77.2556 107.648 77.3434C107.882 77.4312 108.077 77.5691 108.231 77.7571C108.385 77.945 108.481 78.1891 108.518 78.4894C108.556 78.7876 108.517 79.1502 108.401 79.5771L108.313 79.9019H104.437L104.623 79.2156H107.569C107.635 78.9745 107.642 78.7611 107.59 78.5752C107.54 78.3872 107.437 78.2391 107.282 78.1309C107.13 78.0226 106.93 77.9685 106.685 77.9685C106.418 77.9685 106.168 78.0318 105.935 78.1585C105.704 78.2831 105.508 78.4465 105.345 78.6487C105.185 78.8489 105.073 79.0664 105.01 79.3014L104.864 79.8376C104.779 80.1522 104.764 80.4198 104.818 80.6404C104.875 80.861 104.991 81.0295 105.167 81.1459C105.343 81.2603 105.57 81.3175 105.847 81.3175C106.027 81.3175 106.198 81.293 106.359 81.244C106.521 81.1929 106.67 81.1173 106.805 81.0173C106.94 80.9172 107.056 80.7936 107.153 80.6465L108.009 80.8028C107.868 81.0581 107.678 81.2818 107.44 81.4738C107.204 81.6638 106.932 81.8119 106.624 81.9181C106.319 82.0223 105.988 82.0744 105.633 82.0744ZM110.51 79.1849L109.753 81.9794H108.804L110.079 77.2729H110.99L110.782 78.039H110.843C111.022 77.7897 111.252 77.5896 111.532 77.4384C111.815 77.2872 112.139 77.2117 112.505 77.2117C112.837 77.2117 113.11 77.2791 113.323 77.4139C113.537 77.5467 113.677 77.7448 113.743 78.0083C113.809 78.2718 113.79 78.5976 113.685 78.9858L112.874 81.9794H111.924L112.706 79.0961C112.798 78.7549 112.778 78.4884 112.646 78.2963C112.514 78.1023 112.288 78.0053 111.966 78.0053C111.746 78.0053 111.538 78.0512 111.342 78.1431C111.147 78.2351 110.976 78.3699 110.829 78.5476C110.684 78.7233 110.578 78.9357 110.51 79.1849ZM117.698 77.2729L117.499 78.0083H114.835L115.034 77.2729H117.698ZM116.054 76.1453H117.003L115.797 80.5975C115.749 80.7752 115.74 80.909 115.771 80.9989C115.802 81.0867 115.857 81.147 115.935 81.1797C116.015 81.2103 116.107 81.2256 116.211 81.2256C116.287 81.2256 116.355 81.2205 116.415 81.2103C116.475 81.2001 116.522 81.1919 116.555 81.1858L116.522 81.9426C116.461 81.963 116.377 81.9835 116.27 82.0039C116.162 82.0264 116.032 82.0386 115.879 82.0407C115.628 82.0447 115.407 82.0019 115.216 81.912C115.024 81.8221 114.887 81.6832 114.805 81.4953C114.722 81.3073 114.72 81.0714 114.796 80.7874L116.054 76.1453ZM124.714 77.3526C124.759 77.0625 124.68 76.8378 124.478 76.6785C124.276 76.5171 123.989 76.4364 123.617 76.4364C123.35 76.4364 123.108 76.4773 122.891 76.559C122.675 76.6387 122.494 76.749 122.348 76.8899C122.204 77.0288 122.108 77.1871 122.06 77.3649C122.02 77.514 122.021 77.6427 122.064 77.7509C122.108 77.8592 122.18 77.9501 122.279 78.0236C122.38 78.0951 122.493 78.1554 122.617 78.2044C122.742 78.2514 122.863 78.2902 122.982 78.3209L123.574 78.4802C123.768 78.5292 123.963 78.5956 124.158 78.6794C124.353 78.7631 124.526 78.8734 124.675 79.0103C124.824 79.1471 124.928 79.3167 124.988 79.5189C125.049 79.7211 125.042 79.9632 124.966 80.2451C124.869 80.6005 124.688 80.9161 124.423 81.1919C124.16 81.4677 123.827 81.6852 123.424 81.8446C123.023 82.0039 122.569 82.0836 122.061 82.0836C121.574 82.0836 121.173 82.009 120.858 81.8599C120.543 81.7108 120.322 81.4993 120.195 81.2256C120.069 80.9498 120.046 80.623 120.127 80.2451H121.112C121.069 80.4718 121.094 80.6608 121.187 80.812C121.282 80.9611 121.424 81.0724 121.614 81.1459C121.806 81.2174 122.028 81.2532 122.28 81.2532C122.557 81.2532 122.815 81.2113 123.053 81.1276C123.295 81.0418 123.498 80.9233 123.664 80.7721C123.83 80.6189 123.941 80.4402 123.997 80.2359C124.047 80.05 124.033 79.8978 123.955 79.7794C123.879 79.6609 123.759 79.5628 123.594 79.4852C123.431 79.4076 123.241 79.3392 123.024 79.2799L122.31 79.0777C121.827 78.9408 121.469 78.7396 121.236 78.4741C121.005 78.2085 120.949 77.8572 121.068 77.42C121.165 77.0584 121.353 76.7428 121.629 76.4732C121.905 76.2036 122.237 75.9942 122.624 75.8451C123.012 75.6939 123.424 75.6183 123.86 75.6183C124.301 75.6183 124.669 75.6929 124.965 75.842C125.263 75.9911 125.474 76.1964 125.598 76.4579C125.722 76.7173 125.743 77.0155 125.66 77.3526H124.714ZM129.209 80.0276L129.956 77.2729H130.908L129.633 81.9794H128.7L128.92 81.1643H128.87C128.689 81.4156 128.453 81.625 128.16 81.7925C127.869 81.9579 127.541 82.0407 127.175 82.0407C126.862 82.0407 126.603 81.9743 126.397 81.8415C126.195 81.7067 126.06 81.5075 125.994 81.244C125.93 80.9805 125.951 80.6547 126.056 80.2666L126.867 77.2729H127.816L127.035 80.1562C126.948 80.477 126.971 80.7323 127.103 80.9223C127.236 81.1122 127.45 81.2072 127.744 81.2072C127.921 81.2072 128.11 81.1643 128.309 81.0785C128.51 80.9927 128.692 80.863 128.855 80.6894C129.021 80.5158 129.139 80.2952 129.209 80.0276ZM132.936 82.0744C132.465 82.0744 132.086 81.9712 131.801 81.7649C131.519 81.5565 131.337 81.2695 131.254 80.9039C131.171 80.5382 131.193 80.1195 131.321 79.6476C131.45 79.1696 131.658 78.7478 131.943 78.3821C132.229 78.0144 132.569 77.7274 132.964 77.5211C133.358 77.3148 133.785 77.2117 134.244 77.2117C134.615 77.2117 134.927 77.278 135.181 77.4108C135.435 77.5416 135.62 77.7254 135.733 77.9624C135.849 78.1993 135.881 78.4761 135.829 78.7927H134.905C134.914 78.5721 134.849 78.3821 134.71 78.2228C134.573 78.0635 134.354 77.9838 134.051 77.9838C133.787 77.9838 133.537 78.0512 133.301 78.186C133.068 78.3188 132.863 78.5088 132.686 78.756C132.51 79.0011 132.376 79.2911 132.286 79.6262C132.193 79.9693 132.166 80.2655 132.207 80.5147C132.247 80.764 132.347 80.957 132.507 81.0939C132.669 81.2307 132.884 81.2992 133.153 81.2992C133.333 81.2992 133.504 81.2675 133.667 81.2042C133.833 81.1388 133.982 81.0459 134.114 80.9253C134.249 80.8048 134.359 80.6598 134.445 80.4902H135.369C135.252 80.7946 135.076 81.0663 134.84 81.3053C134.604 81.5443 134.323 81.7322 133.998 81.8691C133.676 82.0059 133.322 82.0744 132.936 82.0744ZM138.009 82.0744C137.537 82.0744 137.158 81.9712 136.873 81.7649C136.591 81.5565 136.409 81.2695 136.326 80.9039C136.243 80.5382 136.265 80.1195 136.393 79.6476C136.523 79.1696 136.73 78.7478 137.015 78.3821C137.301 78.0144 137.641 77.7274 138.036 77.5211C138.43 77.3148 138.857 77.2117 139.317 77.2117C139.687 77.2117 139.999 77.278 140.253 77.4108C140.508 77.5416 140.692 77.7254 140.805 77.9624C140.921 78.1993 140.953 78.4761 140.901 78.7927H139.977C139.986 78.5721 139.921 78.3821 139.782 78.2228C139.646 78.0635 139.426 77.9838 139.123 77.9838C138.859 77.9838 138.609 78.0512 138.373 78.186C138.14 78.3188 137.936 78.5088 137.759 78.756C137.582 79.0011 137.448 79.2911 137.358 79.6262C137.265 79.9693 137.238 80.2655 137.279 80.5147C137.319 80.764 137.419 80.957 137.579 81.0939C137.741 81.2307 137.956 81.2992 138.225 81.2992C138.405 81.2992 138.576 81.2675 138.74 81.2042C138.905 81.1388 139.054 81.0459 139.187 80.9253C139.321 80.8048 139.431 80.6598 139.517 80.4902H140.441C140.325 80.7946 140.148 81.0663 139.912 81.3053C139.676 81.5443 139.396 81.7322 139.071 81.8691C138.748 82.0059 138.394 82.0744 138.009 82.0744ZM143.128 82.0744C142.648 82.0744 142.261 81.9753 141.968 81.7772C141.677 81.577 141.486 81.2961 141.396 80.9345C141.308 80.5709 141.331 80.145 141.463 79.6568C141.593 79.1747 141.802 78.7498 142.088 78.3821C142.376 78.0144 142.716 77.7274 143.108 77.5211C143.503 77.3148 143.926 77.2117 144.379 77.2117C144.654 77.2117 144.909 77.2556 145.144 77.3434C145.378 77.4312 145.572 77.5691 145.727 77.7571C145.881 77.945 145.977 78.1891 146.014 78.4894C146.052 78.7876 146.013 79.1502 145.897 79.5771L145.809 79.9019H141.933L142.119 79.2156H145.065C145.13 78.9745 145.137 78.7611 145.086 78.5752C145.035 78.3872 144.933 78.2391 144.778 78.1309C144.625 78.0226 144.426 77.9685 144.181 77.9685C143.914 77.9685 143.664 78.0318 143.431 78.1585C143.2 78.2831 143.003 78.4465 142.841 78.6487C142.681 78.8489 142.569 79.0664 142.505 79.3014L142.36 79.8376C142.275 80.1522 142.259 80.4198 142.314 80.6404C142.37 80.861 142.487 81.0295 142.663 81.1459C142.839 81.2603 143.066 81.3175 143.343 81.3175C143.523 81.3175 143.694 81.293 143.855 81.244C144.017 81.1929 144.165 81.1173 144.301 81.0173C144.436 80.9172 144.552 80.7936 144.649 80.6465L145.505 80.8028C145.364 81.0581 145.174 81.2818 144.936 81.4738C144.7 81.6638 144.428 81.8119 144.12 81.9181C143.814 82.0223 143.484 82.0744 143.128 82.0744ZM150.917 78.422L150.017 78.569C150.01 78.4628 149.98 78.3617 149.928 78.2657C149.878 78.1697 149.795 78.091 149.681 78.0298C149.566 77.9685 149.41 77.9378 149.213 77.9378C148.945 77.9378 148.705 77.9961 148.493 78.1125C148.282 78.2269 148.152 78.375 148.103 78.5568C148.06 78.7141 148.086 78.8407 148.181 78.9367C148.276 79.0327 148.449 79.1114 148.701 79.1727L149.429 79.3443C149.851 79.4444 150.143 79.5986 150.307 79.8069C150.471 80.0153 150.507 80.286 150.417 80.6189C150.341 80.9008 150.188 81.1521 149.959 81.3727C149.733 81.5913 149.452 81.7629 149.118 81.8875C148.786 82.0121 148.423 82.0744 148.029 82.0744C147.483 82.0744 147.068 81.962 146.784 81.7373C146.5 81.5106 146.376 81.1888 146.411 80.7721L147.365 80.6373C147.359 80.8681 147.429 81.0428 147.575 81.1613C147.721 81.2777 147.937 81.3359 148.223 81.3359C148.534 81.3359 148.8 81.2736 149.02 81.149C149.24 81.0224 149.375 80.8681 149.424 80.6863C149.464 80.5393 149.44 80.4157 149.353 80.3156C149.268 80.2155 149.116 80.1399 148.897 80.0888L148.119 79.9142C147.691 79.8141 147.398 79.6548 147.239 79.4362C147.083 79.2176 147.05 78.9408 147.14 78.6058C147.216 78.328 147.362 78.0849 147.579 77.8766C147.797 77.6682 148.063 77.5058 148.378 77.3894C148.694 77.2709 149.035 77.2117 149.401 77.2117C149.928 77.2117 150.313 77.322 150.555 77.5426C150.799 77.7611 150.919 78.0543 150.917 78.422ZM155.71 78.422L154.81 78.569C154.803 78.4628 154.773 78.3617 154.721 78.2657C154.67 78.1697 154.588 78.091 154.473 78.0298C154.359 77.9685 154.203 77.9378 154.006 77.9378C153.737 77.9378 153.497 77.9961 153.286 78.1125C153.075 78.2269 152.945 78.375 152.896 78.5568C152.853 78.7141 152.879 78.8407 152.974 78.9367C153.068 79.0327 153.242 79.1114 153.494 79.1727L154.222 79.3443C154.644 79.4444 154.936 79.5986 155.1 79.8069C155.263 80.0153 155.3 80.286 155.21 80.6189C155.134 80.9008 154.981 81.1521 154.752 81.3727C154.525 81.5913 154.245 81.7629 153.911 81.8875C153.579 82.0121 153.216 82.0744 152.822 82.0744C152.276 82.0744 151.861 81.962 151.577 81.7373C151.293 81.5106 151.169 81.1888 151.203 80.7721L152.157 80.6373C152.152 80.8681 152.222 81.0428 152.368 81.1613C152.514 81.2777 152.73 81.3359 153.016 81.3359C153.327 81.3359 153.592 81.2736 153.812 81.149C154.033 81.0224 154.168 80.8681 154.217 80.6863C154.257 80.5393 154.233 80.4157 154.146 80.3156C154.061 80.2155 153.909 80.1399 153.69 80.0888L152.912 79.9142C152.484 79.8141 152.191 79.6548 152.032 79.4362C151.875 79.2176 151.842 78.9408 151.933 78.6058C152.008 78.328 152.155 78.0849 152.372 77.8766C152.589 77.6682 152.856 77.5058 153.171 77.3894C153.486 77.2709 153.827 77.2117 154.193 77.2117C154.72 77.2117 155.105 77.322 155.348 77.5426C155.592 77.7611 155.712 78.0543 155.71 78.422ZM159.481 77.2729L159.282 78.0083H156.526L156.725 77.2729H159.481ZM156.206 81.9794L157.629 76.7275C157.708 76.4334 157.841 76.1893 158.027 75.9952C158.213 75.7991 158.43 75.653 158.676 75.557C158.923 75.459 159.175 75.41 159.433 75.41C159.624 75.41 159.782 75.4253 159.91 75.4559C160.037 75.4845 160.131 75.5111 160.19 75.5356L159.766 76.2771C159.725 76.2648 159.672 76.2505 159.607 76.2342C159.542 76.2158 159.46 76.2066 159.36 76.2066C159.129 76.2066 158.949 76.2618 158.82 76.3721C158.693 76.4824 158.601 76.6417 158.545 76.8501L157.155 81.9794H156.206ZM162.803 80.0276L163.549 77.2729H164.501L163.226 81.9794H162.293L162.514 81.1643H162.463C162.283 81.4156 162.046 81.625 161.753 81.7925C161.463 81.9579 161.134 82.0407 160.768 82.0407C160.455 82.0407 160.196 81.9743 159.991 81.8415C159.788 81.7067 159.654 81.5075 159.587 81.244C159.523 80.9805 159.544 80.6547 159.649 80.2666L160.46 77.2729H161.409L160.628 80.1562C160.541 80.477 160.564 80.7323 160.697 80.9223C160.829 81.1122 161.043 81.2072 161.337 81.2072C161.515 81.2072 161.703 81.1643 161.902 81.0785C162.103 80.9927 162.285 80.863 162.449 80.6894C162.614 80.5158 162.732 80.2952 162.803 80.0276ZM167.151 75.7041L165.451 81.9794H164.502L166.202 75.7041H167.151Z" fill="#010103"/>
<rect width="67.9195" height="11.9597" rx="5.97986" transform="matrix(1 0 -0.261515 0.965199 79.104 107.036)" fill="#FAFAFC"/>
<path d="M84.2611 113.086L83.8136 114.738H83.3766L84.3684 111.077H84.8054L84.4413 112.421H84.4783C84.5834 112.28 84.7139 112.167 84.8698 112.084C85.0273 111.999 85.2178 111.957 85.4412 111.957C85.6351 111.957 85.7946 111.994 85.92 112.069C86.0456 112.143 86.1278 112.257 86.1664 112.411C86.2065 112.563 86.1946 112.757 86.1307 112.993L85.6581 114.738H85.221L85.6859 113.022C85.745 112.804 85.7321 112.635 85.6471 112.516C85.5636 112.396 85.4188 112.336 85.2126 112.336C85.0694 112.336 84.9331 112.365 84.8037 112.423C84.6756 112.482 84.5636 112.567 84.4678 112.679C84.3733 112.791 84.3044 112.927 84.2611 113.086ZM87.6347 114.795C87.3606 114.795 87.14 114.737 86.9729 114.62C86.8073 114.502 86.6994 114.337 86.6491 114.127C86.6004 113.914 86.6142 113.668 86.6904 113.387C86.7666 113.105 86.8868 112.858 87.0511 112.643C87.2169 112.427 87.4118 112.259 87.6358 112.139C87.8613 112.017 88.1025 111.957 88.3593 111.957C88.5074 111.957 88.6473 111.981 88.7788 112.028C88.9103 112.076 89.0208 112.153 89.1103 112.261C89.2 112.367 89.2564 112.507 89.2793 112.682C89.3022 112.858 89.279 113.073 89.2095 113.329L89.1611 113.508H86.9685L87.0673 113.144H88.8155C88.8574 112.989 88.8628 112.85 88.8315 112.729C88.8015 112.607 88.7374 112.511 88.6391 112.441C88.5421 112.371 88.4146 112.336 88.2566 112.336C88.0825 112.336 87.9206 112.377 87.7709 112.461C87.6227 112.543 87.4967 112.65 87.3929 112.782C87.2892 112.915 87.2168 113.057 87.1758 113.208L87.11 113.451C87.0538 113.658 87.0432 113.834 87.0782 113.978C87.1148 114.121 87.1896 114.23 87.3026 114.305C87.4159 114.379 87.5608 114.416 87.7373 114.416C87.8522 114.416 87.9601 114.401 88.061 114.37C88.1636 114.337 88.2574 114.29 88.3424 114.227C88.4277 114.162 88.5018 114.082 88.5647 113.987L88.9559 114.102C88.874 114.24 88.7664 114.361 88.633 114.466C88.5 114.57 88.3484 114.651 88.1783 114.709C88.0085 114.766 87.8273 114.795 87.6347 114.795ZM90.3773 113.086L89.9298 114.738H89.4927L90.2366 111.992H90.6588L90.5426 112.421H90.5796C90.6841 112.282 90.8156 112.17 90.9744 112.085C91.1334 112 91.3203 111.957 91.5352 111.957C91.7278 111.957 91.8859 111.995 92.0097 112.071C92.1338 112.146 92.2152 112.261 92.2538 112.414C92.2927 112.567 92.2805 112.76 92.2172 112.993L91.7446 114.738H91.3075L91.7724 113.022C91.8309 112.806 91.8184 112.638 91.7349 112.518C91.6518 112.396 91.509 112.336 91.3066 112.336C91.1671 112.336 91.0345 112.365 90.9088 112.423C90.7843 112.482 90.6754 112.567 90.5821 112.679C90.4888 112.791 90.4205 112.927 90.3773 113.086ZM92.5432 114.738L93.287 111.992H93.7092L93.5969 112.407H93.6265C93.7152 112.271 93.8389 112.161 93.9976 112.076C94.1563 111.992 94.3209 111.95 94.4912 111.95C94.5233 111.95 94.5633 111.95 94.6111 111.951C94.6589 111.953 94.6949 111.954 94.7189 111.957L94.6027 112.386C94.5889 112.382 94.5564 112.377 94.5052 112.37C94.4556 112.361 94.4018 112.357 94.3438 112.357C94.2055 112.357 94.0745 112.385 93.9507 112.441C93.8284 112.496 93.7225 112.572 93.6331 112.67C93.5452 112.766 93.4845 112.877 93.4509 113.001L92.9802 114.738H92.5432ZM94.5725 115.767C94.4985 115.767 94.434 115.761 94.3792 115.75C94.3241 115.739 94.2869 115.728 94.2676 115.717L94.4794 115.346C94.5785 115.372 94.6697 115.381 94.7532 115.374C94.8366 115.367 94.9183 115.332 94.9984 115.269C95.0794 115.207 95.1653 115.106 95.2562 114.967L95.3958 114.752L95.0916 111.992H95.5657L95.7581 114.18H95.7878L97.1657 111.992H97.6398L95.58 115.138C95.4873 115.28 95.3882 115.397 95.2828 115.49C95.177 115.584 95.0649 115.654 94.9465 115.699C94.8293 115.745 94.7046 115.767 94.5725 115.767ZM99.3964 115.703C99.0186 115.703 98.6982 115.653 98.4352 115.553C98.1719 115.454 97.9676 115.308 97.8224 115.115C97.6772 114.922 97.5919 114.685 97.5665 114.405C97.5412 114.125 97.5774 113.805 97.6752 113.444C97.7698 113.095 97.9056 112.782 98.0827 112.507C98.261 112.232 98.4743 111.998 98.7225 111.807C98.9724 111.614 99.2517 111.466 99.5607 111.365C99.8708 111.264 100.204 111.213 100.561 111.213C100.908 111.213 101.197 111.268 101.428 111.378C101.66 111.486 101.839 111.633 101.964 111.819C102.09 112.004 102.166 112.212 102.191 112.443C102.217 112.674 102.197 112.912 102.13 113.158C102.084 113.331 102.028 113.506 101.962 113.683C101.897 113.861 101.816 114.024 101.72 114.173C101.625 114.321 101.507 114.44 101.366 114.531C101.227 114.621 101.059 114.666 100.862 114.666C100.776 114.666 100.685 114.653 100.588 114.627C100.491 114.601 100.411 114.557 100.347 114.497C100.284 114.436 100.258 114.354 100.271 114.252H100.249C100.201 114.321 100.137 114.386 100.059 114.448C99.9813 114.51 99.8883 114.56 99.7795 114.597C99.672 114.634 99.5485 114.65 99.409 114.645C99.2502 114.639 99.1182 114.604 99.013 114.541C98.9083 114.477 98.8294 114.39 98.7763 114.28C98.7249 114.169 98.6979 114.041 98.6953 113.896C98.6943 113.749 98.7167 113.592 98.7625 113.422C98.8061 113.261 98.8707 113.114 98.9562 112.981C99.0417 112.847 99.1419 112.731 99.2567 112.631C99.3727 112.53 99.498 112.451 99.6327 112.391C99.7689 112.33 99.9081 112.293 100.05 112.278C100.177 112.266 100.288 112.272 100.383 112.295C100.478 112.316 100.553 112.349 100.606 112.393C100.66 112.436 100.689 112.483 100.692 112.536H100.714L100.768 112.336H101.161L100.723 113.951C100.696 114.052 100.701 114.14 100.738 114.216C100.776 114.292 100.85 114.33 100.961 114.33C101.087 114.33 101.194 114.289 101.284 114.205C101.374 114.122 101.455 113.993 101.527 113.819C101.6 113.645 101.674 113.422 101.747 113.151C101.79 112.991 101.81 112.834 101.807 112.679C101.804 112.523 101.776 112.377 101.721 112.241C101.668 112.105 101.586 111.985 101.476 111.882C101.366 111.778 101.226 111.697 101.055 111.639C100.886 111.579 100.684 111.549 100.448 111.549C100.158 111.549 99.886 111.593 99.6328 111.68C99.3812 111.765 99.1527 111.891 98.9473 112.057C98.7435 112.221 98.5677 112.421 98.4198 112.657C98.2735 112.892 98.1598 113.159 98.0788 113.458C97.9964 113.762 97.9647 114.032 97.9834 114.268C98.0035 114.504 98.073 114.703 98.1921 114.865C98.3124 115.027 98.4822 115.15 98.7016 115.233C98.9206 115.318 99.1882 115.36 99.5042 115.36C99.64 115.36 99.7773 115.347 99.9162 115.322C100.055 115.297 100.179 115.27 100.288 115.24C100.398 115.21 100.477 115.188 100.525 115.174L100.54 115.503C100.455 115.534 100.346 115.565 100.214 115.596C100.084 115.627 99.9459 115.652 99.8009 115.673C99.6572 115.693 99.5223 115.703 99.3964 115.703ZM99.5671 114.28C99.7325 114.28 99.8752 114.248 99.9951 114.184C100.115 114.119 100.216 114.022 100.298 113.892C100.38 113.763 100.448 113.599 100.502 113.401C100.556 113.201 100.572 113.045 100.551 112.933C100.529 112.821 100.474 112.742 100.385 112.697C100.296 112.651 100.178 112.629 100.029 112.629C99.8886 112.629 99.7586 112.664 99.6392 112.736C99.5214 112.806 99.42 112.9 99.3349 113.018C99.2514 113.135 99.191 113.263 99.1535 113.401C99.1122 113.553 99.0943 113.697 99.0998 113.832C99.1056 113.965 99.1447 114.074 99.2172 114.157C99.29 114.239 99.4066 114.28 99.5671 114.28ZM102.357 114.738L103.1 111.992H103.537L102.794 114.738H102.357ZM103.447 111.535C103.361 111.535 103.296 111.507 103.249 111.451C103.204 111.395 103.192 111.328 103.213 111.249C103.234 111.17 103.283 111.103 103.358 111.047C103.435 110.991 103.516 110.963 103.602 110.963C103.687 110.963 103.752 110.991 103.797 111.047C103.844 111.103 103.856 111.17 103.835 111.249C103.814 111.328 103.765 111.395 103.688 111.451C103.612 111.507 103.532 111.535 103.447 111.535ZM104.478 113.086L104.031 114.738H103.594L104.338 111.992H104.76L104.644 112.421H104.681C104.785 112.282 104.917 112.17 105.076 112.085C105.235 112 105.422 111.957 105.636 111.957C105.829 111.957 105.987 111.995 106.111 112.071C106.235 112.146 106.316 112.261 106.355 112.414C106.394 112.567 106.382 112.76 106.318 112.993L105.846 114.738H105.409L105.874 113.022C105.932 112.806 105.92 112.638 105.836 112.518C105.753 112.396 105.61 112.336 105.408 112.336C105.268 112.336 105.136 112.365 105.01 112.423C104.886 112.482 104.777 112.567 104.683 112.679C104.59 112.791 104.522 112.927 104.478 113.086ZM107.703 114.795C107.466 114.795 107.272 114.737 107.122 114.622C106.972 114.505 106.875 114.34 106.83 114.128C106.785 113.915 106.802 113.663 106.881 113.372C106.959 113.084 107.078 112.834 107.238 112.622C107.398 112.409 107.585 112.246 107.799 112.13C108.013 112.014 108.24 111.957 108.479 111.957C108.665 111.957 108.803 111.986 108.894 112.046C108.987 112.104 109.052 112.171 109.088 112.246C109.126 112.32 109.155 112.381 109.174 112.429H109.211L109.577 111.077H110.014L109.022 114.738H108.6L108.714 114.316H108.662C108.617 114.366 108.554 114.429 108.474 114.506C108.394 114.581 108.292 114.648 108.166 114.707C108.04 114.766 107.886 114.795 107.703 114.795ZM107.865 114.416C108.04 114.416 108.2 114.372 108.345 114.284C108.49 114.194 108.616 114.071 108.721 113.914C108.827 113.755 108.908 113.572 108.964 113.365C109.02 113.16 109.038 112.981 109.018 112.827C108.998 112.672 108.939 112.552 108.841 112.466C108.744 112.379 108.606 112.336 108.429 112.336C108.243 112.336 108.077 112.381 107.928 112.473C107.782 112.564 107.656 112.687 107.552 112.843C107.45 112.998 107.372 113.172 107.32 113.365C107.267 113.561 107.25 113.738 107.268 113.898C107.288 114.056 107.347 114.183 107.443 114.277C107.542 114.37 107.682 114.416 107.865 114.416ZM111.98 113.615L112.42 111.992H112.857L112.113 114.738H111.676L111.802 114.273H111.772C111.668 114.413 111.532 114.531 111.365 114.629C111.198 114.725 111.007 114.774 110.792 114.774C110.614 114.774 110.466 114.736 110.349 114.661C110.231 114.585 110.153 114.47 110.116 114.318C110.078 114.164 110.091 113.97 110.154 113.737L110.627 111.992H111.064L110.599 113.708C110.545 113.909 110.56 114.068 110.644 114.187C110.729 114.307 110.862 114.366 111.043 114.366C111.152 114.366 111.27 114.339 111.397 114.286C111.525 114.232 111.642 114.15 111.749 114.039C111.856 113.928 111.933 113.787 111.98 113.615ZM115.505 112.607L115.084 112.715C115.076 112.651 115.056 112.59 115.024 112.53C114.994 112.47 114.943 112.42 114.872 112.38C114.802 112.341 114.703 112.321 114.575 112.321C114.401 112.321 114.246 112.36 114.109 112.437C113.973 112.514 113.89 112.611 113.858 112.729C113.829 112.834 113.846 112.917 113.909 112.977C113.971 113.038 114.081 113.089 114.238 113.129L114.633 113.229C114.871 113.289 115.036 113.38 115.128 113.503C115.219 113.624 115.239 113.781 115.187 113.973C115.145 114.13 115.06 114.271 114.932 114.395C114.806 114.519 114.65 114.616 114.464 114.688C114.278 114.759 114.074 114.795 113.853 114.795C113.563 114.795 113.34 114.734 113.182 114.613C113.025 114.491 112.953 114.314 112.966 114.08L113.408 113.98C113.407 114.128 113.452 114.239 113.542 114.312C113.633 114.386 113.768 114.423 113.947 114.423C114.15 114.423 114.323 114.382 114.466 114.298C114.61 114.214 114.698 114.112 114.73 113.994C114.755 113.899 114.742 113.819 114.691 113.755C114.639 113.689 114.546 113.64 114.412 113.608L113.967 113.501C113.723 113.441 113.556 113.349 113.468 113.224C113.381 113.098 113.363 112.94 113.415 112.75C113.457 112.595 113.539 112.458 113.661 112.339C113.785 112.22 113.934 112.126 114.11 112.059C114.286 111.991 114.474 111.957 114.674 111.957C114.956 111.957 115.161 112.016 115.289 112.135C115.418 112.255 115.49 112.412 115.505 112.607ZM118.23 112.607L117.808 112.715C117.801 112.651 117.781 112.59 117.749 112.53C117.718 112.47 117.668 112.42 117.597 112.38C117.526 112.341 117.427 112.321 117.3 112.321C117.126 112.321 116.97 112.36 116.833 112.437C116.698 112.514 116.614 112.611 116.582 112.729C116.554 112.834 116.571 112.917 116.633 112.977C116.696 113.038 116.806 113.089 116.963 113.129L117.358 113.229C117.596 113.289 117.761 113.38 117.852 113.503C117.944 113.624 117.964 113.781 117.912 113.973C117.869 114.13 117.784 114.271 117.657 114.395C117.531 114.519 117.374 114.616 117.188 114.688C117.002 114.759 116.799 114.795 116.578 114.795C116.288 114.795 116.064 114.734 115.907 114.613C115.75 114.491 115.677 114.314 115.69 114.08L116.132 113.98C116.132 114.128 116.176 114.239 116.266 114.312C116.357 114.386 116.492 114.423 116.671 114.423C116.875 114.423 117.048 114.382 117.19 114.298C117.334 114.214 117.422 114.112 117.454 113.994C117.48 113.899 117.467 113.819 117.415 113.755C117.364 113.689 117.271 113.64 117.136 113.608L116.691 113.501C116.447 113.441 116.281 113.349 116.192 113.224C116.106 113.098 116.088 112.94 116.139 112.75C116.181 112.595 116.263 112.458 116.386 112.339C116.51 112.22 116.659 112.126 116.834 112.059C117.011 111.991 117.199 111.957 117.399 111.957C117.68 111.957 117.885 112.016 118.013 112.135C118.143 112.255 118.215 112.412 118.23 112.607ZM118.083 115.767L119.106 111.992H119.528L119.41 112.429H119.462C119.507 112.381 119.568 112.32 119.645 112.246C119.723 112.171 119.824 112.104 119.947 112.046C120.072 111.986 120.227 111.957 120.412 111.957C120.652 111.957 120.847 112.014 120.999 112.13C121.15 112.246 121.248 112.409 121.293 112.622C121.338 112.834 121.322 113.084 121.243 113.372C121.165 113.663 121.045 113.915 120.885 114.128C120.725 114.34 120.538 114.505 120.325 114.622C120.113 114.737 119.888 114.795 119.651 114.795C119.468 114.795 119.329 114.766 119.235 114.707C119.142 114.648 119.075 114.581 119.036 114.506C118.998 114.429 118.969 114.366 118.951 114.316H118.914L118.52 115.767H118.083ZM119.164 113.365C119.108 113.572 119.09 113.755 119.11 113.914C119.13 114.071 119.189 114.194 119.285 114.284C119.382 114.372 119.519 114.416 119.694 114.416C119.877 114.416 120.042 114.37 120.189 114.277C120.338 114.183 120.465 114.056 120.57 113.898C120.676 113.738 120.755 113.561 120.808 113.365C120.861 113.172 120.877 112.998 120.857 112.843C120.839 112.687 120.78 112.564 120.681 112.473C120.584 112.381 120.443 112.336 120.258 112.336C120.08 112.336 119.919 112.379 119.774 112.466C119.63 112.552 119.506 112.672 119.402 112.827C119.299 112.981 119.219 113.16 119.164 113.365ZM122.36 114.802C122.179 114.802 122.025 114.769 121.896 114.704C121.767 114.637 121.676 114.541 121.624 114.416C121.571 114.29 121.569 114.137 121.618 113.959C121.661 113.801 121.727 113.674 121.818 113.576C121.909 113.477 122.016 113.4 122.138 113.344C122.261 113.288 122.391 113.246 122.528 113.219C122.666 113.19 122.804 113.167 122.941 113.151C123.119 113.129 123.264 113.113 123.374 113.102C123.486 113.09 123.57 113.071 123.627 113.043C123.685 113.016 123.723 112.968 123.742 112.9L123.746 112.886C123.793 112.71 123.78 112.573 123.707 112.475C123.635 112.377 123.498 112.328 123.297 112.328C123.088 112.328 122.912 112.373 122.77 112.461C122.628 112.549 122.519 112.643 122.444 112.743L122.067 112.6C122.187 112.433 122.321 112.303 122.469 112.21C122.62 112.116 122.773 112.051 122.93 112.014C123.088 111.976 123.239 111.957 123.383 111.957C123.474 111.957 123.576 111.967 123.689 111.989C123.803 112.009 123.907 112.051 124.001 112.116C124.095 112.18 124.162 112.277 124.201 112.407C124.24 112.537 124.23 112.711 124.171 112.929L123.681 114.738H123.244L123.345 114.366H123.322C123.277 114.426 123.21 114.489 123.122 114.557C123.035 114.625 122.927 114.683 122.799 114.731C122.672 114.778 122.525 114.802 122.36 114.802ZM122.529 114.423C122.702 114.423 122.856 114.391 122.993 114.325C123.13 114.259 123.243 114.175 123.332 114.071C123.422 113.967 123.482 113.858 123.513 113.744L123.618 113.358C123.593 113.379 123.547 113.399 123.479 113.417C123.413 113.434 123.338 113.449 123.253 113.462C123.169 113.474 123.088 113.484 123.009 113.494C122.931 113.502 122.868 113.509 122.819 113.515C122.702 113.53 122.59 113.553 122.482 113.585C122.376 113.616 122.284 113.663 122.207 113.726C122.131 113.788 122.078 113.873 122.049 113.98C122.009 114.127 122.036 114.237 122.128 114.312C122.221 114.386 122.355 114.423 122.529 114.423ZM124.379 115.767C124.305 115.767 124.241 115.761 124.186 115.75C124.131 115.739 124.094 115.728 124.074 115.717L124.286 115.346C124.385 115.372 124.476 115.381 124.56 115.374C124.643 115.367 124.725 115.332 124.805 115.269C124.886 115.207 124.972 115.106 125.063 114.967L125.202 114.752L124.898 111.992H125.372L125.565 114.18H125.594L126.972 111.992H127.446L125.387 115.138C125.294 115.28 125.195 115.397 125.089 115.49C124.984 115.584 124.872 115.654 124.753 115.699C124.636 115.745 124.511 115.767 124.379 115.767ZM127.412 114.766C127.321 114.766 127.251 114.735 127.202 114.672C127.154 114.609 127.142 114.533 127.166 114.445C127.19 114.357 127.243 114.281 127.325 114.218C127.408 114.155 127.495 114.123 127.586 114.123C127.678 114.123 127.747 114.155 127.796 114.218C127.844 114.281 127.856 114.357 127.832 114.445C127.817 114.503 127.787 114.557 127.743 114.606C127.7 114.654 127.649 114.694 127.59 114.724C127.533 114.752 127.474 114.766 127.412 114.766ZM129.677 114.795C129.411 114.795 129.197 114.734 129.038 114.613C128.878 114.491 128.775 114.324 128.729 114.11C128.684 113.897 128.698 113.654 128.772 113.379C128.848 113.101 128.967 112.855 129.131 112.641C129.297 112.427 129.492 112.259 129.715 112.139C129.941 112.017 130.182 111.957 130.439 111.957C130.639 111.957 130.809 111.992 130.951 112.064C131.092 112.135 131.196 112.236 131.264 112.364C131.331 112.493 131.354 112.643 131.332 112.815H130.895C130.896 112.69 130.852 112.579 130.763 112.482C130.676 112.384 130.536 112.336 130.344 112.336C130.173 112.336 130.012 112.379 129.861 112.464C129.711 112.549 129.579 112.669 129.465 112.824C129.353 112.977 129.269 113.158 129.213 113.365C129.155 113.577 129.14 113.762 129.166 113.919C129.194 114.077 129.26 114.199 129.363 114.286C129.468 114.373 129.607 114.416 129.78 114.416C129.894 114.416 130.002 114.397 130.105 114.359C130.208 114.321 130.301 114.266 130.384 114.194C130.468 114.123 130.537 114.037 130.591 113.937H131.028C130.96 114.099 130.859 114.245 130.726 114.375C130.595 114.504 130.44 114.606 130.26 114.682C130.081 114.758 129.887 114.795 129.677 114.795ZM132.59 114.795C132.333 114.795 132.124 114.736 131.962 114.618C131.802 114.5 131.696 114.335 131.645 114.123C131.595 113.911 131.608 113.663 131.685 113.379C131.762 113.093 131.884 112.844 132.049 112.631C132.215 112.417 132.411 112.252 132.635 112.134C132.861 112.016 133.102 111.957 133.359 111.957C133.616 111.957 133.825 112.016 133.985 112.134C134.147 112.252 134.253 112.417 134.303 112.631C134.353 112.844 134.34 113.093 134.263 113.379C134.186 113.663 134.064 113.911 133.898 114.123C133.733 114.335 133.538 114.5 133.312 114.618C133.088 114.736 132.847 114.795 132.59 114.795ZM132.693 114.416C132.888 114.416 133.062 114.368 133.214 114.271C133.366 114.175 133.493 114.048 133.596 113.891C133.699 113.733 133.776 113.563 133.826 113.379C133.875 113.196 133.891 113.025 133.874 112.866C133.856 112.708 133.798 112.58 133.698 112.482C133.599 112.384 133.452 112.336 133.257 112.336C133.062 112.336 132.888 112.384 132.735 112.482C132.583 112.58 132.455 112.708 132.352 112.866C132.248 113.025 132.172 113.196 132.122 113.379C132.072 113.563 132.056 113.733 132.074 113.891C132.092 114.048 132.151 114.175 132.251 114.271C132.35 114.368 132.498 114.416 132.693 114.416ZM134.562 114.738L135.306 111.992H135.728L135.612 112.421H135.649C135.748 112.275 135.874 112.161 136.028 112.08C136.183 111.998 136.352 111.957 136.537 111.957C136.725 111.957 136.87 111.998 136.973 112.08C137.077 112.161 137.144 112.275 137.175 112.421H137.204C137.315 112.28 137.455 112.167 137.623 112.084C137.792 111.999 137.978 111.957 138.182 111.957C138.436 111.957 138.623 112.034 138.744 112.187C138.864 112.34 138.88 112.578 138.793 112.9L138.295 114.738H137.858L138.356 112.9C138.411 112.698 138.393 112.553 138.301 112.466C138.21 112.379 138.087 112.336 137.931 112.336C137.731 112.336 137.56 112.394 137.419 112.511C137.278 112.626 137.183 112.773 137.135 112.95L136.651 114.738H136.206L136.716 112.858C136.758 112.701 136.74 112.576 136.66 112.48C136.582 112.384 136.46 112.336 136.294 112.336C136.181 112.336 136.066 112.365 135.952 112.423C135.838 112.482 135.738 112.563 135.649 112.666C135.562 112.769 135.5 112.887 135.464 113.022L134.999 114.738H134.562Z" fill="#68686F"/>
<path d="M155.326 127.255L5.21484 163.386L34.641 172.325H157.933L166.5 152.956L155.326 127.255Z" fill="url(#paint0_linear_746_7385)"/>
<path d="M155.326 127.255L5.21484 163.386L34.641 172.325H157.933L166.5 152.956L155.326 127.255Z" fill="url(#paint1_linear_746_7385)"/>
<rect width="147.503" height="42.4631" rx="8.93959" transform="matrix(1 0 -0.261515 0.965199 11.1045 123.53)" fill="#19BF6A"/>
<path d="M18.8485 137.95L19.982 133.766H22.6698L22.5226 134.31H20.4887L20.1434 135.584H21.9846L21.838 136.126H19.9967L19.5025 137.95H18.8485ZM22.249 137.95L23.0991 134.812H23.7108L23.5757 135.311H23.6096C23.7146 135.142 23.855 135.009 24.0307 134.912C24.2083 134.814 24.3923 134.765 24.5827 134.765C24.6222 134.765 24.6684 134.767 24.7213 134.769C24.7756 134.772 24.8177 134.775 24.8476 134.78L24.6893 135.364C24.6658 135.357 24.6227 135.349 24.56 135.341C24.4977 135.332 24.4341 135.327 24.3692 135.327C24.2196 135.327 24.078 135.358 23.9443 135.419C23.8123 135.479 23.6979 135.563 23.601 135.67C23.5045 135.776 23.4378 135.898 23.4009 136.034L22.8818 137.95H22.249ZM25.772 138.013C25.4673 138.013 25.2196 137.946 25.0289 137.811C24.8383 137.676 24.713 137.488 24.6531 137.245C24.5933 137.003 24.6072 136.719 24.695 136.395C24.7832 136.07 24.9231 135.785 25.1147 135.541C25.3064 135.298 25.534 135.108 25.7977 134.974C26.0614 134.839 26.3456 134.771 26.6504 134.771C26.9551 134.771 27.2028 134.839 27.3934 134.974C27.5841 135.108 27.7092 135.298 27.7687 135.541C27.8282 135.785 27.8139 136.07 27.7257 136.395C27.6379 136.719 27.4983 137.003 27.3071 137.245C27.1158 137.488 26.8884 137.676 26.6247 137.811C26.361 137.946 26.0768 138.013 25.772 138.013ZM25.913 137.5C26.1106 137.5 26.2879 137.45 26.445 137.349C26.6021 137.249 26.7344 137.114 26.8419 136.947C26.9507 136.779 27.0325 136.595 27.0871 136.393C27.1413 136.193 27.1594 136.009 27.1413 135.842C27.125 135.673 27.0657 135.537 26.9636 135.435C26.8615 135.333 26.7116 135.282 26.5141 135.282C26.3152 135.282 26.1363 135.333 25.9774 135.435C25.8199 135.537 25.6865 135.673 25.5773 135.842C25.4698 136.009 25.389 136.193 25.3347 136.393C25.2801 136.595 25.2612 136.779 25.2779 136.947C25.296 137.114 25.3563 137.249 25.4588 137.349C25.5627 137.45 25.7141 137.5 25.913 137.5ZM28.0108 137.95L28.861 134.812H29.4684L29.33 135.323H29.3702C29.4848 135.15 29.6321 135.015 29.8121 134.918C29.9924 134.82 30.1898 134.771 30.4043 134.771C30.6216 134.771 30.7903 134.82 30.9105 134.918C31.0321 135.016 31.1049 135.151 31.1289 135.323H31.1628C31.2858 135.155 31.4454 135.022 31.6416 134.923C31.8382 134.822 32.0537 134.771 32.2879 134.771C32.5828 134.771 32.7991 134.861 32.9371 135.039C33.0764 135.217 33.0973 135.486 32.9999 135.846L32.4298 137.95H31.797L32.3516 135.903C32.4092 135.691 32.3909 135.537 32.2968 135.441C32.2027 135.346 32.0724 135.298 31.9059 135.298C31.6999 135.298 31.5232 135.36 31.3757 135.482C31.2286 135.603 31.1292 135.759 31.0775 135.95L30.5357 137.95H29.905L30.4701 135.864C30.5162 135.694 30.4983 135.557 30.4163 135.454C30.3343 135.35 30.2051 135.298 30.0287 135.298C29.9088 135.298 29.7897 135.329 29.6715 135.39C29.5551 135.45 29.4513 135.534 29.3601 135.642C29.2702 135.749 29.2061 135.874 29.1678 136.015L28.6436 137.95H28.0108Z" fill="white"/>
<path d="M41.1489 137.95L42.2824 133.766H43.0676L42.5878 135.537H44.5962L45.0761 133.766H45.8634L44.7299 137.95H43.9426L44.4241 136.173H42.4156L41.9341 137.95H41.1489ZM46.9725 138.011C46.6466 138.011 46.3828 137.946 46.1812 137.815C45.9814 137.683 45.8506 137.496 45.7889 137.255C45.7276 137.013 45.7414 136.728 45.8304 136.399C45.9178 136.077 46.058 135.793 46.2511 135.55C46.4459 135.305 46.6767 135.114 46.9436 134.978C47.2109 134.84 47.4997 134.771 47.8101 134.771C48.0104 134.771 48.191 134.803 48.3518 134.865C48.5144 134.927 48.6466 135.022 48.7484 135.151C48.8516 135.281 48.9156 135.445 48.9404 135.646C48.9655 135.844 48.9408 136.081 48.8663 136.357L48.8049 136.583H46.1403L46.2754 136.085H48.2055C48.2425 135.943 48.2449 135.817 48.2127 135.707C48.1808 135.595 48.1179 135.507 48.0238 135.443C47.931 135.379 47.8113 135.347 47.6646 135.347C47.508 135.347 47.3604 135.384 47.222 135.458C47.0839 135.53 46.9657 135.625 46.8673 135.744C46.7706 135.861 46.7026 135.99 46.6632 136.13L46.5453 136.565C46.4959 136.747 46.488 136.904 46.5217 137.035C46.5558 137.164 46.6255 137.263 46.7309 137.333C46.8366 137.401 46.9727 137.435 47.1392 137.435C47.2506 137.435 47.3556 137.42 47.454 137.39C47.5528 137.359 47.6434 137.313 47.726 137.253C47.8085 137.193 47.8787 137.119 47.9366 137.031L48.6309 137.108C48.5363 137.291 48.407 137.45 48.2432 137.586C48.0811 137.721 47.8918 137.826 47.6754 137.901C47.4593 137.974 47.225 138.011 46.9725 138.011ZM50.347 136.111L49.8489 137.95H49.0827L49.9329 134.812H50.6651L50.5207 135.345H50.5588C50.6811 135.17 50.8382 135.03 51.0299 134.927C51.223 134.823 51.4409 134.771 51.6836 134.771C51.9079 134.771 52.0908 134.818 52.2322 134.91C52.375 135.003 52.4685 135.137 52.5126 135.313C52.5581 135.488 52.5462 135.701 52.4769 135.952L51.9356 137.95H51.1695L51.6798 136.066C51.7366 135.857 51.7246 135.693 51.6438 135.574C51.5645 135.456 51.426 135.396 51.2285 135.396C51.0945 135.396 50.9675 135.425 50.8476 135.482C50.7295 135.538 50.6264 135.619 50.5384 135.725C50.4517 135.832 50.3879 135.96 50.347 136.111ZM52.7144 137.95L53.5646 134.812H54.3074L54.1657 135.335H54.1996C54.3079 135.154 54.4473 135.014 54.6178 134.916C54.7901 134.817 54.9693 134.767 55.1556 134.767C55.1979 134.767 55.2446 134.769 55.2957 134.773C55.3486 134.776 55.3917 134.781 55.4252 134.788L55.2408 135.468C55.2113 135.457 55.1624 135.448 55.0941 135.439C55.0275 135.43 54.9618 135.425 54.8969 135.425C54.7572 135.425 54.6237 135.454 54.4964 135.513C54.3709 135.57 54.2625 135.65 54.1713 135.752C54.0802 135.854 54.0165 135.972 53.9803 136.105L53.4806 137.95H52.7144ZM55.3337 139.126C55.2293 139.126 55.1349 139.118 55.0504 139.102C54.967 139.087 54.9019 139.069 54.8553 139.049L55.1891 138.473C55.2921 138.504 55.3875 138.519 55.4754 138.518C55.5632 138.516 55.6473 138.49 55.7276 138.438C55.809 138.388 55.889 138.303 55.9677 138.185L56.0792 138.015L55.7682 134.812H56.5809L56.6881 137.182H56.722L58.1153 134.812H58.9301L56.6755 138.33C56.5698 138.496 56.4508 138.638 56.3185 138.757C56.1859 138.877 56.0384 138.968 55.8761 139.03C55.7149 139.094 55.5341 139.126 55.3337 139.126ZM60.1223 137.95L61.2558 133.766H62.8812C63.2142 133.766 63.4784 133.822 63.6739 133.934C63.8708 134.046 63.9998 134.202 64.0609 134.404C64.1237 134.604 64.119 134.837 64.0467 135.104C63.974 135.373 63.8516 135.605 63.6796 135.803C63.5094 135.999 63.2954 136.151 63.0377 136.258C62.7803 136.365 62.4852 136.418 62.1522 136.418H60.9945L61.165 135.789H62.2168C62.4116 135.789 62.578 135.763 62.7162 135.711C62.8547 135.658 62.9673 135.581 63.0539 135.48C63.1422 135.378 63.2065 135.253 63.2467 135.104C63.2869 134.956 63.2909 134.829 63.2586 134.724C63.2267 134.618 63.1561 134.538 63.0467 134.483C62.9377 134.428 62.7851 134.4 62.589 134.4H61.8694L60.9075 137.95H60.1223ZM62.875 136.054L63.4344 137.95H62.5583L62.0179 136.054H62.875ZM63.9646 137.95L64.8147 134.812H65.5808L64.7307 137.95H63.9646ZM65.3205 134.367C65.1992 134.367 65.1053 134.328 65.0389 134.25C64.9728 134.171 64.9547 134.077 64.9846 133.967C65.0148 133.855 65.0842 133.76 65.1927 133.683C65.3016 133.604 65.4167 133.564 65.5381 133.564C65.6608 133.564 65.7545 133.604 65.8192 133.683C65.8856 133.76 65.9037 133.855 65.8735 133.967C65.8436 134.077 65.7742 134.171 65.6653 134.25C65.5582 134.328 65.4433 134.367 65.3205 134.367ZM66.9199 138.011C66.5954 138.011 66.3354 137.942 66.1398 137.805C65.9457 137.667 65.8187 137.477 65.7588 137.235C65.7007 136.991 65.7146 136.711 65.8006 136.393C65.8869 136.075 66.0266 135.793 66.2197 135.55C66.4131 135.305 66.6439 135.114 66.9122 134.978C67.1823 134.84 67.476 134.771 67.7935 134.771C68.0573 134.771 68.2781 134.818 68.4558 134.912C68.6353 135.005 68.7627 135.136 68.8379 135.307C68.9135 135.475 68.9291 135.673 68.8848 135.899H68.1525C68.1638 135.748 68.1274 135.622 68.0433 135.521C67.9609 135.419 67.8273 135.368 67.6424 135.368C67.4858 135.368 67.3372 135.409 67.1965 135.49C67.0563 135.571 66.9325 135.687 66.8252 135.838C66.7194 135.989 66.6378 136.17 66.5806 136.381C66.5227 136.595 66.5053 136.779 66.5286 136.933C66.5521 137.085 66.6112 137.203 66.7058 137.286C66.8022 137.368 66.9301 137.409 67.0895 137.409C67.2024 137.409 67.3088 137.388 67.4088 137.347C67.5105 137.305 67.6024 137.244 67.6845 137.165C67.7666 137.086 67.8342 136.99 67.8874 136.877H68.6197C68.5412 137.099 68.4201 137.296 68.2565 137.468C68.0933 137.638 67.8977 137.771 67.6698 137.868C67.4422 137.963 67.1922 138.011 66.9199 138.011ZM70.2224 136.111L69.7243 137.95H68.9582L70.0917 133.766H70.8409L70.4131 135.345H70.4512C70.5753 135.168 70.7309 135.029 70.918 134.927C71.1069 134.823 71.3255 134.771 71.5739 134.771C71.7996 134.771 71.9841 134.817 72.1273 134.908C72.2704 134.999 72.3641 135.133 72.4082 135.309C72.4537 135.484 72.4422 135.699 72.3735 135.952L71.8322 137.95H71.0661L71.5764 136.066C71.6336 135.855 71.6216 135.691 71.5405 135.574C71.4611 135.456 71.3206 135.396 71.1188 135.396C70.9833 135.396 70.8543 135.425 70.7315 135.482C70.6106 135.538 70.5054 135.619 70.4159 135.725C70.3279 135.832 70.2634 135.96 70.2224 136.111ZM73.5315 138.013C73.3255 138.013 73.1495 137.978 73.0036 137.907C72.8595 137.835 72.7585 137.729 72.7006 137.588C72.644 137.448 72.6436 137.275 72.6993 137.069C72.7473 136.892 72.8208 136.746 72.9199 136.63C73.019 136.514 73.1365 136.422 73.2724 136.352C73.4084 136.283 73.5545 136.231 73.7108 136.195C73.8689 136.158 74.0292 136.132 74.1917 136.115C74.3873 136.096 74.5464 136.079 74.669 136.064C74.7919 136.048 74.8846 136.024 74.9471 135.991C75.0114 135.957 75.0531 135.904 75.0723 135.834L75.0756 135.821C75.1173 135.667 75.1023 135.548 75.0306 135.464C74.959 135.379 74.8343 135.337 74.6565 135.337C74.4688 135.337 74.3093 135.377 74.1778 135.456C74.0478 135.535 73.9492 135.628 73.8819 135.736L73.1931 135.637C73.3012 135.447 73.4375 135.287 73.602 135.159C73.7669 135.03 73.9518 134.933 74.1568 134.869C74.3622 134.804 74.5784 134.771 74.8056 134.771C74.9622 134.771 75.1133 134.789 75.2589 134.824C75.4045 134.86 75.5304 134.918 75.6367 135C75.7433 135.081 75.8166 135.19 75.8566 135.329C75.898 135.468 75.8904 135.642 75.834 135.85L75.265 137.95H74.5285L74.6453 137.519H74.6199C74.5497 137.606 74.462 137.688 74.3567 137.764C74.2531 137.839 74.1316 137.899 73.9921 137.946C73.8543 137.991 73.7008 138.013 73.5315 138.013ZM73.8776 137.47C74.0314 137.47 74.1727 137.441 74.3014 137.382C74.4305 137.322 74.5387 137.243 74.6259 137.145C74.7146 137.047 74.7746 136.94 74.806 136.824L74.9061 136.455C74.877 136.474 74.8313 136.491 74.769 136.508C74.7081 136.524 74.6408 136.538 74.5669 136.551C74.493 136.563 74.4202 136.574 74.3485 136.583C74.2768 136.593 74.2146 136.601 74.162 136.608C74.0436 136.623 73.9347 136.647 73.8352 136.681C73.7357 136.715 73.6515 136.763 73.5827 136.824C73.5142 136.884 73.4671 136.962 73.4413 137.057C73.4044 137.193 73.428 137.296 73.5122 137.366C73.5964 137.435 73.7182 137.47 73.8776 137.47ZM76.0354 137.95L76.8855 134.812H77.6283L77.4867 135.335H77.5205C77.6288 135.154 77.7683 135.014 77.9387 134.916C78.111 134.817 78.2902 134.767 78.4765 134.767C78.5188 134.767 78.5655 134.769 78.6166 134.773C78.6695 134.776 78.7127 134.781 78.7461 134.788L78.5618 135.468C78.5323 135.457 78.4834 135.448 78.415 135.439C78.3485 135.43 78.2828 135.425 78.2178 135.425C78.0782 135.425 77.9447 135.454 77.8173 135.513C77.6918 135.57 77.5834 135.65 77.4923 135.752C77.4011 135.854 77.3374 135.972 77.3013 136.105L76.8015 137.95H76.0354ZM79.4558 138.005C79.2005 138.005 78.9891 137.942 78.8216 137.815C78.6542 137.688 78.5445 137.505 78.4927 137.263C78.4409 137.022 78.4617 136.73 78.5551 136.385C78.6495 136.037 78.7885 135.742 78.9719 135.503C79.1572 135.262 79.368 135.08 79.6044 134.957C79.8411 134.833 80.0844 134.771 80.3341 134.771C80.5246 134.771 80.6727 134.803 80.7785 134.865C80.8846 134.927 80.9619 135.001 81.0102 135.088C81.0589 135.174 81.0927 135.255 81.1115 135.331H81.1433L81.5672 133.766H82.3355L81.202 137.95H80.4486L80.5825 137.456H80.5359C80.4758 137.532 80.3967 137.613 80.2986 137.699C80.201 137.783 80.0827 137.855 79.9437 137.915C79.8047 137.975 79.6421 138.005 79.4558 138.005ZM79.834 137.398C79.9962 137.398 80.1459 137.356 80.2831 137.272C80.4206 137.186 80.5397 137.067 80.6403 136.914C80.7409 136.762 80.8186 136.584 80.8736 136.381C80.9286 136.178 80.9467 136.002 80.9281 135.852C80.9108 135.702 80.8563 135.586 80.7645 135.503C80.6742 135.42 80.5464 135.378 80.3814 135.378C80.2106 135.378 80.0565 135.421 79.919 135.507C79.7814 135.593 79.6633 135.711 79.5645 135.862C79.4657 136.013 79.3899 136.186 79.3371 136.381C79.284 136.577 79.2655 136.752 79.2817 136.906C79.2996 137.059 79.3537 137.179 79.444 137.268C79.5361 137.355 79.6661 137.398 79.834 137.398Z" fill="white"/>
<path d="M39.5115 150.304H40.2903L39.4934 153.246C39.4189 153.515 39.2967 153.748 39.1269 153.942C38.9573 154.136 38.7533 154.285 38.5146 154.39C38.2778 154.493 38.0204 154.545 37.7424 154.545C37.4885 154.545 37.2717 154.501 37.0921 154.414C36.9144 154.326 36.7896 154.195 36.718 154.022C36.6463 153.849 36.6454 153.634 36.7151 153.377H37.4961C37.4668 153.49 37.4659 153.587 37.4931 153.669C37.5217 153.75 37.5746 153.813 37.6517 153.857C37.7288 153.9 37.8252 153.922 37.9409 153.922C38.0664 153.922 38.1798 153.897 38.2809 153.846C38.3824 153.795 38.4694 153.718 38.5418 153.618C38.6157 153.517 38.6733 153.393 38.7145 153.246L39.5115 150.304ZM41.3762 154.549C41.0587 154.549 40.8019 154.482 40.6056 154.347C40.4093 154.212 40.2798 154.023 40.2171 153.781C40.1558 153.539 40.1691 153.255 40.2569 152.931C40.3447 152.607 40.4851 152.323 40.6782 152.079C40.8726 151.836 41.1045 151.646 41.3738 151.512C41.6431 151.377 41.9365 151.309 42.254 151.309C42.5715 151.309 42.8283 151.377 43.0246 151.512C43.2209 151.646 43.3495 151.836 43.4104 152.079C43.4728 152.323 43.46 152.607 43.3722 152.931C43.2844 153.255 43.1434 153.539 42.9494 153.781C42.7567 154.023 42.5257 154.212 42.2564 154.347C41.9871 154.482 41.6937 154.549 41.3762 154.549ZM41.5409 153.957C41.7131 153.957 41.8693 153.911 42.0098 153.82C42.1506 153.727 42.2702 153.603 42.3687 153.448C42.4686 153.293 42.5444 153.12 42.596 152.929C42.6481 152.737 42.6662 152.564 42.6504 152.408C42.6364 152.252 42.5841 152.127 42.4935 152.034C42.4029 151.942 42.2715 151.896 42.0994 151.896C41.923 151.896 41.7637 151.942 41.6215 152.034C41.4808 152.127 41.3602 152.252 41.2599 152.408C41.1614 152.564 41.0862 152.737 41.0342 152.929C40.9825 153.12 40.9639 153.293 40.9782 153.448C40.994 153.603 41.0472 153.727 41.1378 153.82C41.2302 153.911 41.3646 153.957 41.5409 153.957ZM44.865 152.649L44.3669 154.488H43.6007L44.7342 150.304H45.4834L45.0556 151.883H45.0937C45.2178 151.706 45.3735 151.567 45.5606 151.465C45.7495 151.361 45.9681 151.309 46.2164 151.309C46.4421 151.309 46.6266 151.355 46.7698 151.446C46.913 151.537 47.0066 151.671 47.0507 151.847C47.0962 152.022 47.0847 152.237 47.0161 152.49L46.4748 154.488H45.7086L46.2189 152.604C46.2761 152.393 46.2641 152.229 46.183 152.112C46.1036 151.994 45.9631 151.934 45.7613 151.934C45.6259 151.934 45.4968 151.963 45.3741 152.02C45.2531 152.076 45.1479 152.157 45.0585 152.263C44.9704 152.369 44.9059 152.498 44.865 152.649ZM48.52 152.649L48.0218 154.488H47.2557L48.1058 151.35H48.8381L48.6936 151.883H48.7317C48.8541 151.708 49.0112 151.568 49.2029 151.465C49.396 151.361 49.6139 151.309 49.8566 151.309C50.0809 151.309 50.2638 151.356 50.4052 151.448C50.548 151.541 50.6414 151.675 50.6856 151.851C50.7311 152.026 50.7192 152.239 50.6499 152.49L50.1086 154.488H49.3425L49.8528 152.604C49.9096 152.395 49.8976 152.231 49.8168 152.112C49.7375 151.994 49.599 151.934 49.4015 151.934C49.2675 151.934 49.1405 151.963 49.0206 152.02C48.9025 152.076 48.7994 152.157 48.7113 152.263C48.6247 152.369 48.5609 152.498 48.52 152.649ZM53.8683 154.488H52.3996L53.5331 150.304H55.0315C55.4618 150.304 55.8088 150.388 56.0724 150.556C56.3378 150.722 56.5115 150.961 56.5934 151.273C56.6754 151.584 56.6576 151.958 56.5399 152.392C56.4218 152.828 56.2364 153.202 55.9836 153.515C55.7323 153.829 55.4266 154.069 55.0666 154.237C54.708 154.404 54.3086 154.488 53.8683 154.488ZM53.3624 153.832H54.0079C54.3098 153.832 54.5761 153.779 54.8066 153.673C55.0375 153.565 55.2326 153.405 55.3917 153.193C55.5512 152.979 55.6743 152.712 55.7611 152.392C55.8478 152.072 55.8689 151.806 55.8245 151.595C55.7805 151.383 55.6732 151.224 55.5027 151.119C55.3339 151.013 55.1028 150.96 54.8094 150.96H54.1406L53.3624 153.832ZM57.6025 154.551C57.3965 154.551 57.2205 154.516 57.0746 154.445C56.9305 154.373 56.8295 154.266 56.7716 154.126C56.715 153.986 56.7146 153.813 56.7704 153.607C56.8183 153.43 56.8918 153.284 56.9909 153.168C57.09 153.052 57.2075 152.96 57.3435 152.89C57.4794 152.821 57.6255 152.768 57.7818 152.733C57.9399 152.696 58.1002 152.67 58.2627 152.653C58.4583 152.634 58.6174 152.617 58.74 152.602C58.8629 152.586 58.9556 152.561 59.0181 152.529C59.0824 152.495 59.1241 152.442 59.1433 152.372L59.1466 152.359C59.1883 152.205 59.1733 152.086 59.1017 152.002C59.03 151.917 58.9053 151.875 58.7275 151.875C58.5399 151.875 58.3803 151.915 58.2489 151.994C58.1188 152.073 58.0202 152.166 57.9529 152.273L57.2642 152.175C57.3722 151.985 57.5085 151.825 57.673 151.697C57.8379 151.568 58.0228 151.471 58.2278 151.407C58.4332 151.342 58.6494 151.309 58.8766 151.309C59.0332 151.309 59.1843 151.327 59.3299 151.362C59.4755 151.398 59.6015 151.456 59.7077 151.538C59.8143 151.618 59.8876 151.728 59.9276 151.867C59.969 152.006 59.9614 152.18 59.905 152.388L59.336 154.488H58.5995L58.7163 154.057H58.6909C58.6207 154.144 58.533 154.226 58.4277 154.302C58.3241 154.377 58.2026 154.437 58.0631 154.484C57.9253 154.529 57.7718 154.551 57.6025 154.551ZM57.9486 154.008C58.1024 154.008 58.2437 153.978 58.3724 153.92C58.5015 153.86 58.6097 153.781 58.6969 153.683C58.7856 153.585 58.8456 153.478 58.877 153.362L58.9771 152.993C58.948 153.012 58.9023 153.029 58.84 153.046C58.7791 153.062 58.7118 153.076 58.6379 153.089C58.564 153.101 58.4912 153.112 58.4195 153.121C58.3478 153.131 58.2856 153.139 58.233 153.146C58.1146 153.161 58.0057 153.185 57.9062 153.219C57.8067 153.253 57.7225 153.301 57.6537 153.362C57.5853 153.422 57.5381 153.5 57.5123 153.595C57.4754 153.731 57.499 153.834 57.5832 153.904C57.6674 153.973 57.7892 154.008 57.9486 154.008ZM61.3706 152.649L60.8725 154.488H60.1064L60.9565 151.35H61.6888L61.5443 151.883H61.5824C61.7048 151.708 61.8618 151.568 62.0535 151.465C62.2467 151.361 62.4646 151.309 62.7072 151.309C62.9316 151.309 63.1144 151.356 63.2558 151.448C63.3986 151.541 63.4921 151.675 63.5362 151.851C63.5817 152.026 63.5699 152.239 63.5005 152.49L62.9593 154.488H62.1931L62.7034 152.604C62.7602 152.395 62.7483 152.231 62.6675 152.112C62.5881 151.994 62.4497 151.934 62.2522 151.934C62.1181 151.934 61.9912 151.963 61.8712 152.02C61.7531 152.076 61.65 152.157 61.562 152.263C61.4754 152.369 61.4116 152.498 61.3706 152.649ZM63.7381 154.488L64.5882 151.35H65.3543L64.5042 154.488H63.7381ZM65.094 150.905C64.9727 150.905 64.8788 150.866 64.8124 150.788C64.7463 150.709 64.7282 150.615 64.7581 150.504C64.7883 150.393 64.8577 150.298 64.9662 150.221C65.0751 150.142 65.1902 150.102 65.3116 150.102C65.4343 150.102 65.528 150.142 65.5927 150.221C65.6591 150.298 65.6772 150.393 65.647 150.504C65.6171 150.615 65.5477 150.709 65.4388 150.788C65.3317 150.866 65.2168 150.905 65.094 150.905ZM66.7146 154.549C66.3887 154.549 66.1249 154.484 65.9233 154.353C65.7234 154.221 65.5927 154.034 65.531 153.793C65.4697 153.551 65.4835 153.266 65.5724 152.937C65.6599 152.615 65.8001 152.331 65.9932 152.088C66.188 151.842 66.4188 151.652 66.6857 151.516C66.9529 151.378 67.2418 151.309 67.5522 151.309C67.7525 151.309 67.9331 151.341 68.0939 151.403C68.2565 151.465 68.3887 151.56 68.4905 151.689C68.5937 151.819 68.6577 151.983 68.6825 152.184C68.7076 152.382 68.6829 152.619 68.6084 152.894L68.5469 153.121H65.8824L66.0175 152.623H67.9476C67.9846 152.481 67.9869 152.355 67.9547 152.245C67.9229 152.133 67.86 152.045 67.7658 151.981C67.6731 151.917 67.5534 151.885 67.4067 151.885C67.2501 151.885 67.1025 151.922 66.9641 151.996C66.826 152.068 66.7078 152.163 66.6094 152.282C66.5127 152.399 66.4447 152.527 66.4053 152.668L66.2874 153.103C66.2379 153.285 66.2301 153.442 66.2638 153.573C66.2979 153.702 66.3676 153.801 66.4729 153.871C66.5786 153.939 66.7147 153.973 66.8812 153.973C66.9927 153.973 67.0976 153.958 67.1961 153.928C67.2948 153.897 67.3855 153.851 67.4681 153.791C67.5506 153.731 67.6208 153.657 67.6786 153.569L68.3729 153.646C68.2784 153.829 68.1491 153.988 67.9852 154.124C67.8231 154.259 67.6339 154.364 67.4175 154.439C67.2014 154.512 66.9671 154.549 66.7146 154.549ZM70.7244 150.304L69.5909 154.488H68.8248L69.9583 150.304H70.7244Z" fill="white"/>
<path d="M15.1401 150.848L15.2873 150.304H18.6418L18.4945 150.848H17.1422L16.1559 154.488H15.504L16.4903 150.848H15.1401ZM19.0794 154.551C18.7747 154.551 18.527 154.484 18.3364 154.349C18.1457 154.214 18.0205 154.025 17.9606 153.783C17.9007 153.541 17.9146 153.257 18.0025 152.933C18.0906 152.608 18.2305 152.323 18.4222 152.079C18.6138 151.836 18.8414 151.646 19.1051 151.512C19.3688 151.377 19.653 151.309 19.9578 151.309C20.2625 151.309 20.5102 151.377 20.7009 151.512C20.8915 151.646 21.0166 151.836 21.0761 152.079C21.1356 152.323 21.1213 152.608 21.0331 152.933C20.9453 153.257 20.8058 153.541 20.6145 153.783C20.4233 154.025 20.1958 154.214 19.9321 154.349C19.6684 154.484 19.3842 154.551 19.0794 154.551ZM19.2205 154.038C19.418 154.038 19.5953 153.988 19.7524 153.887C19.9095 153.786 20.0418 153.652 20.1493 153.485C20.2582 153.317 20.3399 153.133 20.3945 152.931C20.4488 152.731 20.4668 152.547 20.4487 152.38C20.4324 152.211 20.3732 152.075 20.271 151.973C20.1689 151.871 20.0191 151.82 19.8215 151.82C19.6226 151.82 19.4437 151.871 19.2848 151.973C19.1273 152.075 18.994 152.211 18.8847 152.38C18.7772 152.547 18.6964 152.731 18.6422 152.931C18.5875 153.133 18.5686 153.317 18.5853 153.485C18.6034 153.652 18.6637 153.786 18.7662 153.887C18.8701 153.988 19.0215 154.038 19.2205 154.038Z" fill="white"/>
<g filter="url(#filter0_bd_746_7385)">
<rect width="47.9614" height="47.9614" rx="23.9807" transform="matrix(1 0 -0.269424 0.963022 109.564 17)" fill="url(#paint2_linear_746_7385)" fill-opacity="0.5"/>
<rect x="0.196851" y="0.259483" width="47.4225" height="47.4225" rx="23.7113" transform="matrix(1 0 -0.269424 0.963022 109.634 17.0096)" stroke="url(#paint3_linear_746_7385)" stroke-width="0.538893"/>
</g>
<g filter="url(#filter1_b_746_7385)">
<ellipse cx="13.0006" cy="13.0053" rx="13.0006" ry="13.0053" transform="matrix(1 0 -0.269424 0.963022 118.014 27.1004)" fill="url(#paint4_linear_746_7385)"/>
<path d="M140.44 39.6248C138.516 46.504 131.167 52.0807 124.026 52.0807C116.885 52.0807 112.657 46.504 114.581 39.6248C116.506 32.7456 123.855 27.1689 130.996 27.1689C138.136 27.1689 142.365 32.7456 140.44 39.6248Z" stroke="url(#paint5_linear_746_7385)" stroke-opacity="0.5" stroke-width="0.142266"/>
</g>
<g filter="url(#filter2_d_746_7385)">
<path d="M130.733 26.3414C122.968 26.3414 114.947 32.4283 112.854 39.9085C110.762 47.3887 115.376 53.4786 123.141 53.4786C130.905 53.4786 138.926 47.3918 141.019 39.9116C143.112 32.4314 138.497 26.3414 130.733 26.3414ZM133.729 37.3222L124.642 44.627C124.231 44.9589 123.748 45.128 123.309 45.128C122.932 45.128 122.593 45.0028 122.355 44.7523L119.438 41.6212C118.913 41.0576 119.111 40.0713 119.88 39.4138C120.649 38.7562 121.694 38.6779 122.218 39.2447L124.223 41.3957L131.939 35.193C132.727 34.5606 133.764 34.523 134.259 35.1116C134.755 35.7003 134.513 36.6897 133.729 37.3222Z" fill="url(#paint6_linear_746_7385)"/>
</g>
<defs>
<filter id="filter0_bd_746_7385" x="86.0754" y="0.833227" width="103.573" height="100.077" filterUnits="userSpaceOnUse" color-interpolation-filters="sRGB">
<feFlood flood-opacity="0" result="BackgroundImageFix"/>
<feGaussianBlur in="BackgroundImageFix" stdDeviation="3.23335"/>
<feComposite in2="SourceAlpha" operator="in" result="effect1_backgroundBlur_746_7385"/>
<feColorMatrix in="SourceAlpha" type="matrix" values="0 0 0 0 0 0 0 0 0 0 0 0 0 0 0 0 0 0 127 0" result="hardAlpha"/>
<feOffset dx="10.7778" dy="10.7778"/>
<feGaussianBlur stdDeviation="13.4723"/>
<feColorMatrix type="matrix" values="0 0 0 0 0.0970855 0 0 0 0 0.238419 0 0 0 0 0.512772 0 0 0 0.05 0"/>
<feBlend mode="normal" in2="effect1_backgroundBlur_746_7385" result="effect2_dropShadow_746_7385"/>
<feBlend mode="normal" in="SourceGraphic" in2="effect2_dropShadow_746_7385" result="shape"/>
</filter>
<filter id="filter1_b_746_7385" x="103.373" y="16.4304" width="48.2755" height="46.3887" filterUnits="userSpaceOnUse" color-interpolation-filters="sRGB">
<feFlood flood-opacity="0" result="BackgroundImageFix"/>
<feGaussianBlur in="BackgroundImageFix" stdDeviation="5.33499"/>
<feComposite in2="SourceAlpha" operator="in" result="effect1_backgroundBlur_746_7385"/>
<feBlend mode="normal" in="SourceGraphic" in2="effect1_backgroundBlur_746_7385" result="shape"/>
</filter>
<filter id="filter2_d_746_7385" x="106.961" y="14.4858" width="46.4179" height="44.3818" filterUnits="userSpaceOnUse" color-interpolation-filters="sRGB">
<feFlood flood-opacity="0" result="BackgroundImageFix"/>
<feColorMatrix in="SourceAlpha" type="matrix" values="0 0 0 0 0 0 0 0 0 0 0 0 0 0 0 0 0 0 127 0" result="hardAlpha"/>
<feOffset dx="3.23335" dy="-3.23335"/>
<feGaussianBlur stdDeviation="4.31114"/>
<feColorMatrix type="matrix" values="0 0 0 0 0.698039 0 0 0 0 0.968627 0 0 0 0 0.388235 0 0 0 0.2 0"/>
<feBlend mode="normal" in2="BackgroundImageFix" result="effect1_dropShadow_746_7385"/>
<feBlend mode="normal" in="SourceGraphic" in2="effect1_dropShadow_746_7385" result="shape"/>
</filter>
<linearGradient id="paint0_linear_746_7385" x1="23.4665" y1="62.8154" x2="43.2081" y2="172.698" gradientUnits="userSpaceOnUse">
<stop offset="0.0173337" stop-color="#19BF6A"/>
<stop offset="1" stop-color="white"/>
</linearGradient>
<linearGradient id="paint1_linear_746_7385" x1="99.0806" y1="56.4832" x2="118.077" y2="172.698" gradientUnits="userSpaceOnUse">
<stop stop-color="#19BF6A"/>
<stop offset="1" stop-color="white" stop-opacity="0"/>
</linearGradient>
<linearGradient id="paint2_linear_746_7385" x1="0" y1="0" x2="10.9546" y2="54.0055" gradientUnits="userSpaceOnUse">
<stop stop-color="#EAFFFE"/>
<stop offset="1" stop-color="#C9D9F1"/>
</linearGradient>
<linearGradient id="paint3_linear_746_7385" x1="1.27897" y1="0.561125" x2="11.7578" y2="54.3537" gradientUnits="userSpaceOnUse">
<stop stop-color="white"/>
<stop offset="1" stop-color="white" stop-opacity="0"/>
</linearGradient>
<linearGradient id="paint4_linear_746_7385" x1="24.1577" y1="4.697" x2="-8.24402" y2="0.218344" gradientUnits="userSpaceOnUse">
<stop stop-color="white"/>
<stop offset="1" stop-color="white" stop-opacity="0.61"/>
</linearGradient>
<linearGradient id="paint5_linear_746_7385" x1="118.464" y1="35.5031" x2="138.879" y2="41.3316" gradientUnits="userSpaceOnUse">
<stop stop-color="white"/>
<stop offset="1" stop-color="white" stop-opacity="0"/>
</linearGradient>
<linearGradient id="paint6_linear_746_7385" x1="144.816" y1="26.3414" x2="119.703" y2="49.799" gradientUnits="userSpaceOnUse">
<stop stop-color="#B2F763"/>
<stop offset="1" stop-color="#26AB3F"/>
</linearGradient>
</defs>
</svg>
