<svg width="239" height="155" viewBox="0 0 239 155" fill="none" xmlns="http://www.w3.org/2000/svg">
<g id="Frame 427319487">
<g id="Frame 427319422">
<rect width="168.957" height="160.952" rx="8.81517" transform="matrix(1 0 -0.269424 0.963022 69.5815 0)" fill="white"/>
<path id="Payment" d="M78.0444 17.8772L79.555 12.4779H81.5534C81.9896 12.4779 82.3296 12.5543 82.5734 12.7073C82.8171 12.8602 82.9731 13.0693 83.0412 13.3347C83.1098 13.5983 83.0978 13.8954 83.0054 14.2258C82.9125 14.558 82.7568 14.8568 82.5383 15.1222C82.3222 15.3858 82.0484 15.595 81.7167 15.7496C81.3874 15.9025 81.0056 15.979 80.5712 15.979H79.1969L79.3902 15.2883H80.6878C80.9634 15.2883 81.1997 15.2426 81.3969 15.1512C81.5945 15.058 81.7558 14.9315 81.8809 14.7715C82.0059 14.6116 82.097 14.4297 82.154 14.2258C82.211 14.0219 82.2215 13.8409 82.1855 13.6827C82.1494 13.5245 82.0573 13.4006 81.909 13.311C81.7625 13.2213 81.5487 13.1765 81.2676 13.1765H80.2055L78.8904 17.8772H78.0444ZM84.0708 17.9668C83.8044 17.9668 83.5767 17.9194 83.3879 17.8244C83.1996 17.7278 83.0681 17.588 82.9933 17.4053C82.9203 17.2225 82.921 16.9984 82.9952 16.733C83.0591 16.5045 83.1574 16.3164 83.2899 16.1688C83.4225 16.0212 83.5784 15.9043 83.7576 15.8182C83.9368 15.732 84.1284 15.667 84.3323 15.6231C84.5362 15.5791 84.7409 15.5457 84.9462 15.5229C85.2059 15.4948 85.4167 15.4719 85.5786 15.4543C85.741 15.435 85.8636 15.4043 85.9466 15.3621C86.0296 15.3199 86.0844 15.2513 86.1109 15.1564L86.1161 15.138C86.1805 14.9077 86.1629 14.7293 86.0632 14.6028C85.9654 14.4763 85.7842 14.413 85.5195 14.413C85.2439 14.413 85.0103 14.4719 84.8186 14.5896C84.6291 14.7056 84.4844 14.8348 84.3844 14.9772L83.6623 14.8084C83.8224 14.5624 84.0112 14.3638 84.2287 14.2126C84.4485 14.0597 84.683 13.949 84.9321 13.8804C85.1817 13.8101 85.4334 13.775 85.6871 13.775C85.855 13.775 86.0275 13.7943 86.2047 13.833C86.3842 13.8699 86.542 13.9384 86.6782 14.0386C86.8163 14.1388 86.9122 14.282 86.9659 14.4683C87.0201 14.6529 87.0059 14.8928 86.9233 15.1881L86.171 17.8772H85.3716L85.5265 17.3235H85.4937C85.4122 17.4255 85.3048 17.5257 85.1714 17.6241C85.038 17.7225 84.8792 17.8042 84.6949 17.8693C84.5106 17.9343 84.3026 17.9668 84.0708 17.9668ZM84.4258 17.3341C84.6521 17.3341 84.8576 17.291 85.0423 17.2049C85.2288 17.1188 85.3835 17.0063 85.5063 16.8674C85.6314 16.7268 85.7163 16.5766 85.7611 16.4166L85.9071 15.8946C85.8701 15.9227 85.8061 15.9491 85.7153 15.9737C85.6267 15.9966 85.5271 16.0168 85.4163 16.0343C85.306 16.0502 85.1988 16.0651 85.0944 16.0792C84.9906 16.0915 84.9037 16.102 84.8337 16.1108C84.6695 16.1301 84.5154 16.1627 84.3712 16.2083C84.2288 16.254 84.1063 16.32 84.0038 16.4061C83.9035 16.4904 83.8337 16.6029 83.7944 16.7435C83.7398 16.9386 83.7733 17.0863 83.8949 17.1864C84.0171 17.2849 84.194 17.3341 84.4258 17.3341ZM87.2033 19.3957C87.081 19.3957 86.9723 19.386 86.8774 19.3667C86.7819 19.3491 86.7125 19.3298 86.6691 19.3087L87.0469 18.6628C87.1858 18.7015 87.3143 18.7182 87.4326 18.7129C87.5509 18.7076 87.6658 18.6654 87.7774 18.5864C87.8907 18.5073 88.0072 18.3781 88.1267 18.1988L88.3032 17.9299L87.9124 13.8277H88.7884L88.9741 16.9703H89.0179L90.962 13.8277H91.8408L88.8238 18.4176C88.6845 18.6285 88.5324 18.8069 88.3675 18.9528C88.202 19.1004 88.0232 19.2112 87.831 19.285C87.6388 19.3588 87.4296 19.3957 87.2033 19.3957ZM91.4772 17.8772L92.6101 13.8277H93.3958L93.2114 14.4868H93.2634C93.4134 14.2636 93.6054 14.0896 93.8392 13.9648C94.0736 13.8383 94.3294 13.775 94.6069 13.775C94.8879 13.775 95.1056 13.8383 95.26 13.9648C95.4163 14.0913 95.509 14.2653 95.5383 14.4868H95.5821C95.743 14.2706 95.9509 14.0984 96.2058 13.9701C96.4612 13.84 96.7404 13.775 97.0433 13.775C97.4248 13.775 97.7037 13.8901 97.8802 14.1203C98.0585 14.3506 98.0828 14.6977 97.953 15.1617L97.1933 17.8772H96.3747L97.1138 15.2355C97.1905 14.9613 97.1685 14.7627 97.0478 14.6397C96.9271 14.5167 96.759 14.4552 96.5437 14.4552C96.2772 14.4552 96.0479 14.5343 95.8559 14.6924C95.6643 14.8489 95.534 15.0501 95.4652 15.2962L94.7431 17.8772H93.9273L94.6804 15.1854C94.7418 14.9657 94.7201 14.7891 94.6151 14.6555C94.5101 14.522 94.3436 14.4552 94.1154 14.4552C93.9603 14.4552 93.806 14.4947 93.6524 14.5738C93.5012 14.6511 93.366 14.7592 93.2469 14.8981C93.1296 15.0369 93.0453 15.1977 92.9942 15.3805L92.2957 17.8772H91.4772ZM100.08 17.9589C99.6655 17.9589 99.3325 17.8737 99.0809 17.7032C98.8316 17.5309 98.6693 17.2893 98.5939 16.9782C98.5208 16.6653 98.543 16.2989 98.6606 15.8788C98.7766 15.464 98.9592 15.0984 99.2083 14.7821C99.4592 14.4657 99.7546 14.2188 100.094 14.0413C100.436 13.8637 100.802 13.775 101.193 13.775C101.43 13.775 101.649 13.8128 101.851 13.8883C102.053 13.9639 102.219 14.0826 102.351 14.2443C102.483 14.406 102.564 14.616 102.594 14.8743C102.624 15.131 102.588 15.4429 102.485 15.8103L102.407 16.0897H99.0642L99.2294 15.4992H101.77C101.828 15.2918 101.836 15.1081 101.793 14.9482C101.75 14.7865 101.663 14.659 101.53 14.5659C101.399 14.4727 101.228 14.4262 101.016 14.4262C100.786 14.4262 100.57 14.4806 100.368 14.5896C100.168 14.6968 99.9977 14.8374 99.8559 15.0114C99.7165 15.1837 99.6185 15.3709 99.5619 15.573L99.4328 16.0343C99.3571 16.305 99.342 16.5353 99.3874 16.7251C99.4347 16.9149 99.5337 17.0599 99.6846 17.1601C99.8359 17.2585 100.031 17.3077 100.27 17.3077C100.425 17.3077 100.573 17.2866 100.712 17.2444C100.852 17.2005 100.981 17.1355 101.098 17.0493C101.215 16.9632 101.316 16.8569 101.401 16.7303L102.138 16.8648C102.014 17.0845 101.849 17.277 101.642 17.4422C101.438 17.6056 101.202 17.733 100.936 17.8244C100.672 17.9141 100.386 17.9589 100.08 17.9589ZM104.306 15.4728L103.633 17.8772H102.815L103.948 13.8277H104.734L104.549 14.4868H104.601C104.758 14.2724 104.958 14.1001 105.2 13.9701C105.445 13.84 105.725 13.775 106.04 13.775C106.327 13.775 106.562 13.833 106.745 13.949C106.928 14.0632 107.047 14.2337 107.102 14.4604C107.158 14.6872 107.139 14.9675 107.045 15.3014L106.325 17.8772H105.506L106.2 15.3963C106.282 15.1028 106.267 14.8735 106.154 14.7083C106.042 14.5413 105.848 14.4578 105.57 14.4578C105.38 14.4578 105.2 14.4973 105.031 14.5764C104.862 14.6555 104.714 14.7715 104.585 14.9244C104.459 15.0756 104.366 15.2584 104.306 15.4728ZM110.518 13.8277L110.341 14.4604H108.044L108.221 13.8277H110.518ZM109.109 12.8575H109.927L108.855 16.6882C108.813 16.8411 108.804 16.9562 108.83 17.0335C108.856 17.1091 108.903 17.161 108.97 17.1891C109.039 17.2154 109.119 17.2286 109.208 17.2286C109.274 17.2286 109.332 17.2242 109.384 17.2154C109.436 17.2067 109.476 17.1996 109.505 17.1943L109.471 17.8455C109.418 17.8631 109.346 17.8807 109.253 17.8983C109.16 17.9176 109.048 17.9281 108.916 17.9299C108.7 17.9334 108.509 17.8965 108.345 17.8192C108.18 17.7418 108.063 17.6223 107.993 17.4606C107.924 17.2989 107.923 17.0959 107.991 16.8516L109.109 12.8575Z" fill="#010103"/>
<g id="Frame 427319437">
<rect width="43.4182" height="13.7091" rx="6.85454" transform="matrix(1 0 -0.269424 0.963022 179.656 12.992)" fill="#CBF8E1"/>
<path id="Processing" d="M185.39 21.5191L186.397 17.9196H187.729C188.02 17.9196 188.246 17.9706 188.409 18.0725C188.571 18.1745 188.675 18.3139 188.721 18.4908C188.767 18.6666 188.759 18.8646 188.697 19.0849C188.635 19.3064 188.531 19.5055 188.386 19.6825C188.242 19.8582 188.059 19.9977 187.838 20.1008C187.618 20.2027 187.364 20.2537 187.074 20.2537H186.158L186.287 19.7932H187.152C187.336 19.7932 187.493 19.7627 187.625 19.7018C187.756 19.6397 187.864 19.5553 187.947 19.4487C188.031 19.3421 188.091 19.2208 188.129 19.0849C188.167 18.949 188.174 18.8283 188.15 18.7228C188.126 18.6174 188.065 18.5348 187.966 18.475C187.868 18.4153 187.726 18.3854 187.538 18.3854H186.83L185.954 21.5191H185.39ZM188.633 21.5191L189.389 18.8195H189.916L189.796 19.2484H189.825C189.917 19.1031 190.039 18.9888 190.191 18.9056C190.345 18.8213 190.504 18.7791 190.668 18.7791C190.702 18.7791 190.742 18.7803 190.788 18.7826C190.835 18.7849 190.871 18.7879 190.897 18.7914L190.756 19.2941C190.736 19.2882 190.699 19.2818 190.645 19.2747C190.591 19.2665 190.536 19.2624 190.48 19.2624C190.351 19.2624 190.229 19.2888 190.113 19.3415C189.999 19.3931 189.9 19.4651 189.815 19.5577C189.731 19.6491 189.673 19.7534 189.64 19.8705L189.179 21.5191H188.633ZM191.671 21.5736C191.408 21.5736 191.195 21.5156 191.032 21.3996C190.868 21.2836 190.761 21.1214 190.711 20.9128C190.662 20.7042 190.676 20.4605 190.754 20.1816C190.832 19.9016 190.955 19.6567 191.122 19.447C191.289 19.2372 191.486 19.0744 191.715 18.9584C191.943 18.8424 192.188 18.7844 192.451 18.7844C192.714 18.7844 192.927 18.8424 193.091 18.9584C193.254 19.0744 193.361 19.2372 193.41 19.447C193.46 19.6567 193.445 19.9016 193.367 20.1816C193.289 20.4605 193.167 20.7042 193 20.9128C192.833 21.1214 192.636 21.2836 192.408 21.3996C192.179 21.5156 191.934 21.5736 191.671 21.5736ZM191.796 21.1325C191.967 21.1325 192.12 21.0891 192.256 21.0024C192.392 20.9157 192.507 20.8003 192.601 20.6562C192.696 20.5121 192.768 20.3533 192.816 20.1799C192.865 20.0076 192.882 19.8494 192.867 19.7053C192.854 19.56 192.804 19.4434 192.717 19.3556C192.629 19.2677 192.501 19.2238 192.33 19.2238C192.159 19.2238 192.004 19.2677 191.866 19.3556C191.73 19.4434 191.614 19.56 191.518 19.7053C191.424 19.8494 191.353 20.0076 191.305 20.1799C191.257 20.3533 191.239 20.5121 191.252 20.6562C191.267 20.8003 191.318 20.9157 191.405 21.0024C191.494 21.0891 191.625 21.1325 191.796 21.1325ZM194.768 21.5736C194.496 21.5736 194.279 21.5145 194.116 21.3961C193.955 21.2766 193.852 21.112 193.806 20.9022C193.76 20.6925 193.775 20.4523 193.85 20.1816C193.927 19.9074 194.048 19.6655 194.214 19.4558C194.38 19.2448 194.577 19.0802 194.805 18.9619C195.033 18.8435 195.278 18.7844 195.542 18.7844C195.755 18.7844 195.935 18.8224 196.08 18.8986C196.226 18.9736 196.331 19.079 196.395 19.215C196.46 19.3509 196.477 19.5097 196.446 19.6913H195.915C195.921 19.5647 195.885 19.4558 195.805 19.3644C195.728 19.273 195.602 19.2273 195.428 19.2273C195.276 19.2273 195.132 19.2659 194.996 19.3433C194.861 19.4194 194.742 19.5284 194.639 19.6702C194.537 19.8108 194.459 19.9772 194.405 20.1693C194.35 20.3662 194.333 20.5361 194.355 20.679C194.377 20.822 194.434 20.9327 194.525 21.0112C194.618 21.0897 194.741 21.129 194.896 21.129C194.999 21.129 195.098 21.1108 195.192 21.0745C195.288 21.037 195.374 20.9837 195.45 20.9145C195.528 20.8454 195.592 20.7622 195.642 20.665H196.173C196.105 20.8396 196.003 20.9954 195.866 21.1325C195.729 21.2696 195.567 21.3774 195.379 21.4559C195.193 21.5344 194.989 21.5736 194.768 21.5736ZM197.711 21.5736C197.435 21.5736 197.213 21.5168 197.045 21.4031C196.879 21.2883 196.771 21.1272 196.72 20.9198C196.672 20.7112 196.686 20.4669 196.765 20.1869C196.842 19.9104 196.964 19.6667 197.13 19.4558C197.297 19.2448 197.494 19.0802 197.721 18.9619C197.949 18.8435 198.193 18.7844 198.453 18.7844C198.611 18.7844 198.757 18.8095 198.892 18.8599C199.026 18.9103 199.137 18.9894 199.225 19.0972C199.313 19.205 199.367 19.345 199.387 19.5173C199.407 19.6883 199.383 19.8963 199.314 20.1412L199.262 20.3275H197.034L197.144 19.9338H198.838C198.876 19.7956 198.881 19.6731 198.853 19.5665C198.825 19.4587 198.766 19.3737 198.678 19.3116C198.591 19.2495 198.476 19.2185 198.335 19.2185C198.182 19.2185 198.038 19.2548 197.903 19.3274C197.77 19.3989 197.656 19.4927 197.562 19.6087C197.469 19.7235 197.403 19.8483 197.366 19.983L197.28 20.2906C197.229 20.471 197.219 20.6245 197.249 20.7511C197.281 20.8776 197.347 20.9743 197.448 21.0411C197.548 21.1067 197.679 21.1395 197.838 21.1395C197.941 21.1395 198.04 21.1255 198.133 21.0973C198.226 21.068 198.312 21.0247 198.39 20.9673C198.468 20.9099 198.535 20.839 198.592 20.7546L199.083 20.8442C199.001 20.9907 198.891 21.119 198.753 21.2291C198.616 21.3381 198.459 21.4231 198.282 21.484C198.106 21.5438 197.915 21.5736 197.711 21.5736ZM202.206 19.4786L201.688 19.563C201.684 19.502 201.667 19.444 201.638 19.389C201.609 19.3339 201.562 19.2888 201.497 19.2536C201.431 19.2185 201.342 19.2009 201.229 19.2009C201.074 19.2009 200.936 19.2343 200.814 19.3011C200.692 19.3667 200.617 19.4517 200.587 19.5559C200.562 19.6462 200.576 19.7188 200.63 19.7739C200.684 19.8289 200.784 19.8741 200.928 19.9092L201.346 20.0076C201.588 20.065 201.756 20.1535 201.849 20.273C201.942 20.3925 201.962 20.5478 201.908 20.7388C201.863 20.9005 201.774 21.0446 201.641 21.1711C201.51 21.2965 201.348 21.3949 201.155 21.4664C200.964 21.5379 200.755 21.5736 200.528 21.5736C200.215 21.5736 199.976 21.5092 199.814 21.3803C199.652 21.2502 199.582 21.0657 199.604 20.8267L200.153 20.7493C200.149 20.8817 200.188 20.9819 200.272 21.0499C200.355 21.1167 200.479 21.1501 200.643 21.1501C200.822 21.1501 200.975 21.1143 201.102 21.0428C201.23 20.9702 201.308 20.8817 201.337 20.7775C201.361 20.6931 201.348 20.6222 201.298 20.5648C201.25 20.5074 201.163 20.464 201.037 20.4347L200.59 20.3345C200.345 20.2771 200.177 20.1857 200.087 20.0604C199.998 19.935 199.98 19.7762 200.034 19.5841C200.078 19.4247 200.164 19.2853 200.29 19.1658C200.415 19.0462 200.569 18.9531 200.751 18.8863C200.933 18.8183 201.129 18.7844 201.34 18.7844C201.643 18.7844 201.864 18.8476 202.002 18.9742C202.141 19.0995 202.209 19.2677 202.206 19.4786ZM204.961 19.4786L204.443 19.563C204.44 19.502 204.423 19.444 204.393 19.389C204.365 19.3339 204.318 19.2888 204.252 19.2536C204.187 19.2185 204.097 19.2009 203.984 19.2009C203.83 19.2009 203.691 19.2343 203.569 19.3011C203.447 19.3667 203.372 19.4517 203.343 19.5559C203.318 19.6462 203.332 19.7188 203.386 19.7739C203.44 19.8289 203.539 19.8741 203.684 19.9092L204.102 20.0076C204.343 20.065 204.511 20.1535 204.604 20.273C204.697 20.3925 204.717 20.5478 204.664 20.7388C204.618 20.9005 204.529 21.0446 204.397 21.1711C204.265 21.2965 204.103 21.3949 203.911 21.4664C203.719 21.5379 203.51 21.5736 203.284 21.5736C202.97 21.5736 202.732 21.5092 202.57 21.3803C202.408 21.2502 202.338 21.0657 202.359 20.8267L202.909 20.7493C202.904 20.8817 202.944 20.9819 203.027 21.0499C203.111 21.1167 203.234 21.1501 203.399 21.1501C203.578 21.1501 203.73 21.1143 203.858 21.0428C203.985 20.9702 204.063 20.8817 204.092 20.7775C204.116 20.6931 204.103 20.6222 204.053 20.5648C204.005 20.5074 203.918 20.464 203.792 20.4347L203.346 20.3345C203.1 20.2771 202.932 20.1857 202.842 20.0604C202.753 19.935 202.735 19.7762 202.789 19.5841C202.834 19.4247 202.919 19.2853 203.045 19.1658C203.171 19.0462 203.325 18.9531 203.506 18.8863C203.688 18.8183 203.885 18.7844 204.095 18.7844C204.398 18.7844 204.619 18.8476 204.758 18.9742C204.896 19.0995 204.964 19.2677 204.961 19.4786ZM205.045 21.5191L205.8 18.8195H206.346L205.591 21.5191H205.045ZM206.193 18.403C206.098 18.403 206.025 18.3725 205.974 18.3116C205.924 18.2495 205.911 18.1756 205.935 18.0901C205.959 18.0034 206.014 17.9296 206.098 17.8687C206.183 17.8066 206.273 17.7755 206.368 17.7755C206.463 17.7755 206.535 17.8066 206.585 17.8687C206.636 17.9296 206.649 18.0034 206.625 18.0901C206.601 18.1756 206.546 18.2495 206.461 18.3116C206.377 18.3725 206.288 18.403 206.193 18.403ZM207.319 19.9162L206.871 21.5191H206.325L207.08 18.8195H207.604L207.481 19.2589H207.516C207.62 19.116 207.753 19.0011 207.915 18.9144C208.078 18.8277 208.265 18.7844 208.475 18.7844C208.666 18.7844 208.823 18.823 208.945 18.9004C209.067 18.9765 209.147 19.0902 209.183 19.2413C209.22 19.3925 209.207 19.5794 209.145 19.802L208.665 21.5191H208.119L208.582 19.8653C208.637 19.6696 208.626 19.5167 208.551 19.4065C208.477 19.2952 208.347 19.2396 208.162 19.2396C208.035 19.2396 207.915 19.2659 207.802 19.3187C207.69 19.3714 207.591 19.4487 207.505 19.5507C207.421 19.6514 207.359 19.7733 207.319 19.9162ZM210.273 22.5878C210.05 22.5878 209.867 22.5596 209.722 22.5034C209.578 22.4472 209.469 22.3727 209.394 22.2802C209.318 22.1876 209.271 22.0863 209.252 21.9761L209.774 21.7898C209.792 21.8414 209.82 21.8959 209.859 21.9533C209.899 22.0119 209.96 22.0617 210.044 22.1027C210.128 22.1437 210.246 22.1642 210.397 22.1642C210.604 22.1642 210.788 22.1156 210.951 22.0183C211.113 21.9222 211.223 21.7687 211.282 21.5578L211.431 21.027H211.396C211.347 21.0844 211.282 21.1483 211.2 21.2186C211.119 21.2889 211.018 21.3498 210.897 21.4014C210.775 21.4529 210.629 21.4787 210.457 21.4787C210.236 21.4787 210.05 21.4289 209.901 21.3293C209.752 21.2286 209.654 21.0803 209.605 20.8847C209.558 20.6878 209.575 20.4459 209.655 20.1588C209.735 19.8717 209.855 19.6257 210.013 19.4206C210.172 19.2155 210.356 19.0585 210.564 18.9496C210.773 18.8394 210.99 18.7844 211.215 18.7844C211.389 18.7844 211.521 18.8125 211.613 18.8687C211.704 18.9238 211.77 18.9882 211.809 19.0621C211.849 19.1359 211.878 19.2009 211.895 19.2571H211.935L212.057 18.8195H212.592L211.82 21.5789C211.755 21.8109 211.646 22.0013 211.492 22.1501C211.339 22.2989 211.156 22.4091 210.945 22.4805C210.736 22.552 210.511 22.5878 210.273 22.5878ZM210.7 21.0428C210.857 21.0428 210.999 21.0077 211.127 20.9374C211.257 20.8659 211.368 20.764 211.461 20.6316C211.555 20.498 211.629 20.3381 211.681 20.1518C211.732 19.9701 211.748 19.8102 211.731 19.6719C211.714 19.5337 211.662 19.4259 211.575 19.3485C211.489 19.27 211.366 19.2308 211.207 19.2308C211.042 19.2308 210.894 19.2718 210.762 19.3538C210.63 19.4347 210.516 19.5448 210.421 19.6842C210.327 19.8237 210.256 19.9795 210.208 20.1518C210.159 20.3287 210.143 20.4839 210.162 20.6175C210.18 20.7511 210.234 20.8554 210.322 20.9304C210.412 21.0053 210.538 21.0428 210.7 21.0428Z" fill="#128B4D"/>
</g>
<path id="Rs. 2999" d="M74.069 32.5209L76.083 25.3219H78.8863C79.4606 25.3219 79.9156 25.418 80.2512 25.6101C80.5892 25.8023 80.8094 26.0718 80.9119 26.4186C81.0175 26.7631 81.0061 27.165 80.8776 27.6243C80.7484 28.086 80.5341 28.4867 80.2346 28.8265C79.9383 29.1639 79.5671 29.4252 79.1211 29.6104C78.6757 29.7932 78.1659 29.8845 77.5916 29.8845H75.595L75.8979 28.8019H77.712C78.0478 28.8019 78.3352 28.7574 78.5743 28.6683C78.814 28.5769 79.0092 28.4445 79.1599 28.2711C79.3137 28.0953 79.4264 27.8797 79.4978 27.6243C79.5693 27.3689 79.578 27.1509 79.5238 26.9705C79.4703 26.7877 79.3496 26.6494 79.1617 26.5557C78.9744 26.4596 78.7117 26.4116 78.3734 26.4116H77.1324L75.4232 32.5209H74.069ZM78.8434 29.2589L79.7814 32.5209H78.2703L77.3651 29.2589H78.8434ZM86.2383 28.5488L84.9984 28.6753C84.9971 28.5582 84.9683 28.448 84.912 28.3449C84.8581 28.2418 84.7694 28.1586 84.646 28.0953C84.5225 28.0321 84.3586 28.0004 84.1542 28.0004C83.8792 28.0004 83.632 28.0578 83.4125 28.1727C83.1954 28.2875 83.0625 28.4363 83.0138 28.6191C82.9675 28.7761 82.9914 28.9038 83.0855 29.0022C83.1821 29.1007 83.3639 29.1815 83.6309 29.2448L84.5321 29.4416C85.0318 29.5518 85.3772 29.7264 85.5682 29.9654C85.7617 30.2044 85.8056 30.5173 85.6999 30.9039C85.6024 31.2437 85.415 31.5437 85.1379 31.8038C84.8638 32.0616 84.5263 32.2631 84.1255 32.4084C83.7247 32.5537 83.2907 32.6264 82.8235 32.6264C82.1373 32.6264 81.6236 32.4881 81.2824 32.2116C80.9419 31.9327 80.8009 31.5449 80.8596 31.0481L82.1816 30.9286C82.1718 31.1723 82.2444 31.3562 82.3995 31.4804C82.5545 31.6046 82.7842 31.6667 83.0883 31.6667C83.4022 31.6667 83.6715 31.6046 83.896 31.4804C84.123 31.3562 84.2621 31.2027 84.3132 31.0199C84.3565 30.8653 84.3302 30.7376 84.2343 30.6368C84.1408 30.536 83.9726 30.4587 83.7297 30.4048L82.8275 30.2115C82.3199 30.1037 81.9728 29.922 81.7863 29.6666C81.6005 29.4088 81.5639 29.0831 81.6765 28.6894C81.7671 28.3566 81.9415 28.0684 82.1995 27.8247C82.4605 27.5786 82.7801 27.3888 83.1582 27.2552C83.5393 27.1193 83.9537 27.0513 84.4015 27.0513C85.0585 27.0513 85.5379 27.1861 85.8397 27.4556C86.1439 27.7251 86.2768 28.0895 86.2383 28.5488ZM87.1294 32.5983C86.908 32.5983 86.7391 32.5233 86.6229 32.3733C86.5067 32.2233 86.48 32.0405 86.5427 31.8249C86.5993 31.614 86.7277 31.4336 86.9278 31.2836C87.1279 31.1336 87.3387 31.0586 87.5601 31.0586C87.7743 31.0586 87.9395 31.1336 88.0557 31.2836C88.1743 31.4336 88.2054 31.614 88.1488 31.8249C88.1064 31.9679 88.031 32.0979 87.9228 32.2151C87.817 32.3323 87.6935 32.426 87.5521 32.4963C87.4139 32.5643 87.273 32.5983 87.1294 32.5983ZM91.6225 32.5209L91.886 31.5789L95.1667 29.1288C95.4825 28.8874 95.7493 28.673 95.9672 28.4855C96.1851 28.298 96.36 28.1164 96.4919 27.9407C96.6239 27.7649 96.7177 27.5774 96.7734 27.3782C96.837 27.1509 96.8379 26.9564 96.776 26.7947C96.7149 26.6307 96.6031 26.5041 96.4406 26.4151C96.2781 26.326 96.0777 26.2815 95.8392 26.2815C95.5934 26.2815 95.3643 26.3307 95.1518 26.4292C94.94 26.5252 94.7581 26.6623 94.606 26.8404C94.4564 27.0185 94.3472 27.2306 94.2784 27.4767H92.9899C93.1177 27.0197 93.3371 26.6225 93.6481 26.285C93.9591 25.9476 94.3303 25.6863 94.7617 25.5011C95.1956 25.316 95.6595 25.2235 96.1535 25.2235C96.6547 25.2235 97.0699 25.3137 97.3991 25.4941C97.7282 25.6746 97.9535 25.9218 98.0749 26.2358C98.1988 26.5498 98.2043 26.9084 98.0915 27.3115C98.0161 27.581 97.8885 27.8458 97.7087 28.1059C97.5288 28.366 97.2596 28.6542 96.901 28.9706C96.5448 29.287 96.0616 29.6701 95.4515 30.1201L93.81 31.382L93.7962 31.4312H97.0521L96.7472 32.5209H91.6225ZM102.643 25.2235C103 25.2258 103.331 25.2867 103.636 25.4062C103.944 25.5234 104.197 25.7156 104.395 25.9827C104.593 26.2475 104.71 26.6026 104.746 27.0478C104.783 27.4931 104.709 28.0438 104.525 28.6999C104.355 29.3186 104.132 29.8717 103.857 30.3591C103.585 30.8442 103.274 31.2543 102.925 31.5894C102.575 31.9245 102.196 32.1799 101.787 32.3557C101.378 32.5315 100.948 32.6193 100.498 32.6193C100.026 32.6193 99.6319 32.5303 99.3167 32.3522C99.0039 32.1741 98.7789 31.9304 98.6416 31.621C98.5042 31.3117 98.4657 30.9578 98.5261 30.5595H99.8584C99.8465 30.8454 99.9216 31.0727 100.084 31.2414C100.249 31.4078 100.492 31.491 100.813 31.491C101.332 31.491 101.791 31.2742 102.192 30.8407C102.594 30.4071 102.902 29.8049 103.118 29.0339H103.067C102.89 29.2401 102.685 29.4182 102.454 29.5682C102.222 29.7158 101.975 29.8295 101.712 29.9092C101.451 29.9888 101.187 30.0287 100.919 30.0287C100.481 30.0287 100.115 29.9279 99.8214 29.7264C99.5298 29.5248 99.3309 29.2483 99.2249 28.8968C99.1212 28.5453 99.1315 28.1434 99.2556 27.6911C99.3867 27.2224 99.6163 26.8018 99.9444 26.4292C100.276 26.0542 100.673 25.7589 101.138 25.5433C101.603 25.3254 102.104 25.2188 102.643 25.2235ZM102.352 26.278C102.089 26.278 101.835 26.3401 101.588 26.4643C101.345 26.5862 101.133 26.7525 100.952 26.9635C100.774 27.172 100.65 27.4052 100.577 27.663C100.508 27.9184 100.503 28.1504 100.562 28.359C100.623 28.5675 100.738 28.7328 100.908 28.8546C101.081 28.9765 101.3 29.0374 101.565 29.0374C101.763 29.0374 101.956 29.0011 102.147 28.9284C102.338 28.8558 102.514 28.755 102.677 28.6261C102.843 28.4949 102.984 28.3461 103.101 28.1797C103.221 28.0133 103.305 27.8376 103.355 27.6524C103.423 27.4064 103.426 27.1791 103.363 26.9705C103.302 26.7619 103.185 26.5944 103.011 26.4678C102.839 26.3413 102.62 26.278 102.352 26.278ZM109.309 25.2235C109.666 25.2258 109.997 25.2867 110.301 25.4062C110.609 25.5234 110.862 25.7156 111.06 25.9827C111.258 26.2475 111.376 26.6026 111.412 27.0478C111.448 27.4931 111.374 28.0438 111.19 28.6999C111.02 29.3186 110.797 29.8717 110.522 30.3591C110.25 30.8442 109.939 31.2543 109.59 31.5894C109.241 31.9245 108.861 32.1799 108.452 32.3557C108.043 32.5315 107.613 32.6193 107.163 32.6193C106.691 32.6193 106.297 32.5303 105.982 32.3522C105.669 32.1741 105.444 31.9304 105.307 31.621C105.169 31.3117 105.131 30.9578 105.191 30.5595H106.524C106.512 30.8454 106.587 31.0727 106.749 31.2414C106.914 31.4078 107.157 31.491 107.478 31.491C107.997 31.491 108.456 31.2742 108.858 30.8407C109.259 30.4071 109.567 29.8049 109.783 29.0339H109.732C109.555 29.2401 109.35 29.4182 109.119 29.5682C108.888 29.7158 108.64 29.8295 108.377 29.9092C108.116 29.9888 107.852 30.0287 107.585 30.0287C107.147 30.0287 106.781 29.9279 106.486 29.7264C106.195 29.5248 105.996 29.2483 105.89 28.8968C105.786 28.5453 105.797 28.1434 105.921 27.6911C106.052 27.2224 106.281 26.8018 106.61 26.4292C106.941 26.0542 107.339 25.7589 107.803 25.5433C108.268 25.3254 108.77 25.2188 109.309 25.2235ZM109.017 26.278C108.754 26.278 108.5 26.3401 108.253 26.4643C108.01 26.5862 107.798 26.7525 107.617 26.9635C107.44 27.172 107.315 27.4052 107.243 27.663C107.174 27.9184 107.168 28.1504 107.227 28.359C107.288 28.5675 107.403 28.7328 107.574 28.8546C107.746 28.9765 107.965 29.0374 108.231 29.0374C108.428 29.0374 108.622 29.0011 108.812 28.9284C109.003 28.8558 109.18 28.755 109.342 28.6261C109.508 28.4949 109.649 28.3461 109.766 28.1797C109.886 28.0133 109.97 27.8376 110.02 27.6524C110.089 27.4064 110.091 27.1791 110.028 26.9705C109.967 26.7619 109.85 26.5944 109.676 26.4678C109.504 26.3413 109.285 26.278 109.017 26.278ZM115.974 25.2235C116.331 25.2258 116.662 25.2867 116.966 25.4062C117.274 25.5234 117.527 25.7156 117.725 25.9827C117.923 26.2475 118.041 26.6026 118.077 27.0478C118.113 27.4931 118.039 28.0438 117.855 28.6999C117.685 29.3186 117.462 29.8717 117.187 30.3591C116.915 30.8442 116.604 31.2543 116.255 31.5894C115.906 31.9245 115.526 32.1799 115.117 32.3557C114.708 32.5315 114.278 32.6193 113.828 32.6193C113.356 32.6193 112.962 32.5303 112.647 32.3522C112.334 32.1741 112.109 31.9304 111.972 31.621C111.835 31.3117 111.796 30.9578 111.856 30.5595H113.189C113.177 30.8454 113.252 31.0727 113.414 31.2414C113.579 31.4078 113.822 31.491 114.144 31.491C114.662 31.491 115.122 31.2742 115.523 30.8407C115.924 30.4071 116.232 29.8049 116.448 29.0339H116.397C116.22 29.2401 116.016 29.4182 115.784 29.5682C115.553 29.7158 115.306 29.8295 115.042 29.9092C114.782 29.9888 114.517 30.0287 114.25 30.0287C113.812 30.0287 113.446 29.9279 113.152 29.7264C112.86 29.5248 112.661 29.2483 112.555 28.8968C112.452 28.5453 112.462 28.1434 112.586 27.6911C112.717 27.2224 112.947 26.8018 113.275 26.4292C113.606 26.0542 114.004 25.7589 114.468 25.5433C114.933 25.3254 115.435 25.2188 115.974 25.2235ZM115.682 26.278C115.419 26.278 115.165 26.3401 114.918 26.4643C114.675 26.5862 114.463 26.7525 114.282 26.9635C114.105 27.172 113.98 27.4052 113.908 27.663C113.839 27.9184 113.833 28.1504 113.892 28.359C113.953 28.5675 114.068 28.7328 114.239 28.8546C114.411 28.9765 114.63 29.0374 114.896 29.0374C115.093 29.0374 115.287 29.0011 115.477 28.9284C115.668 28.8558 115.845 28.755 116.007 28.6261C116.173 28.4949 116.314 28.3461 116.431 28.1797C116.551 28.0133 116.635 27.8376 116.685 27.6524C116.754 27.4064 116.756 27.1791 116.693 26.9705C116.632 26.7619 116.515 26.5944 116.341 26.4678C116.17 26.3413 115.95 26.278 115.682 26.278Z" fill="#010103"/>
</g>
<g id="Frame 427319438">
<path id="Vector 25" d="M127.82 49.9526L80.8057 87.0498L94.763 100.273L134.431 93.6611L127.82 49.9526Z" fill="url(#paint0_linear_746_7217)"/>
<path id="Vector 30" d="M112.76 101.007L67.2153 138.104L80.8054 152.429L120.474 145.818L112.76 101.007Z" fill="url(#paint1_linear_746_7217)"/>
<path id="Vector 29" d="M179.977 102.476L131.493 137.002L159.5 152L189.986 144.287L179.977 102.476Z" fill="url(#paint2_linear_746_7217)"/>
<g id="Frame 427319429">
<rect width="41.1151" height="41.1151" rx="5.13939" transform="matrix(1 0 -0.269424 0.963022 88.2104 47.7488)" fill="#33BBE4"/>
<g id="icons8-bhim 1">
<path id="Vector" d="M93.9519 76.7731C94.0193 76.8188 94.1028 76.8404 94.1907 76.8404C94.3234 76.8404 94.4687 76.791 94.5945 76.6956L99.4469 73.0144L97.6519 76.2171L97.6518 76.2172C97.5308 76.4336 97.5649 76.6619 97.7347 76.7741L97.7348 76.7742C97.8024 76.8186 97.8851 76.8404 97.9729 76.8404C98.1061 76.8404 98.252 76.7906 98.3774 76.695L109.933 67.8952L109.934 67.895C110.124 67.7493 110.228 67.529 110.191 67.3415L108.5 58.542C108.463 58.3515 108.291 58.2364 108.071 58.2536M93.9519 76.7731C93.9518 76.773 93.9516 76.7729 93.9515 76.7728L94.0242 76.6917L93.9523 76.7734C93.9522 76.7733 93.9521 76.7732 93.9519 76.7731ZM93.9519 76.7731C93.7817 76.6606 93.7491 76.4318 93.8705 76.2158L93.8706 76.2157L103.787 58.616L103.787 58.6159C103.9 58.4151 104.122 58.2704 104.342 58.2536L104.343 58.2536C104.566 58.2383 104.734 58.3524 104.77 58.5422C104.77 58.5423 104.77 58.5423 104.77 58.5423L105.479 62.2508L107.516 58.6174C107.516 58.6174 107.516 58.6174 107.516 58.6174C107.629 58.4163 107.851 58.2705 108.071 58.2536M108.071 58.2536C108.071 58.2536 108.071 58.2536 108.072 58.2536L108.053 58.3476L108.071 58.2536C108.071 58.2536 108.071 58.2536 108.071 58.2536ZM106.453 67.3421L105.75 63.6653L107.692 60.202L109.083 67.4399L99.5773 74.6779L101.296 71.6111L106.194 67.8957C106.385 67.7504 106.489 67.5296 106.453 67.3421ZM95.8002 74.6794L103.959 60.1981L105.344 67.4389L95.8002 74.6794Z" fill="white" stroke="white" stroke-width="0.195828"/>
</g>
</g>
<g id="Frame 427319432">
<rect width="41.1151" height="41.1151" rx="5.13939" transform="matrix(1 0 -0.269424 0.963022 73.5186 99.1706)" fill="#33BBE4"/>
<g id="Frame 427319435">
<g id="Group 427319245">
<path id="Vector_2" d="M86.8058 125.155C90.3538 125.155 94.005 122.385 94.9609 118.968C95.9168 115.551 93.8155 112.781 90.2675 112.781C86.7195 112.781 83.0683 115.551 82.1124 118.968C81.1565 122.385 83.2578 125.155 86.8058 125.155Z" stroke="white" stroke-width="1.28485" stroke-linecap="round" stroke-linejoin="round"/>
<path id="Vector_3" d="M91.7981 116.493H87.9435C87.6028 116.493 87.2395 116.624 86.9336 116.856C86.6277 117.088 86.4043 117.402 86.3125 117.731C86.2207 118.059 86.268 118.373 86.4441 118.606C86.6201 118.838 86.9104 118.968 87.2512 118.968H89.8209C90.1617 118.968 90.452 119.098 90.628 119.33C90.8041 119.562 90.8514 119.877 90.7596 120.205C90.6678 120.533 90.4443 120.848 90.1385 121.08C89.8326 121.312 89.4693 121.443 89.1286 121.443H85.274" stroke="white" stroke-width="1.28485" stroke-linecap="round" stroke-linejoin="round"/>
<path id="Vector_4" d="M87.4977 122.68L89.5747 115.256" stroke="white" stroke-width="1.28485" stroke-linecap="round" stroke-linejoin="round"/>
</g>
</g>
</g>
<path id="Vector 27" d="M190.995 50.3199L143.981 87.0498L170.794 107.618L201.28 99.9052L190.995 50.3199Z" fill="url(#paint3_linear_746_7217)"/>
<g id="Frame 427319430">
<rect width="41.1151" height="41.1151" rx="5.13939" transform="matrix(1 0 -0.269424 0.963022 151.385 47.7488)" fill="#33BBE4"/>
<g id="Frame" clip-path="url(#clip0_746_7217)">
<g id="Group 2608755">
<path id="Vector_5" d="M164.383 60.7422H162.028C161.595 60.7422 161.148 61.0807 161.032 61.4982L160.397 63.7663C160.28 64.1838 160.537 64.5223 160.971 64.5223H163.326C163.759 64.5223 164.206 64.1838 164.322 63.7663L164.957 61.4982C165.074 61.0807 164.817 60.7422 164.383 60.7422Z" stroke="white" stroke-width="1.57009" stroke-linecap="round" stroke-linejoin="round"/>
<path id="Vector_6" d="M174.589 60.7422H172.234C171.8 60.7422 171.354 61.0806 171.237 61.4982L170.603 63.7662C170.486 64.1838 170.743 64.5222 171.176 64.5222H173.531C173.965 64.5222 174.411 64.1838 174.528 63.7662L175.162 61.4982C175.279 61.0806 175.022 60.7422 174.589 60.7422Z" stroke="white" stroke-width="1.57009" stroke-linecap="round" stroke-linejoin="round"/>
<path id="Vector_7" d="M161.634 70.5706H159.279C158.845 70.5706 158.399 70.9091 158.282 71.3266L157.648 73.5947C157.531 74.0122 157.788 74.3507 158.221 74.3507H160.576C161.01 74.3507 161.456 74.0122 161.573 73.5947L162.207 71.3266C162.324 70.9091 162.067 70.5706 161.634 70.5706Z" stroke="white" stroke-width="1.57009" stroke-linecap="round" stroke-linejoin="round"/>
<path id="Vector_8" d="M172.624 70.5706H170.269C169.852 70.5706 169.408 70.7299 169.035 71.0135C168.661 71.297 168.388 71.6816 168.276 72.0826L167.641 74.3507" stroke="white" stroke-width="1.57009" stroke-linecap="round" stroke-linejoin="round"/>
<path id="Vector_9" d="M171.567 74.3504L171.565 74.357" stroke="white" stroke-width="1.57009" stroke-linecap="round" stroke-linejoin="round"/>
<path id="Vector_10" d="M167.463 63.7665L166.828 66.0345C166.716 66.4355 166.443 66.8201 166.069 67.1037C165.696 67.3872 165.252 67.5465 164.835 67.5465H162.48" stroke="white" stroke-width="1.57009" stroke-linecap="round" stroke-linejoin="round"/>
<path id="Vector_11" d="M159.34 67.5463H159.347" stroke="white" stroke-width="1.57009" stroke-linecap="round" stroke-linejoin="round"/>
<path id="Vector_12" d="M168.309 60.7422H168.316" stroke="white" stroke-width="1.57009" stroke-linecap="round" stroke-linejoin="round"/>
<path id="Vector_13" d="M165.559 70.5706L165.557 70.5772" stroke="white" stroke-width="1.57009" stroke-linecap="round" stroke-linejoin="round"/>
<path id="Vector_14" d="M169.545 67.5463H170.33" stroke="white" stroke-width="1.57009" stroke-linecap="round" stroke-linejoin="round"/>
<path id="Vector_15" d="M173.471 67.5463L173.469 67.5529" stroke="white" stroke-width="1.57009" stroke-linecap="round" stroke-linejoin="round"/>
<path id="Vector_16" d="M164.502 74.3508L164.713 73.5948" stroke="white" stroke-width="1.57009" stroke-linecap="round" stroke-linejoin="round"/>
</g>
</g>
</g>
<g id="Frame 427319431">
<rect width="41.1151" height="41.1151" rx="5.13939" transform="matrix(1 0 -0.269424 0.963022 140.367 99.1706)" fill="#33BBE4"/>
<g id="Frame 427319436">
<g id="Group 427319246">
<path id="Vector_17" d="M151.917 120.58C154.153 120.58 156.454 118.834 157.057 116.68C157.659 114.527 156.335 112.781 154.099 112.781C151.863 112.781 149.561 114.527 148.959 116.68C148.356 118.834 149.681 120.58 151.917 120.58Z" stroke="white" stroke-width="1.28485" stroke-linecap="round" stroke-linejoin="round"/>
<path id="Vector_18" d="M159.386 118.221C159.96 118.45 160.421 118.83 160.727 119.326C161.033 119.822 161.174 120.419 161.137 121.06C161.1 121.701 160.886 122.366 160.514 122.994C160.143 123.622 159.627 124.193 159.013 124.653C158.399 125.113 157.708 125.447 157.003 125.626C156.297 125.804 155.602 125.821 154.979 125.674C154.357 125.527 153.828 125.222 153.442 124.785C153.055 124.349 152.824 123.797 152.769 123.179" stroke="white" stroke-width="1.28485" stroke-linecap="round" stroke-linejoin="round"/>
<path id="Vector_19" d="M152.696 115.381H153.371L152.644 117.98" stroke="white" stroke-width="1.28485" stroke-linecap="round" stroke-linejoin="round"/>
<path id="Vector_20" d="M157.816 120.502L158.16 120.963L155.744 122.796" stroke="white" stroke-width="1.28485" stroke-linecap="round" stroke-linejoin="round"/>
</g>
</g>
</g>
<path id="Vector 31" d="M49.9526 101.742L3.30566 137.002L49.5853 154.265L66.481 143.981L49.9526 101.742Z" fill="url(#paint4_linear_746_7217)"/>
<g id="Frame 427319433">
<rect width="41.1151" height="41.1151" rx="5.13939" transform="matrix(1 0 -0.269424 0.963022 11.0771 99.1706)" fill="#33BBE4"/>
<g id="Frame 427319434" clip-path="url(#clip1_746_7217)">
<g id="Group 427319244">
<path id="Vector_21" d="M29.6753 120.721H29.6821" stroke="white" stroke-width="1.28485" stroke-linecap="round" stroke-linejoin="round"/>
<path id="Vector_22" d="M23.5931 115.668H32.587C32.9846 115.668 33.3233 115.82 33.5287 116.091C33.734 116.362 33.7892 116.729 33.6821 117.112L31.6628 124.33C31.5557 124.713 31.295 125.08 30.9382 125.35C30.5813 125.621 30.1575 125.773 29.76 125.773H19.267C18.8695 125.773 18.5308 125.621 18.3254 125.35C18.12 125.08 18.0648 124.713 18.1719 124.33L20.999 114.225C21.1061 113.842 21.3667 113.475 21.7236 113.204C22.0804 112.933 22.5043 112.781 22.9018 112.781H33.3947" stroke="white" stroke-width="1.28485" stroke-linecap="round" stroke-linejoin="round"/>
</g>
</g>
</g>
<path id="Vector 24" d="M63.9101 50.3199L15.7939 86.3152L62.0736 103.578L78.9693 93.2938L63.9101 50.3199Z" fill="url(#paint5_linear_746_7217)"/>
<g id="Frame 427319423">
<rect width="41.1151" height="41.1151" rx="5.13939" transform="matrix(1 0 -0.269424 0.963022 24.3003 47.7488)" fill="#33BBE4"/>
<g id="Frame_2" clip-path="url(#clip2_746_7217)">
<path id="Vector_23" d="M45.0635 61.3616H37.0358C35.2624 61.3616 33.4374 62.7461 32.9596 64.4539L31.2293 70.6387C30.7515 72.3465 31.8018 73.731 33.5752 73.731H41.6029C43.3764 73.731 45.2014 72.3465 45.6792 70.6387L47.4095 64.4539C47.8873 62.7461 46.837 61.3616 45.0635 61.3616Z" stroke="white" stroke-width="1.28485" stroke-linecap="round" stroke-linejoin="round"/>
<path id="Vector_24" d="M47.1936 65.2271H32.7437" stroke="white" stroke-width="1.28485" stroke-linecap="round" stroke-linejoin="round"/>
<path id="Vector_25" d="M33.9385 70.6389H37.9524" stroke="white" stroke-width="1.28485" stroke-linecap="round" stroke-linejoin="round"/>
</g>
</g>
</g>
</g>
<defs>
<linearGradient id="paint0_linear_746_7217" x1="77.5" y1="12.4882" x2="123.045" y2="91.4573" gradientUnits="userSpaceOnUse">
<stop stop-color="#36C5F0"/>
<stop offset="1" stop-color="white"/>
</linearGradient>
<linearGradient id="paint1_linear_746_7217" x1="63.5423" y1="64.6446" x2="109.087" y2="143.614" gradientUnits="userSpaceOnUse">
<stop stop-color="#36C5F0"/>
<stop offset="1" stop-color="white"/>
</linearGradient>
<linearGradient id="paint2_linear_746_7217" x1="130.391" y1="63.9099" x2="175.936" y2="142.512" gradientUnits="userSpaceOnUse">
<stop stop-color="#36C5F0"/>
<stop offset="1" stop-color="white"/>
</linearGradient>
<linearGradient id="paint3_linear_746_7217" x1="141.41" y1="11.7535" x2="186.955" y2="90.3554" gradientUnits="userSpaceOnUse">
<stop stop-color="#36C5F0"/>
<stop offset="1" stop-color="white"/>
</linearGradient>
<linearGradient id="paint4_linear_746_7217" x1="2.20377" y1="63.5426" x2="51.0545" y2="146.552" gradientUnits="userSpaceOnUse">
<stop stop-color="#36C5F0"/>
<stop offset="1" stop-color="white"/>
</linearGradient>
<linearGradient id="paint5_linear_746_7217" x1="14.692" y1="12.8554" x2="63.5428" y2="95.8649" gradientUnits="userSpaceOnUse">
<stop stop-color="#36C5F0"/>
<stop offset="1" stop-color="white"/>
</linearGradient>
<clipPath id="clip0_746_7217">
<rect width="20.5575" height="20.5575" fill="white" transform="matrix(1 0 -0.269424 0.963022 158.895 57.6475)"/>
</clipPath>
<clipPath id="clip1_746_7217">
<rect width="20.5575" height="20.5575" fill="white" transform="matrix(1 0 -0.269424 0.963022 18.5869 109.069)"/>
</clipPath>
<clipPath id="clip2_746_7217">
<rect width="20.5575" height="20.5575" fill="white" transform="matrix(1 0 -0.269424 0.963022 31.8096 57.6475)"/>
</clipPath>
</defs>
</svg>
