<svg width="226" height="167" viewBox="0 0 226 167" fill="none" xmlns="http://www.w3.org/2000/svg">
<g clip-path="url(#clip0_746_7557)">
<rect width="180.539" height="172.69" rx="9.41943" transform="matrix(1 0 -0.258819 0.965926 45 0)" fill="white"/>
<path d="M60.8098 19.1314C60.8638 18.7745 60.7662 18.4981 60.5169 18.3021C60.2683 18.1036 59.9151 18.0043 59.4572 18.0043C59.1294 18.0043 58.8323 18.0546 58.566 18.1551C58.3004 18.2531 58.078 18.3888 57.8989 18.5622C57.723 18.7331 57.6058 18.9278 57.5472 19.1465C57.4981 19.3299 57.4999 19.4882 57.5526 19.6214C57.608 19.7546 57.6964 19.8664 57.8179 19.9569C57.9426 20.0449 58.0814 20.119 58.2344 20.1793C58.388 20.2371 58.5378 20.2849 58.6838 20.3225L59.4118 20.5186C59.6506 20.5789 59.8901 20.6605 60.1305 20.7636C60.3709 20.8666 60.583 21.0023 60.7668 21.1707C60.9506 21.3391 61.0795 21.5476 61.1533 21.7964C61.2297 22.0452 61.2215 22.343 61.1285 22.6898C61.0114 23.127 60.7903 23.5153 60.4652 23.8546C60.1428 24.1938 59.7341 24.4614 59.2393 24.6575C58.7471 24.8535 58.1888 24.9515 57.5645 24.9515C56.9661 24.9515 56.4729 24.8598 56.085 24.6763C55.6971 24.4929 55.4247 24.2328 55.2677 23.896C55.1115 23.5568 55.0826 23.1547 55.1812 22.6898H56.3909C56.3396 22.9687 56.371 23.2012 56.4851 23.3871C56.6024 23.5706 56.7778 23.7076 57.0111 23.798C57.2477 23.886 57.5208 23.93 57.8304 23.93C58.1712 23.93 58.4881 23.8784 58.7811 23.7754C59.0773 23.6699 59.3271 23.5241 59.5304 23.3381C59.7344 23.1497 59.8701 22.9298 59.9374 22.6785C59.9987 22.4498 59.9812 22.2626 59.885 22.1168C59.7914 21.9711 59.6429 21.8504 59.4395 21.755C59.2387 21.6595 59.005 21.5753 58.7384 21.5024L57.8607 21.2536C57.2658 21.0852 56.8248 20.8377 56.5377 20.511C56.2532 20.1843 56.183 19.7521 56.3271 19.2143C56.4463 18.7695 56.6752 18.3813 57.0138 18.0495C57.3524 17.7178 57.7597 17.4602 58.2355 17.2768C58.712 17.0908 59.2182 16.9979 59.7542 16.9979C60.2953 16.9979 60.7481 17.0896 61.1126 17.273C61.4797 17.4565 61.7399 17.709 61.893 18.0307C62.0469 18.3498 62.0734 18.7167 61.9727 19.1314H60.8098ZM63.8676 24.9402C63.277 24.9402 62.8011 24.8183 62.4397 24.5745C62.0816 24.3283 61.8464 23.9827 61.734 23.5379C61.625 23.0906 61.6509 22.5667 61.8118 21.966C61.9707 21.373 62.2252 20.8503 62.5754 20.3979C62.9281 19.9456 63.3454 19.5925 63.827 19.3387C64.3113 19.0849 64.8318 18.958 65.3886 18.958C65.7268 18.958 66.0401 19.012 66.3286 19.1201C66.617 19.2281 66.8564 19.3978 67.0468 19.629C67.2372 19.8602 67.3558 20.1605 67.4025 20.5299C67.4499 20.8968 67.4032 21.3428 67.2625 21.868L67.1554 22.2676H62.3905L62.6168 21.4232H66.2383C66.3177 21.1267 66.3256 20.8641 66.262 20.6354C66.1991 20.4042 66.0723 20.222 65.8817 20.0888C65.6936 19.9557 65.4487 19.8891 65.1469 19.8891C64.8191 19.8891 64.512 19.967 64.2257 20.1228C63.9427 20.2761 63.7015 20.4771 63.5022 20.7259C63.3061 20.9722 63.1693 21.2398 63.0919 21.5288L62.9151 22.1884C62.8115 22.5754 62.7935 22.9046 62.8613 23.1761C62.9316 23.4475 63.0751 23.6548 63.2917 23.798C63.5089 23.9387 63.788 24.0091 64.1288 24.0091C64.3499 24.0091 64.5596 23.979 64.7579 23.9186C64.9569 23.8558 65.1392 23.7628 65.3048 23.6397C65.4705 23.5166 65.6127 23.3645 65.7314 23.1836L66.7843 23.3758C66.6117 23.69 66.3793 23.9651 66.087 24.2014C65.7981 24.4351 65.4644 24.6173 65.0859 24.7479C64.7108 24.8761 64.3047 24.9402 63.8676 24.9402ZM69.6701 24.9402C69.09 24.9402 68.6245 24.8133 68.2736 24.5595C67.926 24.3031 67.7006 23.9501 67.5974 23.5002C67.4942 23.0504 67.5204 22.5352 67.6759 21.9547C67.8335 21.3667 68.087 20.8478 68.4365 20.3979C68.7866 19.9456 69.2038 19.5925 69.6881 19.3387C70.1724 19.0849 70.6968 18.958 71.2614 18.958C71.7166 18.958 72.1006 19.0397 72.4133 19.203C72.7266 19.3638 72.9535 19.59 73.0939 19.8815C73.2369 20.173 73.2771 20.5135 73.2143 20.9031H72.0787C72.089 20.6316 72.0085 20.3979 71.8373 20.2019C71.6687 20.0059 71.3984 19.9079 71.0263 19.9079C70.7011 19.9079 70.394 19.9908 70.105 20.1567C69.8193 20.32 69.5681 20.5537 69.3513 20.8578C69.1352 21.1594 68.972 21.5162 68.8615 21.9284C68.7484 22.3505 68.7171 22.7149 68.7677 23.0215C68.8182 23.3281 68.9419 23.5656 69.1387 23.7339C69.3381 23.9023 69.6031 23.9865 69.9335 23.9865C70.1546 23.9865 70.3654 23.9475 70.5658 23.8696C70.7694 23.7892 70.9523 23.6749 71.1143 23.5266C71.2789 23.3783 71.4138 23.1999 71.5192 22.9913H72.6548C72.5128 23.3658 72.2971 23.7 72.0076 23.994C71.7181 24.2881 71.3738 24.5192 70.9749 24.6876C70.5786 24.856 70.1436 24.9402 69.6701 24.9402ZM77.2635 22.4222L78.1715 19.0334H79.3422L77.7908 24.8233H76.6435L76.9122 23.8206H76.8497C76.629 24.1297 76.3389 24.3873 75.9793 24.5934C75.6229 24.7969 75.2197 24.8987 74.7696 24.8987C74.3846 24.8987 74.0657 24.817 73.8129 24.6537C73.5633 24.4878 73.3974 24.2428 73.3152 23.9186C73.2355 23.5945 73.2597 23.1936 73.3876 22.7162L74.3744 19.0334H75.5412L74.5908 22.5805C74.4851 22.975 74.5141 23.2891 74.6778 23.5228C74.8415 23.7566 75.1042 23.8734 75.4658 23.8734C75.6844 23.8734 75.9158 23.8206 76.16 23.7151C76.4068 23.6095 76.6304 23.45 76.8307 23.2364C77.0336 23.0228 77.1779 22.7514 77.2635 22.4222ZM78.7699 24.8233L80.3213 19.0334H81.4492L81.2027 19.9531H81.2652C81.4579 19.6415 81.7161 19.3965 82.0397 19.2181C82.3665 19.0372 82.7056 18.9467 83.0568 18.9467C83.1296 18.9467 83.2148 18.9492 83.3123 18.9542C83.4125 18.9592 83.4901 18.9655 83.5453 18.9731L83.2565 20.0511C83.213 20.0386 83.1335 20.0248 83.0178 20.0097C82.9029 19.9921 82.7855 19.9833 82.6659 19.9833C82.3901 19.9833 82.1291 20.0398 81.8828 20.1529C81.6399 20.2635 81.4294 20.418 81.2513 20.6166C81.0739 20.8126 80.9515 21.0362 80.8842 21.2875L79.9368 24.8233H78.7699ZM82.3988 24.8233L83.9502 19.0334H85.1171L83.5656 24.8233H82.3988ZM84.7789 18.14C84.5759 18.14 84.4191 18.0747 84.3085 17.944C84.2011 17.8108 84.1719 17.6525 84.2211 17.469C84.2709 17.2831 84.3849 17.1248 84.563 16.9941C84.7444 16.8609 84.9365 16.7943 85.1395 16.7943C85.3424 16.7943 85.4975 16.8609 85.6049 16.9941C85.7156 17.1248 85.7461 17.2831 85.6962 17.469C85.6471 17.6525 85.5318 17.8108 85.3504 17.944C85.1723 18.0747 84.9818 18.14 84.7789 18.14ZM88.8962 19.0334L88.6538 19.9381H85.3796L85.622 19.0334H88.8962ZM86.8718 17.6462H88.0386L86.571 23.1233C86.5124 23.3419 86.5022 23.5065 86.5402 23.6171C86.5789 23.7251 86.6461 23.7993 86.742 23.8395C86.8412 23.8772 86.9545 23.896 87.082 23.896C87.1757 23.896 87.2593 23.8897 87.3329 23.8772C87.4065 23.8646 87.4639 23.8546 87.5049 23.847L87.4662 24.7781C87.3918 24.8032 87.2888 24.8283 87.1572 24.8535C87.0249 24.8811 86.8648 24.8962 86.6768 24.8987C86.3684 24.9037 86.0964 24.851 85.8606 24.7404C85.6249 24.6298 85.4561 24.4589 85.3541 24.2277C85.2521 23.9965 85.248 23.7063 85.3416 23.357L86.8718 17.6462ZM88.2026 26.9945C88.0283 26.9945 87.8733 26.9807 87.7376 26.9531C87.6012 26.928 87.502 26.9003 87.4398 26.8702L87.9682 25.9466C88.1668 26.0019 88.3503 26.0258 88.5188 26.0182C88.6873 26.0107 88.8505 25.9504 89.0083 25.8373C89.1687 25.7242 89.3326 25.5395 89.5002 25.2832L89.7476 24.8987L89.126 19.0334H90.3748L90.6889 23.5266H90.7513L93.4734 19.0334H94.726L90.4973 25.5961C90.302 25.8976 90.088 26.1527 89.8552 26.3613C89.6217 26.5724 89.3686 26.7307 89.0957 26.8362C88.8229 26.9418 88.5252 26.9945 88.2026 26.9945Z" fill="#010103"/>
<path d="M27.4681 135.106H25.2504L27.0234 128.489H29.3114C29.9826 128.489 30.5236 128.621 30.9343 128.886C31.3455 129.149 31.6133 129.527 31.7376 130.02C31.8647 130.512 31.8361 131.101 31.652 131.788C31.4673 132.477 31.1782 133.069 30.7845 133.565C30.3931 134.06 29.9163 134.442 29.3541 134.709C28.7925 134.974 28.1639 135.106 27.4681 135.106ZM26.5177 134.234H27.645C28.1668 134.234 28.6259 134.139 29.0224 133.949C29.4194 133.758 29.7522 133.481 30.0209 133.119C30.2902 132.755 30.4949 132.311 30.6352 131.788C30.7742 131.269 30.8064 130.828 30.7317 130.466C30.6592 130.104 30.4796 129.83 30.1931 129.642C29.9066 129.455 29.5136 129.361 29.0141 129.361H27.8233L26.5177 134.234ZM32.845 135.216C32.5194 135.216 32.2406 135.158 32.0087 135.041C31.7773 134.923 31.6146 134.752 31.5208 134.528C31.4292 134.304 31.427 134.029 31.5141 133.704C31.5891 133.424 31.7066 133.193 31.8666 133.012C32.0266 132.831 32.2155 132.688 32.4333 132.583C32.6512 132.477 32.8844 132.397 33.133 132.344C33.3815 132.29 33.6311 132.249 33.8817 132.221C34.1986 132.186 34.4559 132.158 34.6535 132.137C34.8516 132.113 35.0011 132.075 35.1019 132.024C35.2027 131.972 35.2687 131.888 35.2999 131.772L35.3059 131.749C35.3815 131.467 35.3576 131.248 35.2341 131.093C35.1129 130.938 34.8906 130.861 34.5673 130.861C34.2305 130.861 33.9458 130.933 33.7132 131.077C33.4833 131.219 33.3082 131.377 33.1878 131.552L32.3033 131.345C32.4956 131.044 32.7236 130.8 32.9873 130.615C33.2539 130.428 33.5389 130.292 33.8423 130.208C34.1464 130.122 34.4534 130.079 34.7634 130.079C34.9686 130.079 35.1796 130.102 35.3966 130.15C35.6164 130.195 35.8102 130.279 35.978 130.402C36.148 130.525 36.2671 130.7 36.3353 130.928C36.404 131.155 36.3899 131.449 36.293 131.81L35.4099 135.106H34.4332L34.615 134.428H34.5748C34.4767 134.552 34.3468 134.675 34.1851 134.796C34.0235 134.917 33.8305 135.017 33.6062 135.096C33.3819 135.176 33.1282 135.216 32.845 135.216ZM33.2702 134.44C33.5467 134.44 33.7972 134.388 34.0217 134.282C34.2485 134.177 34.4359 134.039 34.5841 133.869C34.7351 133.696 34.8369 133.512 34.8894 133.316L35.0608 132.676C35.0159 132.711 34.9381 132.743 34.8274 132.773C34.7196 132.801 34.5981 132.826 34.463 132.848C34.3285 132.867 34.1976 132.885 34.0703 132.903C33.9436 132.918 33.8376 132.931 33.7522 132.941C33.5518 132.965 33.3638 133.005 33.1883 133.061C33.0149 133.117 32.8662 133.198 32.742 133.303C32.6207 133.407 32.5369 133.544 32.4907 133.717C32.4267 133.956 32.4696 134.137 32.6196 134.26C32.7701 134.38 32.987 134.44 33.2702 134.44ZM39.8814 130.143L39.6737 130.919H36.8672L37.075 130.143H39.8814ZM38.1462 128.954H39.1464L37.8884 133.649C37.8382 133.836 37.8294 133.977 37.862 134.072C37.8952 134.165 37.9528 134.228 38.035 134.263C38.12 134.295 38.2172 134.311 38.3264 134.311C38.4067 134.311 38.4784 134.306 38.5415 134.295C38.6046 134.284 38.6537 134.276 38.6889 134.269L38.6557 135.067C38.592 135.089 38.5037 135.11 38.3909 135.132C38.2775 135.156 38.1402 135.169 37.9791 135.171C37.7148 135.175 37.4816 135.13 37.2796 135.035C37.0775 134.94 36.9328 134.794 36.8454 134.596C36.758 134.397 36.7544 134.149 36.8346 133.849L38.1462 128.954ZM40.5351 135.216C40.2095 135.216 39.9307 135.158 39.6987 135.041C39.4673 134.923 39.3047 134.752 39.2109 134.528C39.1193 134.304 39.117 134.029 39.2042 133.704C39.2792 133.424 39.3967 133.193 39.5567 133.012C39.7167 132.831 39.9056 132.688 40.1234 132.583C40.3413 132.477 40.5745 132.397 40.823 132.344C41.0716 132.29 41.3212 132.249 41.5718 132.221C41.8887 132.186 42.146 132.158 42.3435 132.137C42.5417 132.113 42.6911 132.075 42.792 132.024C42.8928 131.972 42.9588 131.888 42.9899 131.772L42.996 131.749C43.0716 131.467 43.0477 131.248 42.9242 131.093C42.803 130.938 42.5807 130.861 42.2574 130.861C41.9206 130.861 41.6359 130.933 41.4032 131.077C41.1734 131.219 40.9983 131.377 40.8779 131.552L39.9934 131.345C40.1857 131.044 40.4137 130.8 40.6774 130.615C40.9439 130.428 41.2289 130.292 41.5324 130.208C41.8365 130.122 42.1435 130.079 42.4535 130.079C42.6586 130.079 42.8697 130.102 43.0867 130.15C43.3065 130.195 43.5003 130.279 43.6681 130.402C43.8381 130.525 43.9572 130.7 44.0254 130.928C44.0941 131.155 44.08 131.449 43.983 131.81L43.1 135.106H42.1233L42.3051 134.428H42.2649C42.1668 134.552 42.0369 134.675 41.8752 134.796C41.7136 134.917 41.5206 135.017 41.2963 135.096C41.072 135.176 40.8183 135.216 40.5351 135.216ZM40.9603 134.44C41.2368 134.44 41.4873 134.388 41.7118 134.282C41.9386 134.177 42.126 134.039 42.2742 133.869C42.4252 133.696 42.5269 133.512 42.5795 133.316L42.7509 132.676C42.706 132.711 42.6282 132.743 42.5175 132.773C42.4097 132.801 42.2882 132.826 42.1531 132.848C42.0185 132.867 41.8876 132.885 41.7604 132.903C41.6337 132.918 41.5276 132.931 41.4422 132.941C41.2419 132.965 41.0539 133.005 40.8784 133.061C40.705 133.117 40.5563 133.198 40.4321 133.303C40.3107 133.407 40.227 133.544 40.1808 133.717C40.1167 133.956 40.1597 134.137 40.3096 134.26C40.4602 134.38 40.6771 134.44 40.9603 134.44ZM50.6027 131.355L49.6547 131.51C49.6468 131.398 49.6151 131.291 49.5598 131.19C49.5066 131.089 49.4196 131.006 49.2986 130.941C49.1777 130.877 49.0135 130.844 48.8061 130.844C48.5229 130.844 48.2701 130.906 48.0476 131.029C47.8258 131.149 47.6891 131.305 47.6378 131.497C47.5933 131.663 47.6211 131.796 47.7211 131.898C47.8211 131.999 48.004 132.082 48.2699 132.146L49.0376 132.327C49.4821 132.433 49.7908 132.596 49.9639 132.815C50.1369 133.035 50.1764 133.32 50.0823 133.671C50.0027 133.969 49.8425 134.234 49.6018 134.466C49.3638 134.697 49.0689 134.878 48.7171 135.009C48.3674 135.141 47.9852 135.206 47.5705 135.206C46.9951 135.206 46.5575 135.088 46.2575 134.851C45.958 134.612 45.8259 134.272 45.8612 133.833L46.866 133.691C46.861 133.934 46.9354 134.118 47.0892 134.243C47.2436 134.366 47.4714 134.428 47.7724 134.428C48.1002 134.428 48.3798 134.362 48.6113 134.23C48.8433 134.097 48.985 133.934 49.0364 133.743C49.0779 133.587 49.0526 133.457 48.9605 133.352C48.8706 133.246 48.7102 133.166 48.4793 133.113L47.659 132.928C47.2078 132.823 46.8983 132.655 46.7303 132.424C46.5646 132.194 46.5291 131.902 46.6238 131.549C46.7023 131.256 46.8557 130.999 47.084 130.78C47.3124 130.56 47.5924 130.389 47.9241 130.266C48.2564 130.141 48.6155 130.079 49.0013 130.079C49.5565 130.079 49.9624 130.195 50.219 130.428C50.4761 130.658 50.604 130.967 50.6027 131.355ZM52.3964 135.206C51.8902 135.206 51.4822 135.102 51.1725 134.893C50.8656 134.682 50.664 134.386 50.5677 134.004C50.4742 133.621 50.4964 133.172 50.6343 132.657C50.7705 132.149 50.9887 131.701 51.2888 131.313C51.5912 130.925 51.9488 130.623 52.3616 130.405C52.7767 130.187 53.2229 130.079 53.7001 130.079C53.99 130.079 54.2586 130.125 54.5058 130.218C54.753 130.31 54.9583 130.456 55.1215 130.654C55.2847 130.852 55.3863 131.109 55.4264 131.426C55.467 131.74 55.427 132.123 55.3063 132.573L55.2146 132.915H51.1304L51.3243 132.192H54.4284C54.4965 131.938 54.5033 131.712 54.4488 131.516C54.3949 131.318 54.2862 131.162 54.1228 131.048C53.9616 130.934 53.7516 130.877 53.493 130.877C53.212 130.877 52.9488 130.943 52.7034 131.077C52.4608 131.208 52.2541 131.381 52.0832 131.594C51.9151 131.805 51.7979 132.034 51.7315 132.282L51.58 132.848C51.4912 133.179 51.4758 133.461 51.5338 133.694C51.5942 133.927 51.7171 134.104 51.9028 134.227C52.089 134.348 52.3282 134.408 52.6203 134.408C52.8098 134.408 52.9896 134.382 53.1595 134.331C53.3301 134.277 53.4863 134.197 53.6283 134.092C53.7704 133.986 53.8922 133.856 53.994 133.701L54.8965 133.865C54.7485 134.135 54.5493 134.37 54.2988 134.573C54.0511 134.773 53.7651 134.929 53.4407 135.041C53.1192 135.151 52.7711 135.206 52.3964 135.206ZM57.2859 135.206C56.7886 135.206 56.3896 135.097 56.0889 134.88C55.791 134.66 55.5978 134.358 55.5093 133.972C55.4208 133.586 55.4433 133.145 55.5766 132.647C55.7116 132.143 55.929 131.698 56.2285 131.313C56.5286 130.925 56.8862 130.623 57.3013 130.405C57.7164 130.187 58.1659 130.079 58.6498 130.079C59.0401 130.079 59.3692 130.149 59.6372 130.289C59.9057 130.426 60.1002 130.62 60.2206 130.87C60.3432 131.12 60.3776 131.412 60.3238 131.746H59.3504C59.3592 131.513 59.2903 131.313 59.1435 131.145C58.999 130.977 58.7673 130.893 58.4484 130.893C58.1696 130.893 57.9064 130.964 57.6587 131.106C57.4138 131.246 57.1984 131.446 57.0126 131.707C56.8274 131.966 56.6875 132.271 56.5928 132.625C56.4959 132.987 56.469 133.299 56.5124 133.562C56.5557 133.824 56.6617 134.028 56.8304 134.172C57.0014 134.317 57.2284 134.389 57.5116 134.389C57.7012 134.389 57.8818 134.355 58.0536 134.289C58.2282 134.22 58.3849 134.122 58.5238 133.995C58.6648 133.868 58.7805 133.715 58.8708 133.536H59.8442C59.7225 133.857 59.5376 134.143 59.2894 134.395C59.0413 134.647 58.7462 134.845 58.4043 134.99C58.0646 135.134 57.6918 135.206 57.2859 135.206ZM63.7104 133.048L64.4887 130.143H65.4922L64.1624 135.106H63.179L63.4093 134.247H63.3558C63.1666 134.512 62.9179 134.732 62.6096 134.909C62.3042 135.083 61.9586 135.171 61.5728 135.171C61.2428 135.171 60.9694 135.101 60.7527 134.961C60.5388 134.818 60.3966 134.608 60.3261 134.331C60.2579 134.053 60.2786 133.709 60.3882 133.3L61.2341 130.143H62.2342L61.4195 133.184C61.3289 133.522 61.3538 133.791 61.4941 133.991C61.6344 134.192 61.8596 134.292 62.1696 134.292C62.3569 134.292 62.5552 134.247 62.7645 134.156C62.9761 134.066 63.1677 133.929 63.3394 133.746C63.5134 133.563 63.637 133.33 63.7104 133.048ZM64.9175 135.106L66.2473 130.143H67.214L67.0028 130.932H67.0563C67.2215 130.665 67.4428 130.455 67.7202 130.302C68.0003 130.146 68.2909 130.069 68.592 130.069C68.6544 130.069 68.7274 130.071 68.811 130.075C68.8968 130.08 68.9634 130.085 69.0107 130.092L68.7631 131.016C68.7259 131.005 68.6577 130.993 68.5586 130.98C68.46 130.965 68.3595 130.957 68.2569 130.957C68.0205 130.957 67.7968 131.006 67.5858 131.103C67.3775 131.198 67.1971 131.33 67.0444 131.5C66.8924 131.668 66.7875 131.86 66.7298 132.075L65.9177 135.106H64.9175ZM67.9439 135.106L69.2737 130.143H70.2738L68.9441 135.106H67.9439ZM69.984 129.378C69.81 129.378 69.6756 129.321 69.5808 129.209C69.4887 129.095 69.4637 128.96 69.5059 128.802C69.5486 128.643 69.6463 128.507 69.7989 128.395C69.9544 128.281 70.1191 128.224 70.293 128.224C70.467 128.224 70.6 128.281 70.692 128.395C70.7869 128.507 70.813 128.643 70.7703 128.802C70.7281 128.96 70.6293 129.095 70.4739 129.209C70.3212 129.321 70.1579 129.378 69.984 129.378ZM73.429 130.143L73.2212 130.919H70.4148L70.6225 130.143H73.429ZM71.6938 128.954H72.6939L71.436 133.649C71.3858 133.836 71.377 133.977 71.4095 134.072C71.4427 134.165 71.5004 134.228 71.5826 134.263C71.6676 134.295 71.7647 134.311 71.874 134.311C71.9543 134.311 72.0259 134.306 72.089 134.295C72.1521 134.284 72.2013 134.276 72.2365 134.269L72.2032 135.067C72.1395 135.089 72.0512 135.11 71.9384 135.132C71.825 135.156 71.6878 135.169 71.5266 135.171C71.2623 135.175 71.0291 135.13 70.8271 135.035C70.625 134.94 70.4803 134.794 70.3929 134.596C70.3055 134.397 70.3019 134.149 70.3822 133.849L71.6938 128.954ZM72.7504 136.967C72.601 136.967 72.4681 136.955 72.3518 136.932C72.2349 136.91 72.1498 136.886 72.0966 136.86L72.5495 136.069C72.7197 136.116 72.877 136.137 73.0214 136.13C73.1659 136.124 73.3057 136.072 73.441 135.975C73.5784 135.878 73.719 135.72 73.8626 135.5L74.0746 135.171L73.5419 130.143H74.6123L74.8815 133.995H74.935L77.2682 130.143H78.3419L74.7173 135.768C74.5499 136.027 74.3664 136.246 74.1669 136.424C73.9668 136.605 73.7498 136.741 73.5159 136.831C73.2821 136.922 73.0269 136.967 72.7504 136.967ZM82.0407 128.489L80.2676 135.106H79.2675L81.0405 128.489H82.0407ZM83.2119 135.206C82.7057 135.206 82.2978 135.102 81.988 134.893C81.6811 134.682 81.4795 134.386 81.3832 134.004C81.2897 133.621 81.3119 133.172 81.4498 132.657C81.5861 132.149 81.8042 131.701 82.1043 131.313C82.4067 130.925 82.7643 130.623 83.1772 130.405C83.5923 130.187 84.0384 130.079 84.5156 130.079C84.8055 130.079 85.0741 130.125 85.3213 130.218C85.5686 130.31 85.7738 130.456 85.937 130.654C86.1002 130.852 86.2018 131.109 86.2419 131.426C86.2825 131.74 86.2425 132.123 86.1219 132.573L86.0301 132.915H81.9459L82.1398 132.192H85.2439C85.312 131.938 85.3188 131.712 85.2643 131.516C85.2104 131.318 85.1017 131.162 84.9383 131.048C84.7771 130.934 84.5672 130.877 84.3085 130.877C84.0275 130.877 83.7643 130.943 83.5189 131.077C83.2763 131.208 83.0696 131.381 82.8987 131.594C82.7307 131.805 82.6134 132.034 82.5471 132.282L82.3956 132.848C82.3067 133.179 82.2913 133.461 82.3494 133.694C82.4097 133.927 82.5327 134.104 82.7183 134.227C82.9045 134.348 83.1437 134.408 83.4358 134.408C83.6254 134.408 83.8051 134.382 83.9751 134.331C84.1456 134.277 84.3019 134.197 84.4439 134.092C84.5859 133.986 84.7078 133.856 84.8095 133.701L85.712 133.865C85.564 134.135 85.3648 134.37 85.1143 134.573C84.8666 134.773 84.5806 134.929 84.2562 135.041C83.9347 135.151 83.5866 135.206 83.2119 135.206ZM91.542 130.143L88.3491 135.106H87.2787L86.742 130.143H87.8157L88.0936 133.962H88.1471L90.4683 130.143H91.542ZM92.5762 135.206C92.07 135.206 91.662 135.102 91.3523 134.893C91.0454 134.682 90.8437 134.386 90.7474 134.004C90.6539 133.621 90.6761 133.172 90.8141 132.657C90.9503 132.149 91.1685 131.701 91.4686 131.313C91.7709 130.925 92.1286 130.623 92.5414 130.405C92.9565 130.187 93.4027 130.079 93.8799 130.079C94.1698 130.079 94.4383 130.125 94.6856 130.218C94.9328 130.31 95.138 130.456 95.3013 130.654C95.4645 130.852 95.5661 131.109 95.6061 131.426C95.6467 131.74 95.6067 132.123 95.4861 132.573L95.3943 132.915H91.3101L91.504 132.192H94.6082C94.6763 131.938 94.6831 131.712 94.6286 131.516C94.5746 131.318 94.4659 131.162 94.3025 131.048C94.1413 130.934 93.9314 130.877 93.6727 130.877C93.3917 130.877 93.1286 130.943 92.8832 131.077C92.6406 131.208 92.4338 131.381 92.263 131.594C92.0949 131.805 91.9777 132.034 91.9113 132.282L91.7598 132.848C91.6709 133.179 91.6555 133.461 91.7136 133.694C91.7739 133.927 91.8969 134.104 92.0825 134.227C92.2688 134.348 92.5079 134.408 92.8001 134.408C92.9896 134.408 93.1694 134.382 93.3393 134.331C93.5098 134.277 93.6661 134.197 93.8081 134.092C93.9501 133.986 94.072 133.856 94.1738 133.701L95.0762 133.865C94.9283 134.135 94.7291 134.37 94.4786 134.573C94.2309 134.773 93.9449 134.929 93.6205 135.041C93.2989 135.151 92.9508 135.206 92.5762 135.206ZM98.1015 128.489L96.3285 135.106H95.3283L97.1014 128.489H98.1015Z" fill="black"/>
<rect width="28.5592" height="15.2796" rx="7.63981" transform="matrix(1 0 -0.258819 0.965926 103.521 124.346)" fill="#F7EEFF"/>
<path d="M111.121 128.551C111.375 128.552 111.614 128.597 111.838 128.685C112.061 128.773 112.246 128.917 112.391 129.116C112.539 129.315 112.626 129.584 112.654 129.924C112.685 130.261 112.633 130.681 112.501 131.184C112.371 131.667 112.206 132.097 112.005 132.473C111.804 132.849 111.575 133.165 111.318 133.424C111.063 133.682 110.784 133.879 110.482 134.014C110.181 134.148 109.863 134.216 109.531 134.216C109.191 134.216 108.906 134.151 108.677 134.022C108.448 133.892 108.281 133.714 108.176 133.486C108.073 133.256 108.04 132.992 108.079 132.694H108.929C108.922 132.931 108.983 133.123 109.115 133.27C109.249 133.416 109.452 133.489 109.726 133.489C110.144 133.489 110.517 133.313 110.845 132.961C111.174 132.607 111.425 132.114 111.596 131.48H111.552C111.414 131.634 111.257 131.767 111.082 131.878C110.91 131.99 110.726 132.076 110.531 132.137C110.336 132.198 110.138 132.228 109.935 132.228C109.606 132.228 109.328 132.15 109.1 131.994C108.873 131.838 108.715 131.624 108.629 131.351C108.542 131.078 108.546 130.766 108.639 130.416C108.733 130.068 108.899 129.752 109.139 129.469C109.38 129.185 109.671 128.961 110.01 128.796C110.352 128.629 110.723 128.547 111.121 128.551ZM110.936 129.251C110.719 129.251 110.509 129.303 110.306 129.407C110.106 129.509 109.932 129.648 109.785 129.824C109.638 129.998 109.536 130.192 109.478 130.406C109.421 130.619 109.418 130.813 109.468 130.987C109.52 131.16 109.617 131.297 109.759 131.399C109.903 131.5 110.084 131.55 110.304 131.55C110.467 131.55 110.628 131.519 110.785 131.458C110.943 131.397 111.089 131.313 111.224 131.205C111.359 131.096 111.475 130.972 111.571 130.834C111.668 130.696 111.737 130.55 111.778 130.398C111.832 130.195 111.832 130.006 111.778 129.832C111.727 129.658 111.629 129.518 111.484 129.412C111.34 129.304 111.158 129.251 110.936 129.251ZM114.09 134.232C113.65 134.23 113.304 134.118 113.051 133.895C112.798 133.673 112.646 133.349 112.595 132.923C112.544 132.498 112.598 131.985 112.759 131.386C112.919 130.788 113.139 130.277 113.417 129.854C113.698 129.43 114.025 129.107 114.396 128.884C114.77 128.662 115.175 128.551 115.612 128.551C116.049 128.551 116.393 128.663 116.645 128.887C116.898 129.11 117.05 129.433 117.102 129.856C117.156 130.278 117.103 130.788 116.943 131.386C116.782 131.987 116.561 132.5 116.282 132.926C116.003 133.349 115.678 133.673 115.305 133.898C114.933 134.12 114.528 134.232 114.09 134.232ZM114.282 133.513C114.669 133.513 115.02 133.331 115.335 132.966C115.652 132.602 115.902 132.075 116.087 131.386C116.21 130.928 116.263 130.541 116.248 130.225C116.234 129.908 116.156 129.667 116.014 129.504C115.875 129.339 115.678 129.256 115.423 129.256C115.038 129.256 114.687 129.439 114.37 129.805C114.052 130.171 113.801 130.698 113.615 131.386C113.492 131.845 113.437 132.234 113.45 132.552C113.466 132.867 113.544 133.107 113.684 133.27C113.825 133.432 114.024 133.513 114.282 133.513ZM119.862 133.106L119.94 132.815C119.996 132.607 120.091 132.417 120.226 132.245C120.364 132.071 120.533 131.931 120.734 131.827C120.937 131.721 121.162 131.668 121.409 131.668C121.662 131.668 121.86 131.72 122.003 131.825C122.146 131.929 122.238 132.068 122.279 132.242C122.321 132.416 122.315 132.607 122.259 132.815L122.181 133.106C122.125 133.314 122.029 133.506 121.894 133.68C121.758 133.852 121.59 133.991 121.389 134.097C121.19 134.201 120.966 134.253 120.717 134.253C120.466 134.253 120.268 134.201 120.123 134.097C119.979 133.991 119.885 133.852 119.842 133.68C119.799 133.506 119.806 133.314 119.862 133.106ZM120.589 132.815L120.511 133.106C120.47 133.261 120.471 133.401 120.513 133.526C120.556 133.652 120.672 133.715 120.861 133.715C121.049 133.715 121.197 133.652 121.305 133.526C121.413 133.401 121.487 133.261 121.529 133.106L121.607 132.815C121.648 132.661 121.649 132.521 121.61 132.395C121.574 132.27 121.458 132.207 121.265 132.207C121.079 132.207 120.931 132.27 120.819 132.395C120.707 132.521 120.631 132.661 120.589 132.815ZM117.836 129.951L117.914 129.66C117.97 129.452 118.066 129.26 118.202 129.086C118.339 128.912 118.509 128.773 118.709 128.669C118.912 128.565 119.137 128.513 119.384 128.513C119.637 128.513 119.835 128.565 119.978 128.669C120.121 128.773 120.213 128.912 120.253 129.086C120.294 129.26 120.286 129.452 120.231 129.66L120.153 129.951C120.097 130.159 120.001 130.35 119.865 130.524C119.732 130.696 119.564 130.836 119.363 130.941C119.164 131.046 118.94 131.098 118.691 131.098C118.439 131.098 118.24 131.046 118.095 130.941C117.952 130.836 117.859 130.696 117.816 130.524C117.774 130.35 117.78 130.159 117.836 129.951ZM118.566 129.66L118.489 129.951C118.447 130.105 118.447 130.245 118.487 130.371C118.53 130.496 118.646 130.559 118.836 130.559C119.021 130.559 119.168 130.496 119.276 130.371C119.386 130.245 119.462 130.105 119.503 129.951L119.581 129.66C119.622 129.505 119.624 129.365 119.585 129.24C119.546 129.114 119.431 129.051 119.24 129.051C119.054 129.051 118.905 129.114 118.793 129.24C118.683 129.365 118.608 129.505 118.566 129.66ZM116.978 134.14L122.381 128.626H123.047L117.645 134.14H116.978Z" fill="#7333A8"/>
<rect width="33.753" height="3.13981" rx="1.56991" transform="matrix(1 0 -0.258819 0.965926 21.8008 145.17)" fill="#7333A8"/>
<rect width="33.753" height="3.13981" rx="1.56991" transform="matrix(1 0 -0.258819 0.965926 60.2637 145.17)" fill="#7333A8"/>
<rect width="33.753" height="3.13981" rx="1.56991" transform="matrix(1 0 -0.258819 0.965926 99.5112 145.17)" fill="#7333A8"/>
<rect width="33.753" height="3.13981" rx="1.56991" transform="matrix(1 0 -0.258819 0.965926 137.974 145.17)" fill="#D1B5E8"/>
<rect width="14.1291" height="3.13981" rx="1.56991" transform="matrix(1 0 -0.258819 0.965926 137.974 145.17)" fill="#7333A8"/>
<rect width="44.5592" height="15.2796" rx="7.63981" transform="matrix(1 0 -0.258819 0.965926 164.959 15.1641)" fill="#CBF8E1"/>
<path d="M173.445 20.8927C173.483 20.6378 173.414 20.4404 173.235 20.3004C173.058 20.1586 172.806 20.0877 172.479 20.0877C172.244 20.0877 172.032 20.1236 171.842 20.1954C171.652 20.2654 171.493 20.3623 171.365 20.4861C171.24 20.6082 171.156 20.7473 171.114 20.9035C171.079 21.0345 171.08 21.1476 171.118 21.2427C171.158 21.3379 171.221 21.4178 171.308 21.4824C171.397 21.5452 171.496 21.5981 171.605 21.6412C171.715 21.6825 171.822 21.7166 171.926 21.7435L172.446 21.8836C172.617 21.9266 172.788 21.985 172.96 22.0586C173.131 22.1322 173.283 22.2291 173.414 22.3494C173.545 22.4696 173.637 22.6186 173.69 22.7963C173.745 22.974 173.739 23.1867 173.672 23.4344C173.589 23.7468 173.431 24.0241 173.199 24.2664C172.968 24.5087 172.676 24.6999 172.323 24.8399C171.971 24.9799 171.573 25.0499 171.127 25.0499C170.699 25.0499 170.347 24.9844 170.07 24.8534C169.793 24.7223 169.598 24.5366 169.486 24.296C169.374 24.0537 169.354 23.7665 169.424 23.4344H170.288C170.252 23.6337 170.274 23.7997 170.356 23.9325C170.439 24.0636 170.565 24.1614 170.731 24.226C170.9 24.2888 171.095 24.3203 171.317 24.3203C171.56 24.3203 171.786 24.2835 171.996 24.2099C172.207 24.1345 172.386 24.0304 172.531 23.8975C172.677 23.7629 172.773 23.6059 172.822 23.4264C172.865 23.263 172.853 23.1293 172.784 23.0252C172.717 22.9211 172.611 22.8349 172.466 22.7667C172.323 22.6985 172.156 22.6383 171.965 22.5863L171.338 22.4086C170.913 22.2883 170.598 22.1115 170.393 21.8782C170.19 21.6448 170.14 21.3361 170.243 20.9519C170.328 20.6342 170.491 20.3569 170.733 20.12C170.975 19.883 171.266 19.699 171.606 19.568C171.946 19.4352 172.308 19.3688 172.691 19.3688C173.077 19.3688 173.401 19.4343 173.661 19.5653C173.923 19.6964 174.109 19.8767 174.218 20.1065C174.328 20.3345 174.347 20.5965 174.275 20.8927H173.445ZM176.049 25.0418C175.628 25.0418 175.288 24.9548 175.029 24.7807C174.774 24.6048 174.606 24.358 174.525 24.0402C174.447 23.7207 174.466 23.3465 174.581 22.9175C174.694 22.4939 174.876 22.1205 175.126 21.7974C175.378 21.4743 175.676 21.2221 176.02 21.0408C176.366 20.8595 176.738 20.7689 177.136 20.7689C177.377 20.7689 177.601 20.8075 177.807 20.8846C178.013 20.9618 178.184 21.083 178.32 21.2481C178.456 21.4133 178.541 21.6278 178.574 21.8916C178.608 22.1537 178.575 22.4723 178.474 22.8475L178.398 23.1329H174.994L175.156 22.5298H177.743C177.799 22.3179 177.805 22.1304 177.76 21.967C177.715 21.8019 177.624 21.6717 177.488 21.5766C177.354 21.4815 177.179 21.4339 176.963 21.4339C176.729 21.4339 176.51 21.4896 176.305 21.6008C176.103 21.7103 175.931 21.8539 175.788 22.0316C175.648 22.2075 175.551 22.3987 175.495 22.6051L175.369 23.0763C175.295 23.3528 175.282 23.5879 175.331 23.7818C175.381 23.9756 175.483 24.1237 175.638 24.226C175.793 24.3265 175.992 24.3768 176.236 24.3768C176.394 24.3768 176.544 24.3553 176.685 24.3122C176.827 24.2673 176.958 24.2009 177.076 24.1129C177.194 24.025 177.296 23.9164 177.381 23.7871L178.133 23.9245C178.009 24.1488 177.843 24.3454 177.635 24.5141C177.428 24.6811 177.19 24.8112 176.92 24.9045C176.652 24.9961 176.362 25.0418 176.049 25.0418ZM180.615 25.0418C180.2 25.0418 179.868 24.9512 179.617 24.7699C179.369 24.5868 179.208 24.3346 179.134 24.0133C179.06 23.692 179.079 23.324 179.19 22.9094C179.303 22.4894 179.484 22.1187 179.733 21.7974C179.983 21.4743 180.281 21.2221 180.627 21.0408C180.973 20.8595 181.348 20.7689 181.751 20.7689C182.076 20.7689 182.351 20.8272 182.574 20.9439C182.798 21.0588 182.96 21.2203 183.06 21.4285C183.162 21.6367 183.191 21.88 183.146 22.1582H182.335C182.342 21.9643 182.285 21.7974 182.163 21.6574C182.042 21.5174 181.849 21.4474 181.583 21.4474C181.351 21.4474 181.132 21.5066 180.925 21.6251C180.721 21.7417 180.542 21.9087 180.387 22.1259C180.232 22.3413 180.116 22.5962 180.037 22.8905C179.956 23.1921 179.934 23.4524 179.97 23.6714C180.006 23.8904 180.094 24.06 180.235 24.1802C180.377 24.3005 180.567 24.3606 180.803 24.3606C180.961 24.3606 181.111 24.3328 181.254 24.2772C181.4 24.2197 181.53 24.1381 181.646 24.0322C181.764 23.9263 181.86 23.7988 181.935 23.6498H182.746C182.645 23.9173 182.491 24.156 182.284 24.366C182.077 24.576 181.831 24.7412 181.547 24.8615C181.263 24.9817 180.953 25.0418 180.615 25.0418ZM186.459 23.2433L187.107 20.8227H187.944L186.836 24.9584H186.016L186.208 24.2422H186.163C186.006 24.463 185.798 24.6469 185.542 24.7941C185.287 24.9395 184.999 25.0122 184.678 25.0122C184.403 25.0122 184.175 24.9539 183.994 24.8372C183.816 24.7187 183.697 24.5437 183.639 24.3122C183.582 24.0806 183.599 23.7943 183.69 23.4533L184.395 20.8227H185.229L184.55 23.3563C184.474 23.6382 184.495 23.8625 184.612 24.0295C184.729 24.1964 184.917 24.2799 185.175 24.2799C185.331 24.2799 185.496 24.2422 185.671 24.1668C185.847 24.0914 186.007 23.9774 186.15 23.8248C186.295 23.6723 186.398 23.4784 186.459 23.2433ZM187.955 24.9584L189.064 20.8227H189.869L189.693 21.4797H189.738C189.875 21.2571 190.06 21.0821 190.291 20.9546C190.524 20.8254 190.767 20.7608 191.017 20.7608C191.069 20.7608 191.13 20.7626 191.2 20.7662C191.272 20.7698 191.327 20.7742 191.366 20.7796L191.16 21.5497C191.129 21.5407 191.072 21.5308 190.99 21.5201C190.908 21.5075 190.824 21.5012 190.738 21.5012C190.541 21.5012 190.355 21.5416 190.179 21.6224C190.005 21.7014 189.855 21.8118 189.728 21.9536C189.601 22.0936 189.514 22.2533 189.466 22.4328L188.789 24.9584H187.955ZM192.638 25.0418C192.216 25.0418 191.876 24.9548 191.618 24.7807C191.362 24.6048 191.194 24.358 191.114 24.0402C191.036 23.7207 191.054 23.3465 191.169 22.9175C191.283 22.4939 191.465 22.1205 191.715 21.7974C191.967 21.4743 192.265 21.2221 192.609 21.0408C192.955 20.8595 193.326 20.7689 193.724 20.7689C193.966 20.7689 194.189 20.8075 194.395 20.8846C194.601 20.9618 194.773 21.083 194.909 21.2481C195.045 21.4133 195.129 21.6278 195.163 21.8916C195.196 22.1537 195.163 22.4723 195.063 22.8475L194.986 23.1329H191.583L191.744 22.5298H194.331C194.388 22.3179 194.393 22.1304 194.348 21.967C194.303 21.8019 194.212 21.6717 194.076 21.5766C193.942 21.4815 193.767 21.4339 193.551 21.4339C193.317 21.4339 193.098 21.4896 192.893 21.6008C192.691 21.7103 192.519 21.8539 192.377 22.0316C192.237 22.2075 192.139 22.3987 192.084 22.6051L191.957 23.0763C191.883 23.3528 191.87 23.5879 191.919 23.7818C191.969 23.9756 192.072 24.1237 192.226 24.226C192.381 24.3265 192.581 24.3768 192.824 24.3768C192.982 24.3768 193.132 24.3553 193.274 24.3122C193.416 24.2673 193.546 24.2009 193.664 24.1129C193.783 24.025 193.884 23.9164 193.969 23.7871L194.721 23.9245C194.598 24.1488 194.432 24.3454 194.223 24.5141C194.017 24.6811 193.778 24.8112 193.508 24.9045C193.24 24.9961 192.95 25.0418 192.638 25.0418ZM197.003 25.0392C196.657 25.0392 196.372 24.9539 196.146 24.7834C195.923 24.611 195.776 24.366 195.707 24.0483C195.641 23.7288 195.667 23.3456 195.787 22.8986C195.907 22.4517 196.086 22.0693 196.326 21.7516C196.567 21.4339 196.846 21.1907 197.162 21.022C197.479 20.8532 197.809 20.7689 198.153 20.7689C198.418 20.7689 198.621 20.8119 198.759 20.8981C198.9 20.9825 199 21.0812 199.059 21.1943C199.12 21.3074 199.164 21.407 199.191 21.4931H199.241L199.79 19.4442H200.623L199.146 24.9584H198.332L198.504 24.3149H198.435C198.361 24.4028 198.261 24.5033 198.136 24.6164C198.013 24.7295 197.858 24.8282 197.672 24.9126C197.486 24.997 197.263 25.0392 197.003 25.0392ZM197.371 24.3526C197.61 24.3526 197.829 24.2915 198.028 24.1695C198.228 24.0456 198.4 23.8742 198.544 23.6552C198.69 23.4362 198.802 23.1813 198.88 22.8905C198.957 22.6033 198.982 22.352 198.954 22.1366C198.926 21.9212 198.846 21.7534 198.713 21.6332C198.58 21.5129 198.391 21.4528 198.148 21.4528C197.897 21.4528 197.671 21.5156 197.47 21.6412C197.269 21.7669 197.097 21.9383 196.953 22.1555C196.811 22.3727 196.704 22.6177 196.631 22.8905C196.557 23.167 196.533 23.4156 196.559 23.6364C196.586 23.8572 196.665 24.0322 196.798 24.1614C196.933 24.2888 197.124 24.3526 197.371 24.3526Z" fill="#128B4D"/>
<path d="M129.037 43.1724L88.6118 91.8394L107.843 109.108L140.026 86.3448L129.037 43.1724Z" fill="url(#paint0_linear_746_7557)"/>
<path d="M107.623 31.4946C108.224 31.0267 109.009 31.0183 109.373 31.4756C113.44 36.5915 120.425 40.7508 128.586 42.6862C129.088 42.8051 129.352 43.2569 129.217 43.7854C128.76 45.5663 127.548 50.2929 124.433 62.4395C119.33 82.3368 97.7838 92.6065 92.8185 94.8218C92.4608 94.9814 92.1062 94.9909 91.8247 94.8432C87.9929 92.8326 71.5463 82.8172 76.642 62.9455C79.757 50.7993 80.9693 46.073 81.4261 44.2922C81.5616 43.7638 82.0598 43.304 82.625 43.1737C91.8171 41.0544 100.911 36.7243 107.623 31.4946Z" fill="url(#paint1_linear_746_7557)"/>
<path d="M107.759 34.3942C107.783 34.3788 107.81 34.3792 107.825 34.3955C111.878 38.9824 118.127 42.6051 125.528 44.6515C126.006 44.7836 126.251 45.2272 126.119 45.7403L121.825 62.4662C119.76 70.519 114.525 77.8242 106.265 84.1812C102.172 87.3094 97.752 89.9629 93.1442 92.0583C93.0412 92.1051 92.9326 92.106 92.8532 92.061C92.7623 92.0095 92.7238 91.9059 92.7535 91.7924L107.729 34.4323C107.733 34.4179 107.745 34.4033 107.759 34.3942Z" fill="#A36AD2"/>
<g filter="url(#filter0_i_746_7557)">
<path d="M107.745 34.4075L92.7154 91.9752C89.2223 89.9784 86.1935 87.4337 83.7215 84.4189C78.6873 78.2022 77.1807 70.9686 79.2455 62.9159L83.5348 46.1889C83.6664 45.6759 84.1411 45.2247 84.6895 45.0817C93.171 42.8696 101.309 39.1006 107.745 34.4075Z" fill="#A36AD2"/>
</g>
<g filter="url(#filter1_d_746_7557)">
<path d="M91.4619 59.8367L87.9076 73.4703C87.511 74.9875 106.822 74.8652 107.216 73.3481L110.77 59.7145L91.4619 59.8367ZM97.3882 64.9372C97.4938 64.523 97.7137 64.1151 98.0245 63.7566C98.3354 63.398 98.7257 63.1022 99.1542 62.9002C99.5828 62.6983 100.034 62.5978 100.459 62.6093C100.885 62.6208 101.269 62.7439 101.572 62.9657C101.875 63.1874 102.085 63.4995 102.18 63.869C102.275 64.2386 102.251 64.6518 102.111 65.0651C101.971 65.4783 101.72 65.8763 101.385 66.217C101.049 66.5577 100.642 66.8284 100.206 67.0006L99.1951 70.8732C99.1233 71.118 98.9563 71.3508 98.7294 71.5224C98.5026 71.694 98.2338 71.7908 97.9799 71.7924C97.7259 71.7941 97.5069 71.7003 97.3691 71.5311C97.2312 71.3618 97.1855 71.1303 97.2415 70.8856L98.2502 67.0216C97.8768 66.8444 97.5968 66.5526 97.4442 66.182C97.2916 65.8113 97.2731 65.3778 97.391 64.9344L97.3882 64.9372Z" fill="white"/>
</g>
<g filter="url(#filter2_d_746_7557)">
<path d="M93.4059 58.8513L95.3605 58.8389L95.6005 57.9213C96.0164 56.3953 97.0379 54.9335 98.4432 53.8533C99.8486 52.773 101.524 52.1615 103.107 52.1515C104.69 52.1414 106.051 52.7336 106.896 53.7996C107.741 54.8655 108.001 56.3192 107.62 57.845L107.38 58.7635L109.335 58.7511L109.574 57.8316C110.675 53.6161 107.997 50.2094 103.602 50.2371C99.2069 50.2648 94.743 53.7174 93.6422 57.9328L93.4059 58.8513Z" fill="white"/>
</g>
</g>
<defs>
<filter id="filter0_i_746_7557" x="78.3491" y="34.4075" width="29.396" height="57.5677" filterUnits="userSpaceOnUse" color-interpolation-filters="sRGB">
<feFlood flood-opacity="0" result="BackgroundImageFix"/>
<feBlend mode="normal" in="SourceGraphic" in2="BackgroundImageFix" result="shape"/>
<feColorMatrix in="SourceAlpha" type="matrix" values="0 0 0 0 0 0 0 0 0 0 0 0 0 0 0 0 0 0 127 0" result="hardAlpha"/>
<feOffset dx="1.75179" dy="1.45982"/>
<feComposite in2="hardAlpha" operator="arithmetic" k2="-1" k3="1"/>
<feColorMatrix type="matrix" values="0 0 0 0 0.54902 0 0 0 0 0.270588 0 0 0 0 0.780392 0 0 0 1 0"/>
<feBlend mode="normal" in2="shape" result="effect1_innerShadow_746_7557"/>
</filter>
<filter id="filter1_d_746_7557" x="87.9014" y="59.7145" width="23.4526" height="15.4184" filterUnits="userSpaceOnUse" color-interpolation-filters="sRGB">
<feFlood flood-opacity="0" result="BackgroundImageFix"/>
<feColorMatrix in="SourceAlpha" type="matrix" values="0 0 0 0 0 0 0 0 0 0 0 0 0 0 0 0 0 0 127 0" result="hardAlpha"/>
<feOffset dx="0.583928" dy="0.583928"/>
<feComposite in2="hardAlpha" operator="out"/>
<feColorMatrix type="matrix" values="0 0 0 0 0 0 0 0 0 0 0 0 0 0 0 0 0 0 0.25 0"/>
<feBlend mode="normal" in2="BackgroundImageFix" result="effect1_dropShadow_746_7557"/>
<feBlend mode="normal" in="SourceGraphic" in2="effect1_dropShadow_746_7557" result="shape"/>
</filter>
<filter id="filter2_d_746_7557" x="93.4058" y="50.2369" width="16.9995" height="9.19831" filterUnits="userSpaceOnUse" color-interpolation-filters="sRGB">
<feFlood flood-opacity="0" result="BackgroundImageFix"/>
<feColorMatrix in="SourceAlpha" type="matrix" values="0 0 0 0 0 0 0 0 0 0 0 0 0 0 0 0 0 0 127 0" result="hardAlpha"/>
<feOffset dx="0.583928" dy="0.583928"/>
<feComposite in2="hardAlpha" operator="out"/>
<feColorMatrix type="matrix" values="0 0 0 0 0 0 0 0 0 0 0 0 0 0 0 0 0 0 0.25 0"/>
<feBlend mode="normal" in2="BackgroundImageFix" result="effect1_dropShadow_746_7557"/>
<feBlend mode="normal" in="SourceGraphic" in2="effect1_dropShadow_746_7557" result="shape"/>
</filter>
<linearGradient id="paint0_linear_746_7557" x1="75.2676" y1="3.13978" x2="128.644" y2="93.0169" gradientUnits="userSpaceOnUse">
<stop stop-color="#7333A8"/>
<stop offset="1" stop-color="white"/>
</linearGradient>
<linearGradient id="paint1_linear_746_7557" x1="80.3169" y1="40.7657" x2="125.326" y2="53.2469" gradientUnits="userSpaceOnUse">
<stop stop-color="#A36AD2"/>
<stop offset="0.510963" stop-color="#E8DAF4"/>
<stop offset="1" stop-color="#A36AD2"/>
</linearGradient>
<clipPath id="clip0_746_7557">
<rect width="180.539" height="172.69" rx="9.41943" transform="matrix(1 0 -0.258819 0.965926 45 0)" fill="white"/>
</clipPath>
</defs>
</svg>
